<svg width="66" height="66" viewBox="0 0 66 66" fill="none" xmlns="http://www.w3.org/2000/svg">
<path d="M9.76807 57.4022C9.63145 57.6216 9.52709 57.873 9.35063 58.0564C7.34499 60.1363 5.32986 62.2048 3.31474 64.2752C3.14966 64.4453 2.99027 64.6268 2.80052 64.7611C2.30907 65.1071 1.81004 65.0787 1.37741 64.6665C0.948579 64.2562 0.872679 63.7628 1.21423 63.2579C1.35843 63.0443 1.55577 62.8665 1.73793 62.6812C22.06 42.3499 42.3839 22.0204 62.7078 1.69096C62.8425 1.55671 62.9715 1.4168 63.1177 1.29768C63.6243 0.885494 64.2239 0.904402 64.6565 1.3355C65.0948 1.77226 65.1176 2.35272 64.7021 2.8689C64.5692 3.0334 64.4079 3.1771 64.258 3.32836C60.4859 7.12501 56.7137 10.9198 52.9415 14.7164C52.7935 14.8639 52.6568 15.0227 52.4975 15.1967C53.5202 16.3236 54.5486 17.4051 55.505 18.5471C55.782 18.878 55.9964 19.3828 55.9964 19.8082C56.023 31.9356 56.023 44.0629 56.0116 56.1903C56.0097 58.9186 55.1217 61.2896 52.9908 63.1029C51.7366 64.1712 50.2679 64.7573 48.6285 64.7611C38.217 64.7819 27.8036 64.7913 17.3922 64.7611C14.3258 64.7516 11.4625 62.3712 10.3961 59.1058C10.2368 58.6161 10.1324 58.1075 10.0034 57.6083C9.92367 57.5403 9.84587 57.4741 9.76618 57.406L9.76807 57.4022ZM53.6284 20.6345C51.6151 20.6345 49.7176 20.661 47.8221 20.6194C47.2206 20.6061 46.8183 20.8028 46.4027 21.2187C35.4922 32.1133 24.5912 43.0154 13.6181 53.8457C12.4606 54.9877 12.1323 56.0825 12.3486 57.5875C12.7661 60.4804 15.0203 62.7228 17.7887 62.7304C27.8947 62.755 38.0007 62.7417 48.1067 62.7399C49.5317 62.7399 50.7328 62.2086 51.7385 61.2083C53.1369 59.8149 53.6284 58.0886 53.6284 56.1751C53.6284 44.5904 53.6284 33.0039 53.6284 21.4192C53.6284 21.1885 53.6284 20.9578 53.6284 20.6383V20.6345ZM51.0781 16.9948C50.5582 17.4788 50.0649 17.9383 49.6607 18.3145H52.2033C51.7214 17.7511 51.3172 17.2765 51.0762 16.9948H51.0781Z" fill="white" stroke="white" stroke-width="0.3"/>
<path d="M38.2549 3.36243H37.4048C30.978 3.36243 24.5513 3.36243 18.1245 3.36243C14.9785 3.36243 12.6787 5.43282 12.358 8.55825C12.303 9.09711 12.2745 9.64354 12.2745 10.1843C12.2708 21.3171 12.2708 32.4499 12.2708 43.5827C12.2708 43.8663 12.2783 44.1518 12.2518 44.4335C12.193 45.0726 11.804 45.43 11.1873 45.4621C10.5592 45.4962 10.1664 45.1369 10.0374 44.5262C9.99378 44.3201 9.99567 44.1027 9.99567 43.8909C9.99567 32.5218 9.98808 21.1526 9.99757 9.78346C9.99947 6.75446 11.0013 4.17924 13.5876 2.3868C14.8096 1.53974 16.1739 1.09919 17.6577 1.0973C24.796 1.08596 31.9343 1.08218 39.0727 1.11432C39.4958 1.11432 40.0423 1.32797 40.3193 1.63239C42.4976 4.03365 44.6304 6.47652 46.7632 8.91938C47.228 9.45069 47.1465 10.1049 46.6247 10.5492C46.1465 10.9576 45.5127 10.8877 44.9947 10.3034C43.7215 8.87022 42.4692 7.41812 41.2073 5.97547C41.029 5.77126 40.8373 5.57462 40.5641 5.27778C40.5489 5.56706 40.5318 5.7221 40.5318 5.87715C40.5318 8.87968 40.5299 11.8803 40.5356 14.8828C40.5356 15.1627 40.5869 15.4444 40.6248 15.7242C40.7102 16.3425 40.3402 16.9494 39.7482 17.0799C39.1182 17.2179 38.6628 16.9192 38.4446 16.3595C38.3042 15.9965 38.2662 15.5768 38.2643 15.1816C38.2492 11.5646 38.253 7.94942 38.2511 4.33239C38.2511 4.05067 38.2511 3.76706 38.2511 3.36054L38.2549 3.36243Z" fill="white" stroke="white" stroke-width="0.3"/>
</svg>
