<svg width="64" height="64" viewBox="0 0 64 64" fill="none" xmlns="http://www.w3.org/2000/svg">
<path d="M12.2943 57.2232H51.6918C51.2222 55.7646 50.7707 54.3556 50.3143 52.9499C49.1996 49.5134 48.0767 46.0802 46.977 42.6404C46.8364 42.2021 46.6528 42.0185 46.165 42.0351C44.9677 42.0764 43.767 42.0533 42.568 42.0467C41.6502 42.0417 41.1293 41.5571 41.1161 40.7203C41.1012 39.8604 41.6386 39.3279 42.5697 39.3213C44.2036 39.3097 45.8359 39.3163 47.4698 39.318C48.4786 39.318 48.8722 39.6057 49.188 40.5814C51.0188 46.2158 52.8478 51.8501 54.6769 57.4845C54.7414 57.6813 54.8141 57.8748 54.872 58.0732C55.1829 59.1416 54.6173 59.942 53.5126 59.9966C53.3886 60.0032 53.2646 59.9982 53.1405 59.9982C39.0406 59.9982 24.939 59.9982 10.839 59.9982C10.7348 59.9982 10.6323 59.9999 10.5281 59.9982C9.31592 59.9668 8.7371 59.1565 9.11416 57.9889C10.3379 54.1968 11.5683 50.4081 12.7971 46.6193C13.4404 44.6364 14.0854 42.6536 14.7287 40.6707C15.0842 39.5776 15.4348 39.318 16.5677 39.318C18.9243 39.318 21.2809 39.318 23.6391 39.318H24.3502C24.1534 39.0666 24.0393 38.9078 23.912 38.759C22.3508 36.9382 20.6855 35.1968 19.2434 33.2867C15.1934 27.9236 13.5148 21.9568 15.8334 15.4592C18.2644 8.64734 23.3216 4.76266 30.532 4.07801C39.5764 3.21971 47.574 9.53541 48.9019 18.5252C49.7189 24.0488 48.133 29.0514 44.6435 33.3429C41.202 37.5765 37.5456 41.6349 33.985 45.7726C33.8577 45.9214 33.7386 46.0785 33.527 46.3415C34.3505 46.3415 35.0468 46.3349 35.7413 46.3431C36.6757 46.3547 37.2893 46.8971 37.2727 47.6794C37.2562 48.4682 36.6459 48.9858 35.7033 48.9875C33.2012 48.9908 30.699 48.9925 28.1985 48.9875C27.2741 48.9858 26.6589 48.4335 26.6705 47.6413C26.682 46.8756 27.2757 46.3564 28.177 46.3448C28.8749 46.3349 29.5728 46.3431 30.4063 46.3431C30.2194 46.0984 30.1119 45.9413 29.9879 45.7957C29.0171 44.6679 28.0563 43.5301 27.0591 42.4254C26.8805 42.2286 26.5481 42.0682 26.2851 42.0649C23.4109 42.04 20.5383 42.05 17.6641 42.0467C17.383 42.0467 17.1713 42.0483 17.0572 42.4039C15.4977 47.2577 13.92 52.1065 12.3489 56.9553C12.3258 57.0281 12.3191 57.1058 12.2976 57.2232H12.2943ZM31.9592 43.8708C32.108 43.7136 32.1973 43.6277 32.2767 43.535C35.614 39.6702 38.9744 35.8269 42.2671 31.9257C43.0857 30.9566 43.7902 29.8551 44.3607 28.7207C45.9235 25.6149 46.7653 22.3289 46.1865 18.8328C44.8188 10.5723 37.0544 5.31337 28.8567 7.04816C22.9313 8.30171 18.2644 13.4317 17.6922 19.4034C17.249 24.0157 18.6481 28.1237 21.4925 31.6958C23.745 34.5237 26.1925 37.1945 28.5558 39.9332C29.6737 41.2297 30.7949 42.5229 31.9575 43.8691L31.9592 43.8708Z" fill="white"/>
<path d="M31.984 27.8987C28.1572 27.9037 25.0548 24.8376 25.0415 21.0406C25.0283 17.2518 28.1275 14.1444 31.9361 14.1262C35.7811 14.108 38.9083 17.2039 38.905 21.0241C38.9017 24.8294 35.8141 27.8954 31.9824 27.8987H31.984ZM31.9675 25.175C34.2679 25.175 36.168 23.2963 36.1697 21.0191C36.173 18.7501 34.2613 16.8516 31.9724 16.85C29.6836 16.8483 27.7752 18.7402 27.7719 21.0141C27.7702 23.293 29.6688 25.1767 31.9658 25.1767L31.9675 25.175Z" fill="white"/>
</svg>
