<svg width="64" height="64" viewBox="0 0 64 64" fill="none" xmlns="http://www.w3.org/2000/svg">
<path d="M51.04 4C51.3995 4.11958 51.7706 4.21292 52.1169 4.36312C54.0164 5.18271 55.0626 7.19958 54.6637 9.23979C54.2721 11.2377 52.5348 12.699 50.4804 12.7442C49.7381 12.7602 48.9958 12.7471 48.1966 12.7471V13.4398C48.1966 22.3896 48.1966 31.3379 48.1966 40.2877C48.1966 41.5258 47.8809 41.8437 46.6506 41.8437C44.4632 41.8437 42.2759 41.8437 40.0885 41.8437H39.5815C39.4032 43.0687 39.3433 44.2617 39.0423 45.389C38.2006 48.5404 36.2441 50.8183 33.3101 52.2402C32.9799 52.4006 32.8703 52.5727 32.8747 52.9358C32.8951 54.7952 32.8615 56.6546 32.8966 58.5125C32.9097 59.1862 32.7095 59.6777 32.1192 60H11.7753C11.1835 59.6777 10.9965 59.1862 10.9979 58.514C11.0155 50.6069 11.0169 42.6998 11.0052 34.7927C11.0023 32.5017 11.8001 30.5752 13.4293 28.9667C15.4399 26.9833 17.4315 24.9825 19.4128 22.9685C19.6013 22.776 19.7431 22.445 19.746 22.1767C19.7694 19.2075 19.7606 16.2369 19.7591 13.2677C19.7591 13.1087 19.7445 12.9512 19.7328 12.7456C18.938 12.7456 18.1767 12.7646 17.4154 12.7427C15.5641 12.6902 13.948 11.4404 13.3972 9.65833C12.8507 7.89375 13.4439 5.95271 14.9577 4.90125C15.5378 4.49729 16.2582 4.29458 16.9157 4C28.291 4 39.6662 4 51.04 4ZM28.4736 41.8598C28.4838 42.0727 28.4926 42.2346 28.497 42.3965C28.6007 45.4677 27.5501 48.0694 25.3145 50.181C24.7549 50.709 24.1193 50.7235 23.6663 50.2583C23.2061 49.7844 23.2703 49.1267 23.8329 48.5754C26.0904 46.3631 26.8298 43.7279 25.9735 40.6815C25.5834 39.2917 25.9048 38.144 26.9131 37.1421C28.9046 35.1631 30.8845 33.174 32.8674 31.1877C33.0091 31.0462 33.1537 30.9062 33.2867 30.756C34.2277 29.706 34.4279 28.2667 33.8054 27.046C33.164 25.7904 31.9483 25.1502 30.4959 25.3267C29.6089 25.4346 28.8915 25.875 28.269 26.5006C25.8493 28.9273 23.4238 31.3496 20.9997 33.7704C20.8579 33.9119 20.7206 34.0635 20.5555 34.1729C20.1303 34.4544 19.6934 34.4442 19.2857 34.1365C18.8912 33.839 18.7729 33.419 18.916 32.9669C18.9891 32.7379 19.1586 32.509 19.3471 32.3544C19.6905 32.0685 19.7738 31.7346 19.7679 31.3029C19.7445 29.6623 19.7591 28.0217 19.7591 26.381V25.7612C19.5648 25.9406 19.4581 26.0325 19.3588 26.1317C17.8888 27.6002 16.4262 29.0775 14.9475 30.5373C13.7552 31.7156 13.1882 33.1273 13.1912 34.8044C13.2028 42.2783 13.1955 49.7523 13.1955 57.2262V57.7775H30.696C30.696 55.8525 30.696 53.9596 30.696 52.0667C30.696 51.1012 30.8553 50.881 31.7554 50.5252C34.4659 49.4533 36.2076 47.5021 36.982 44.6977C37.2377 43.7717 37.3327 42.8194 37.2202 41.8569H28.4736V41.8598ZM21.9699 29.6856C22.1292 29.5412 22.2227 29.4625 22.3089 29.375C23.884 27.8058 25.427 26.2031 27.0387 24.6719C29.2933 22.5296 32.6569 22.601 34.8546 24.7754C34.8999 24.8206 34.9525 24.8571 35.027 24.9198V6.21812H21.9684V29.6856H21.9699ZM41.5964 39.63V6.23125H37.286V39.63H41.5964ZM45.9726 39.63V6.23125H43.8481V39.63H45.9726ZM35.0445 32.124C32.7782 34.3844 30.5704 36.5777 28.3801 38.7856C28.1755 38.9912 28.0762 39.3019 27.8921 39.6285H35.0445V32.1225V32.124ZM19.7489 6.20062C18.9029 6.20062 18.1022 6.1525 17.3088 6.21229C16.2947 6.28958 15.4925 7.15 15.3932 8.15479C15.2909 9.19021 15.9192 10.2417 16.9405 10.4342C17.8508 10.6048 18.8021 10.5537 19.7475 10.6004V6.20062H19.7489ZM48.2272 6.20062V10.5479C49.0543 10.5479 49.8564 10.6004 50.6484 10.5348C51.7487 10.4429 52.5699 9.47021 52.5699 8.37208C52.5699 7.27542 51.7428 6.30125 50.6455 6.21229C49.8535 6.14812 49.0528 6.19917 48.2272 6.19917V6.20062Z" fill="white"/>
<path d="M24.1339 14.1223C24.1339 12.6479 24.1309 11.175 24.1339 9.70064C24.1353 8.87522 24.5708 8.36481 25.2487 8.37793C25.9063 8.39106 26.3198 8.88981 26.3198 9.68897C26.3227 12.6727 26.3227 15.6565 26.3198 18.6402C26.3198 19.4656 25.8814 19.9775 25.2049 19.9629C24.5474 19.9483 24.1368 19.4511 24.1339 18.6504C24.1309 17.1411 24.1339 15.6302 24.1339 14.1208V14.1223Z" fill="white"/>
<path d="M30.6961 12.0237C30.6961 12.7864 30.7005 13.5506 30.6961 14.3133C30.6903 15.0964 30.2519 15.5966 29.59 15.5879C28.9471 15.5791 28.5146 15.0906 28.5117 14.341C28.5058 12.7602 28.5044 11.1779 28.5117 9.59705C28.5146 8.86059 28.9719 8.36913 29.6163 8.37642C30.2592 8.38371 30.6888 8.87371 30.6961 9.6233C30.7034 10.4225 30.6976 11.2231 30.6976 12.0223L30.6961 12.0237Z" fill="white"/>
<path d="M30.6916 18.9013C30.6756 19.505 30.1481 19.995 29.549 19.9644C28.9675 19.9352 28.4984 19.4292 28.513 18.8488C28.5276 18.245 29.0537 17.7565 29.6557 17.7871C30.2372 17.8163 30.7063 18.3223 30.6916 18.9013Z" fill="white"/>
</svg>
