<svg width="64" height="64" viewBox="0 0 64 64" fill="none" xmlns="http://www.w3.org/2000/svg">
<g clip-path="url(#clip0_8_218)">
<path d="M64 19.4622C63.6289 20.0508 63.0859 20.1979 62.4141 20.1927C59.3581 20.1693 56.3021 20.1823 53.2461 20.1823C53.0221 20.1823 52.7995 20.1823 52.5026 20.1823C52.5026 20.5065 52.5026 20.7695 52.5026 21.0339C52.5026 31.2409 52.5104 41.4492 52.4987 51.6563C52.4935 55.4583 50.8099 58.263 47.388 59.9714C45.9154 60.7057 44.3216 60.7734 42.7096 60.7721C31.4414 60.7604 20.1732 60.8164 8.90625 60.7448C3.63281 60.7109 0.221354 56.526 0.136719 52.1641C0.104167 50.5221 0.122396 48.8789 0.128906 47.237C0.132813 46.2839 0.506511 45.9102 1.44922 45.9089C3.77734 45.9049 6.10547 45.9076 8.4349 45.9076C8.66146 45.9076 8.88802 45.9076 9.21224 45.9076C9.21224 45.6068 9.21094 45.3451 9.21224 45.0833C9.29687 33.3164 9.38151 21.5508 9.46875 9.78385C9.49479 6.32943 11.6836 3.73698 15.0495 3.18229C15.457 3.11458 15.8776 3.11458 16.2917 3.11458C29.8255 3.11068 43.3594 3.11068 56.8932 3.11328C60.5716 3.11328 63.1497 5.22135 63.9076 8.83073C63.9193 8.88672 63.9687 8.93359 64.0013 8.98437V19.4635L64 19.4622ZM11.2578 45.9063H12.0951C19.9115 45.9063 27.7266 45.9063 35.543 45.9063C36.7839 45.9063 37.0859 46.2109 37.0977 47.4427C37.1133 49.1875 37.0404 50.9414 37.1745 52.6771C37.5221 57.1914 42.5365 60.0599 46.5885 58.0508C49.1914 56.7604 50.4219 54.5586 50.4206 51.6445C50.4128 37.8841 50.4206 24.1224 50.4102 10.362C50.4102 8.90885 50.7279 7.5638 51.5117 6.33854C51.7448 5.97526 52.0143 5.63411 52.3477 5.16927H51.5234C45.2044 5.16927 38.8854 5.16927 32.5664 5.16927C27.1823 5.16927 21.7982 5.17578 16.4154 5.16536C14.8099 5.16146 13.4388 5.62891 12.4219 6.9362C11.6927 7.8737 11.5221 8.96094 11.5143 10.1042C11.431 21.8073 11.3451 33.5091 11.2591 45.2122C11.2578 45.4154 11.2591 45.6198 11.2591 45.9063H11.2578ZM35.0456 48.0195H2.3125C2.3125 49.78 2.10026 51.53 2.35677 53.2083C2.87109 56.5625 5.65755 58.6992 9.19661 58.7018C18.5951 58.7109 27.9935 58.7044 37.3906 58.7044C37.5872 58.7044 37.7826 58.7044 38.0221 58.7044C37.4505 57.9948 36.8945 57.401 36.4505 56.7331C35.4701 55.2591 35.0247 53.6133 35.0417 51.8398C35.0534 50.5768 35.0443 49.3138 35.0443 48.0182L35.0456 48.0195ZM52.5026 18.0964C54.138 18.0964 55.6745 18.0964 57.2109 18.0964C58.7474 18.0964 60.3164 18.0964 61.8633 18.0964C61.8633 15.0521 61.9635 12.0794 61.8281 9.11719C61.7383 7.15364 59.7734 5.41016 57.8464 5.23698C54.849 4.96875 52.5534 7.02865 52.5078 10.0508C52.4844 11.5677 52.5039 13.0859 52.5026 14.6042C52.5026 15.7435 52.5026 16.8828 52.5026 18.0964Z" fill="white"/>
<path d="M39.4883 19.0273C39.4245 20.5612 39.4922 22.1133 39.2656 23.6224C38.9518 25.7135 37.8477 27.4167 36.0977 28.6458C34.4492 29.8034 32.7721 30.918 31.1198 32.069C30.5651 32.4557 30.069 32.4453 29.5195 32.0638C27.8659 30.9154 26.1732 29.8216 24.5404 28.6419C22.3828 27.0833 21.263 24.9284 21.2122 22.2682C21.168 19.9427 21.2161 17.6146 21.194 15.2891C21.1875 14.638 21.4596 14.2513 22.0273 13.9753C24.5456 12.7513 27.0573 11.513 29.5664 10.2695C30.0729 10.0182 30.5443 10.0208 31.0508 10.2721C33.5781 11.526 36.1081 12.7721 38.6432 14.0091C39.1914 14.276 39.4453 14.6654 39.4336 15.2865C39.4076 16.5326 39.4258 17.7786 39.4258 19.026C39.4466 19.026 39.4661 19.0273 39.487 19.0286L39.4883 19.0273ZM23.276 19.4362C23.276 20.3711 23.2552 21.306 23.2799 22.2409C23.3333 24.2643 24.1784 25.8789 25.8464 27.0417C27.1927 27.9792 28.556 28.8906 29.8958 29.8359C30.1992 30.0495 30.405 30.0534 30.7109 29.8385C32.0521 28.8945 33.4154 27.9818 34.7643 27.0495C36.4154 25.9089 37.2995 24.3203 37.349 22.3242C37.3997 20.2682 37.3737 18.2109 37.3438 16.1549C37.3398 15.9323 37.1354 15.612 36.9349 15.5104C34.8659 14.4557 32.7813 13.4271 30.6888 12.418C30.4857 12.3203 30.1576 12.3125 29.957 12.4102C27.8633 13.4167 25.7891 14.4622 23.6966 15.474C23.3581 15.638 23.2617 15.8464 23.2669 16.1966C23.2839 17.276 23.2734 18.3568 23.2734 19.4375L23.276 19.4362Z" fill="white"/>
<path d="M30.8008 39.9427C34.75 39.9427 38.6979 39.9427 42.6471 39.9427C43.6927 39.9427 44.1849 40.2721 44.194 40.9727C44.2031 41.6849 43.7109 42.0312 42.6784 42.0312C34.7396 42.0312 26.8008 42.0312 18.8607 42.0312C18.8398 42.0312 18.819 42.0312 18.7982 42.0312C17.8346 42.0273 17.3281 41.6589 17.3385 40.9727C17.349 40.2956 17.8542 39.9427 18.8294 39.9427C22.8203 39.9427 26.8099 39.9427 30.8008 39.9427Z" fill="white"/>
<path d="M30.7956 37.2409C26.8269 37.2409 22.8568 37.2409 18.8881 37.2409C17.8399 37.2409 17.3464 36.9115 17.3386 36.2161C17.3308 35.513 17.8243 35.1758 18.8659 35.1758C26.8047 35.1758 34.7435 35.1758 42.681 35.1758C42.8881 35.1758 43.099 35.1654 43.3034 35.1953C43.8503 35.276 44.2136 35.6927 44.1889 36.224C44.1641 36.7721 43.8738 37.1133 43.323 37.1966C43.0782 37.2331 42.8269 37.2383 42.5782 37.2383C38.6511 37.2409 34.7227 37.2396 30.7956 37.2396V37.2409Z" fill="white"/>
<path d="M29.4584 21.7279C29.8307 21.332 30.2604 20.8581 30.707 20.401C31.3164 19.7773 31.9284 19.1576 32.556 18.5534C33.1081 18.0208 33.7149 17.9935 34.1511 18.4492C34.5664 18.8841 34.543 19.4779 34.0313 19.9974C32.7526 21.2995 31.4623 22.5925 30.1615 23.8724C29.5625 24.4609 29.0365 24.4479 28.4284 23.8555C27.819 23.2617 27.2201 22.6576 26.6328 22.043C26.1003 21.487 26.0599 20.8867 26.4974 20.4466C26.9323 20.0091 27.5443 20.0547 28.0951 20.5781C28.4857 20.9492 28.8659 21.3307 29.2526 21.7057C29.2643 21.7161 29.2917 21.7109 29.4597 21.7279H29.4584Z" fill="white"/>
</g>
<defs>
<clipPath id="clip0_8_218">
<rect width="64" height="64" fill="white"/>
</clipPath>
</defs>
</svg>
