<svg width="56" height="56" viewBox="0 0 56 56" fill="none" xmlns="http://www.w3.org/2000/svg">
<path d="M17.5013 25.6667H10.7346C9.42785 25.6667 8.77445 25.6667 8.27532 25.921C7.83628 26.1447 7.47933 26.5016 7.25562 26.9407C7.0013 27.4398 7.0013 28.0932 7.0013 29.4V49M38.5013 25.6667H45.268C46.5748 25.6667 47.2282 25.6667 47.7273 25.921C48.1663 26.1447 48.5233 26.5016 48.747 26.9407C49.0013 27.4398 49.0013 28.0932 49.0013 29.4V49M38.5013 49V14.4667C38.5013 11.8531 38.5013 10.5463 37.9927 9.54804C37.5453 8.66995 36.8314 7.95605 35.9533 7.50864C34.955 7 33.6482 7 31.0346 7H24.968C22.3544 7 21.0476 7 20.0493 7.50864C19.1713 7.95605 18.4573 8.66995 18.0099 9.54804C17.5013 10.5463 17.5013 11.8531 17.5013 14.4667V49M51.3346 49H4.66797M25.668 16.3333H30.3346M25.668 25.6667H30.3346M25.668 35H30.3346" stroke="white" stroke-width="3" stroke-linecap="round" stroke-linejoin="round"/>
</svg>
