<svg width="64" height="64" viewBox="0 0 64 64" fill="none" xmlns="http://www.w3.org/2000/svg">
<path d="M32.4636 31.1072C32.3573 31.1072 32.2577 31.1072 32.1581 31.1072C29.9621 31.1072 27.7661 31.1109 25.5708 31.105C24.6611 31.1027 24.1422 30.4167 24.3811 29.5582C24.5076 29.1038 24.8692 28.8019 25.3469 28.7597C25.4772 28.7478 25.6082 28.7486 25.7393 28.7486C27.8791 28.7486 30.019 28.7486 32.1588 28.7486H32.5003C32.4516 28.6183 32.4284 28.5206 32.3812 28.4355C31.6909 27.1878 30.6801 26.4092 29.1961 26.3811C27.9914 26.3581 26.7852 26.3789 25.5798 26.3744C24.6641 26.3715 24.131 25.6684 24.3856 24.8047C24.5091 24.3859 24.7951 24.1276 25.2264 24.0439C25.3896 24.0121 25.5603 24.0047 25.7273 24.0047C29.9785 24.0025 34.2306 24.0032 38.4818 24.0032C38.5754 24.0032 38.669 24.001 38.7619 24.0092C39.4926 24.0706 39.9014 24.5376 39.8715 25.2725C39.8438 25.9356 39.3848 26.3715 38.6832 26.3744C37.2068 26.3803 35.7303 26.3766 34.2538 26.3766C34.1534 26.3766 34.0539 26.3766 33.9139 26.3766C34.0471 26.6061 34.1804 26.794 34.2717 27.0005C34.4926 27.4979 34.709 27.9989 34.8947 28.5095C34.9598 28.6871 35.0205 28.756 35.2174 28.7545C36.3667 28.7449 37.516 28.7434 38.6653 28.7523C39.5308 28.7589 40.0392 29.4139 39.8453 30.2465C39.7217 30.7771 39.3017 31.1013 38.693 31.1057C37.5714 31.1138 36.4505 31.1183 35.3289 31.102C35.0549 31.0983 34.9523 31.1768 34.8857 31.4439C34.3391 33.6478 32.0098 35.8932 29.1003 35.8547C28.8959 35.8518 28.6907 35.8547 28.4137 35.8547C28.5223 35.9687 28.5859 36.039 28.654 36.1056C30.2593 37.6953 31.8661 39.2835 33.4699 40.8754C33.9738 41.3757 34.0351 41.9677 33.6503 42.4717C33.2018 43.0586 32.4231 43.1304 31.8885 42.619C31.3847 42.1372 30.8957 41.6399 30.4001 41.1492C28.517 39.285 26.6347 37.42 24.7502 35.558C24.3826 35.1946 24.2148 34.7913 24.4095 34.2799C24.6207 33.7263 24.9441 33.4858 25.5476 33.4836C26.753 33.4784 27.9585 33.4954 29.1639 33.4784C30.6472 33.4569 31.6647 32.6902 32.3655 31.4476C32.4059 31.3758 32.4321 31.2959 32.4606 31.2175C32.4688 31.1938 32.4621 31.1649 32.4621 31.1087L32.4636 31.1072Z" fill="white"/>
<path d="M49.1667 32.4375C49.1667 42.0794 41.3503 49.8958 31.7083 49.8958C22.0664 49.8958 14.25 42.0794 14.25 32.4375C14.25 22.7955 22.0664 14.9791 31.7083 14.9791C41.3503 14.9791 49.1667 22.7955 49.1667 32.4375Z" stroke="white" stroke-width="3"/>
<path d="M14.4763 53.7931C14.4763 55.122 14.4858 56.3171 14.4715 57.5121C14.4636 58.1467 14.0791 58.6442 13.5284 58.7985C12.9761 58.9529 12.3717 58.7608 12.0742 58.2726C11.9381 58.0491 11.8447 57.7609 11.8431 57.5011C11.8257 55.2763 11.8305 53.0515 11.8336 50.8266C11.8336 50.233 12.1121 49.8095 12.6628 49.5859C13.2451 49.3481 13.7389 49.5213 14.1724 49.9449C16.1774 51.9005 18.4228 53.5191 20.9578 54.7268C35.9432 61.8626 53.3228 53.2089 56.774 37.3123C58.0257 31.5447 57.2757 26.0102 54.6584 20.7245C54.6141 20.6363 54.5682 20.5497 54.527 20.4599C54.1504 19.6522 54.3751 18.887 55.0856 18.5437C55.774 18.2115 56.5383 18.476 56.8927 19.2648C57.513 20.6441 58.1808 22.0156 58.6381 23.4516C63.004 37.1438 56.5905 51.7194 43.3948 57.4492C33.4667 61.7603 23.9501 60.5479 15.1156 54.2591C14.9415 54.1347 14.7674 54.0072 14.4763 53.7962V53.7931Z" fill="white"/>
<path d="M49.5314 10.2194C49.5314 8.87158 49.5172 7.65603 49.5377 6.44206C49.5488 5.80594 50.0077 5.29893 50.5948 5.19187C51.185 5.08322 51.7848 5.35562 52.0221 5.89884C52.1281 6.14132 52.1677 6.43103 52.1693 6.69871C52.1804 8.80545 52.1693 10.9122 52.1804 13.0189C52.1835 13.6724 51.9731 14.1841 51.3417 14.4376C50.7372 14.6785 50.234 14.4754 49.7862 14.0377C47.1736 11.4775 44.1465 9.56595 40.7095 8.29844C26.3697 3.00167 10.3842 11.7861 7.22572 26.6986C6.00252 32.4709 6.72568 38.0007 9.34298 43.2864C9.40469 43.4092 9.46641 43.5336 9.52021 43.6596C9.84144 44.4091 9.60091 45.1397 8.92523 45.4687C8.2527 45.7963 7.51055 45.5412 7.13236 44.8137C6.07372 42.781 5.28569 40.6459 4.75558 38.4164C1.83603 26.1302 7.55644 13.2173 18.8184 7.44819C29.2449 2.10418 39.3644 3.03789 48.938 9.78954C49.0978 9.90133 49.2545 10.0178 49.5314 10.2194Z" fill="white"/>
</svg>
