<svg width="64" height="64" viewBox="0 0 64 64" fill="none" xmlns="http://www.w3.org/2000/svg">
<path d="M0 8.37331C0.444444 7.67997 1.12 7.75108 1.81333 7.75108C21.9378 7.75108 42.0622 7.75108 62.2044 7.75108C62.4178 7.75108 62.6133 7.75108 62.8267 7.75108C63.4667 7.78664 63.8578 8.17775 63.8756 8.83553C63.8756 9.04886 63.8756 9.24442 63.8756 9.45775C63.8756 19.5022 63.8756 29.5466 63.8756 39.5911C63.8756 47.9466 57.92 54.8978 49.6889 56.1066C40.5689 57.44 31.9467 50.7022 31.0578 41.5466C31.04 41.2978 31.0044 41.0489 30.9511 40.7644H30.1867C20.5867 40.7644 10.9689 40.7644 1.36889 40.7644C0.728889 40.7644 0.284444 40.5866 0 40L0 8.37331ZM30.8978 38.7378C31.8222 31.4311 35.4844 26.1866 42.5244 24.0711C50.72 21.6178 57.12 24.64 61.8133 31.5911V9.79553H2.04444V38.7378H30.8978ZM32.9422 39.7511C32.9422 47.7511 39.4311 54.2578 47.4133 54.2578C55.3778 54.2578 61.8489 47.7689 61.8844 39.8044C61.9022 31.8044 55.4133 25.28 47.4311 25.2622C39.4489 25.2622 32.9422 31.7511 32.9422 39.7511Z" fill="white"/>
<path d="M31.9112 14.9334C23.52 14.9334 15.1111 14.9334 6.72004 14.9334C5.65337 14.9334 5.17337 14.6134 5.19115 13.92C5.19115 13.2445 5.67115 12.9423 6.70226 12.9423C23.5378 12.9423 40.3734 12.9423 57.2089 12.9423C58.24 12.9423 58.7023 13.2623 58.7023 13.9378C58.7023 14.6134 58.24 14.9334 57.2089 14.9334C48.7645 14.9334 40.3378 14.9334 31.8934 14.9334H31.9112Z" fill="white"/>
<path d="M21.6711 18.1156C26.72 18.1156 31.7689 18.1156 36.8178 18.1156C37.5822 18.1156 37.9911 18.4 38.0622 18.9689C38.1334 19.52 37.8311 19.9645 37.28 20.0712C37.0667 20.1245 36.8178 20.1067 36.6045 20.1067C26.6134 20.1067 16.6045 20.1067 6.61336 20.1067C6.36447 20.1067 6.11558 20.1067 5.86669 20.0356C5.36891 19.8934 5.12002 19.5023 5.17336 18.9867C5.22669 18.4712 5.54669 18.1689 6.06224 18.1156C6.24002 18.1156 6.43558 18.1156 6.63113 18.1156C11.6445 18.1156 16.64 18.1156 21.6534 18.1156H21.6711Z" fill="white"/>
<path d="M16.4089 25.2623C13.0844 25.2623 9.75996 25.2623 6.43552 25.2623C5.91996 25.2623 5.47552 25.1556 5.26219 24.6401C5.0133 24.0356 5.38663 23.3956 6.04441 23.2889C6.23996 23.2534 6.4533 23.2712 6.66663 23.2712C13.2089 23.2712 19.7689 23.2712 26.3111 23.2712C26.4 23.2712 26.4711 23.2712 26.56 23.2712C27.3244 23.2712 27.8044 23.6801 27.7866 24.3023C27.7866 24.9067 27.3244 25.2623 26.5777 25.2801C23.1822 25.2801 19.8044 25.2801 16.4089 25.2801V25.2623Z" fill="white"/>
<path d="M11.36 33.6178C12.9956 33.6178 14.6489 33.6178 16.2845 33.6178C17.0311 33.6178 17.4756 33.9911 17.4756 34.5956C17.4756 35.2 17.0489 35.6089 16.32 35.6267C12.9956 35.6267 9.67112 35.6267 6.34667 35.6267C5.61778 35.6267 5.17334 35.2 5.17334 34.6134C5.17334 34.0089 5.61778 33.6356 6.36445 33.6356C8.01778 33.6356 9.6889 33.6356 11.3422 33.6356L11.36 33.6178Z" fill="white"/>
<path d="M48.8177 39.7689C50.1688 41.12 51.4666 42.4178 52.7466 43.7156C52.9066 43.8756 53.0844 44.0356 53.2266 44.2133C53.6533 44.6933 53.6533 45.2622 53.2266 45.6711C52.8177 46.0622 52.231 46.0622 51.7866 45.6178C50.471 44.32 49.1732 43.0045 47.8577 41.6889C47.7332 41.5645 47.6266 41.4045 47.4666 41.1911C47.2355 41.4045 47.0755 41.5467 46.9155 41.7067C45.6177 43.0044 44.3377 44.3022 43.0399 45.5822C42.5599 46.0622 41.9555 46.08 41.5466 45.6711C41.1377 45.2622 41.1732 44.6756 41.6177 44.1778C41.7066 44.0889 41.7955 44 41.8844 43.9111C43.0932 42.7022 44.3021 41.4933 45.4932 40.2845C45.6355 40.1422 45.7777 39.9822 45.9733 39.7689C45.1733 38.9867 44.391 38.2222 43.6088 37.44C42.951 36.8 42.311 36.1422 41.671 35.5022C41.1555 34.9689 41.1021 34.4 41.511 33.9556C41.9377 33.5111 42.5421 33.5467 43.0932 34.0978C44.4977 35.5022 45.9021 36.9245 47.3599 38.3822C47.5555 38.2045 47.7155 38.0445 47.8755 37.8845C49.1377 36.6222 50.3999 35.3422 51.6621 34.08C52.2132 33.5467 52.8177 33.4933 53.2444 33.9556C53.6533 34.3822 53.5999 34.9689 53.0844 35.5022C51.6799 36.9245 50.2577 38.3289 48.7821 39.8045L48.8177 39.7689Z" fill="white"/>
</svg>
