<svg width="64" height="64" viewBox="0 0 64 64" fill="none" xmlns="http://www.w3.org/2000/svg">
<g clip-path="url(#clip0_8_29)">
<path d="M0 15.3424C0.0710953 15.0864 0.15641 14.8305 0.227505 14.5746C0.895801 12.3564 2.88647 10.8349 5.24683 10.7638C7.47923 10.6928 9.62631 12.1858 10.3373 14.3613C10.5079 14.9016 10.7354 15.0296 11.2899 15.0296C27.8694 15.0153 44.4346 15.0296 61.014 15.0296C61.2984 15.0296 61.597 15.0296 61.8814 15.0438C63.0615 15.1575 63.872 15.9965 63.8863 17.1909C63.9005 18.8972 63.8863 20.6034 63.8863 22.3097C63.8863 30.4004 63.8863 38.491 63.8863 46.5817C63.8863 48.3022 63.09 49.1127 61.3837 49.1127C60.8292 49.1127 60.2746 49.1127 59.6348 49.1127C59.6348 49.8094 59.6348 50.4493 59.6348 51.0891C59.6205 52.4684 58.7532 53.3499 57.3739 53.3784C57.2459 53.3784 57.118 53.3784 57.0042 53.3784C41.3064 53.3784 25.6085 53.3784 9.89647 53.3499C8.61675 53.3499 7.29438 53.2078 6.08576 52.8381C2.55943 51.7716 0.696734 49.2264 0.127972 45.6432C0.0995335 45.4441 0.0426572 45.2451 0 45.046C0 35.1495 0 25.2389 0 15.3424ZM61.725 42.6856V17.2051H18.1435V42.6856H61.7392H61.725ZM8.503 39.4864C8.503 36.9411 8.503 34.5097 8.503 32.0782C8.503 26.8172 8.503 21.5561 8.503 16.2951C8.503 14.8305 7.89158 13.7641 6.55499 13.1669C4.42213 12.2284 2.11864 13.8209 2.11864 16.224C2.11864 23.8312 2.11864 31.4384 2.11864 39.0456C2.11864 39.1593 2.11864 39.2731 2.14708 39.4721C4.26572 38.1355 6.3417 38.1213 8.503 39.4721V39.4864ZM57.4735 49.1127H56.5919C44.8043 49.1127 33.0167 49.1127 21.2148 49.1127C18.4848 49.1127 15.7689 49.07 13.0389 49.1127C8.84426 49.198 8.34659 48.9278 8.503 44.591C8.503 44.2782 8.503 43.9654 8.503 43.6525C8.44612 42.0031 7.20907 40.7376 5.54543 40.5812C4.03821 40.439 2.53099 41.5055 2.24661 43.0411C2.10442 43.7805 2.14708 44.5768 2.24661 45.3304C2.58787 47.8898 3.85337 49.8521 6.38436 50.6768C7.49345 51.0465 8.70207 51.2029 9.86803 51.2171C25.509 51.2455 41.1358 51.2455 56.7767 51.2455H57.4592V49.1127H57.4735ZM15.9254 42.6714V17.2051H10.6785V42.6714H15.9254ZM10.6785 46.9229H61.725V44.8754H10.6785V46.9229Z" fill="white"/>
<path d="M39.8987 24.6132C34.2395 24.6132 28.5803 24.6132 22.9353 24.6132C22.7078 24.6132 22.4803 24.6132 22.2528 24.599C21.7125 24.5279 21.3854 24.2151 21.3286 23.6747C21.2717 23.1344 21.5134 22.7363 22.0395 22.5799C22.2955 22.5088 22.5656 22.4946 22.8358 22.4946C34.2253 22.4946 45.6289 22.4946 57.0184 22.4946C57.2886 22.4946 57.573 22.4946 57.8147 22.5799C58.3408 22.7363 58.5825 23.1344 58.5399 23.6747C58.483 24.2293 58.1702 24.5421 57.6156 24.6132C57.3881 24.6416 57.1606 24.6274 56.9331 24.6274C51.2597 24.6274 45.5863 24.6274 39.8987 24.6274V24.6132Z" fill="white"/>
<path d="M51.0606 37.4103C49.397 37.4103 47.7333 37.4103 46.0697 37.4103C44.4772 37.4103 43.6525 36.5714 43.6525 34.9789C43.6525 33.6849 43.6525 32.4052 43.6525 31.1113C43.6525 29.7889 44.4772 28.8931 45.8138 28.8789C49.3401 28.8505 52.8806 28.8505 56.407 28.8789C57.7009 28.8789 58.5256 29.7747 58.5398 31.0686C58.554 32.4195 58.554 33.7703 58.5398 35.1211C58.5398 36.543 57.6725 37.3819 56.2221 37.3961C54.5016 37.3961 52.7811 37.3961 51.0464 37.3961L51.0606 37.4103ZM45.8138 35.2348H56.3785V31.0402H45.8138V35.2348Z" fill="white"/>
<path d="M30.8838 30.9975C28.1964 30.9975 25.5232 30.9975 22.8358 30.9975C22.5941 30.9975 22.3239 30.9975 22.0964 30.9549C21.6272 30.8411 21.3428 30.5283 21.3144 30.0307C21.2717 29.5188 21.4992 29.1349 21.9969 28.9642C22.2671 28.8789 22.5657 28.8789 22.8643 28.8789C28.2106 28.8789 33.5428 28.8789 38.8891 28.8789C38.9745 28.8789 39.0598 28.8789 39.1451 28.8789C39.9982 28.8931 40.4675 29.277 40.4532 29.9596C40.4532 30.6421 39.9982 31.0118 39.1309 31.0118C36.3866 31.0118 33.6423 31.0118 30.898 31.0118L30.8838 30.9975Z" fill="white"/>
<path d="M30.9265 35.2775C33.5855 35.2775 36.2444 35.2775 38.9034 35.2775C39.1309 35.2775 39.3584 35.2775 39.5859 35.3059C40.0978 35.4055 40.3822 35.7183 40.4248 36.2444C40.4675 36.7563 40.24 37.1402 39.7423 37.3108C39.5148 37.3961 39.2589 37.4104 39.0029 37.4104C33.5855 37.4104 28.1538 37.4104 22.7363 37.4104C22.523 37.4104 22.3097 37.4104 22.1249 37.3677C21.5704 37.2255 21.286 36.8558 21.3002 36.2728C21.3144 35.7467 21.6841 35.3628 22.2529 35.3059C22.4519 35.2775 22.6652 35.2917 22.8785 35.2917C25.5659 35.2917 28.2391 35.2917 30.9265 35.2917V35.2775Z" fill="white"/>
</g>
<defs>
<clipPath id="clip0_8_29">
<rect width="64" height="64" fill="white"/>
</clipPath>
</defs>
</svg>
