<svg width="56" height="56" viewBox="0 0 56 56" fill="none" xmlns="http://www.w3.org/2000/svg">
<path d="M31.5701 19.488C30.2345 20.4402 28.6 21.0003 26.8346 21.0003C22.3243 21.0003 18.668 17.344 18.668 12.8337C18.668 8.32333 22.3243 4.66699 26.8346 4.66699C29.7583 4.66699 32.3231 6.2033 33.7658 8.51266M14.0013 46.8703H20.092C20.8861 46.8703 21.6754 46.9648 22.4452 47.1538L28.8807 48.7177C30.2771 49.0579 31.7318 49.091 33.1427 48.8169L40.2582 47.4326C42.1379 47.0664 43.867 46.1664 45.2221 44.8482L50.2564 39.951C51.6941 38.5548 51.6941 36.2893 50.2564 34.8908C48.962 33.6317 46.9123 33.4899 45.448 34.5577L39.5807 38.8383C38.7404 39.4525 37.718 39.7833 36.6665 39.7833H31.0008L34.6071 39.7831C36.6398 39.7831 38.2863 38.1814 38.2863 36.2041V35.4883C38.2863 33.8465 37.1376 32.4149 35.5008 32.018L29.9347 30.6644C29.0289 30.4447 28.1012 30.3337 27.1686 30.3337C24.9174 30.3337 20.8424 32.1976 20.8424 32.1976L14.0013 35.0584M46.668 15.167C46.668 19.6773 43.0116 23.3337 38.5013 23.3337C33.991 23.3337 30.3346 19.6773 30.3346 15.167C30.3346 10.6567 33.991 7.00033 38.5013 7.00033C43.0116 7.00033 46.668 10.6567 46.668 15.167ZM4.66797 34.067L4.66797 47.6003C4.66797 48.9071 4.66797 49.5605 4.92229 50.0596C5.14599 50.4987 5.50295 50.8556 5.94199 51.0793C6.44112 51.3337 7.09451 51.3337 8.4013 51.3337H10.268C11.5748 51.3337 12.2282 51.3337 12.7273 51.0793C13.1663 50.8556 13.5233 50.4987 13.747 50.0596C14.0013 49.5605 14.0013 48.9071 14.0013 47.6003V34.067C14.0013 32.7602 14.0013 32.1068 13.747 31.6077C13.5233 31.1686 13.1663 30.8117 12.7273 30.588C12.2282 30.3337 11.5748 30.3337 10.268 30.3337L8.4013 30.3337C7.09451 30.3337 6.44112 30.3337 5.94199 30.588C5.50295 30.8117 5.14599 31.1686 4.92229 31.6077C4.66797 32.1068 4.66797 32.7602 4.66797 34.067Z" stroke="white" stroke-width="3" stroke-linecap="round" stroke-linejoin="round"/>
</svg>
