<svg width="64" height="64" viewBox="0 0 64 64" fill="none" xmlns="http://www.w3.org/2000/svg">
<path d="M64 33.0613C62.9889 35.1756 61.2624 36.7492 59.81 38.5258C57.375 41.5067 54.853 44.4177 52.4028 47.387C50.1315 50.1417 47.1901 51.4608 43.6653 51.4841C38.2653 51.5207 32.8653 51.539 27.467 51.4692C25.6069 51.4442 24.4604 52.4839 23.3289 53.6732C23.2436 53.7631 23.247 53.981 23.2754 54.1257C23.5579 55.5896 23.1684 56.8238 22.0921 57.8685C20.1952 59.7099 18.32 61.5747 16.4298 63.4228C16.2108 63.6374 15.9484 63.8087 15.7061 64H14.9557C14.583 63.674 14.1885 63.3696 13.8392 63.0202C9.45709 58.627 5.08329 54.2288 0.706152 49.8323C-0.229776 48.8925 -0.23479 48.3369 0.687768 47.4136C2.49779 45.6021 4.31616 43.7989 6.11448 41.9774C6.99693 41.0842 8.02478 40.6101 9.29998 40.665C9.49218 40.6733 9.78299 40.5236 9.87658 40.3606C14.0331 33.0896 23.115 31.3047 29.6414 33.8065C29.9623 33.9296 30.3283 33.9795 30.6743 33.9812C34.9478 33.9928 39.2213 34.0078 43.4965 33.9795C45.238 33.9679 46.7405 34.4386 48.1143 36.0356C48.2212 35.7977 48.2614 35.5615 48.4001 35.4184C50.7165 33.0247 53.048 30.646 55.3694 28.2572C58.1605 25.3844 62.3755 26.2062 63.8897 29.9223C63.9114 29.9772 63.9599 30.0205 63.9967 30.0687V33.063L64 33.0613ZM21.7228 51.702C21.8615 51.5756 22.0253 51.4475 22.164 51.2962C23.7133 49.6044 25.6253 48.944 27.9216 48.9773C33.111 49.0505 38.3021 49.0089 43.4915 48.9973C46.336 48.9906 48.7277 47.9942 50.531 45.7252C51.4118 44.619 52.346 43.5544 53.2552 42.4698C55.8357 39.3941 58.4229 36.3217 60.995 33.2376C61.951 32.0915 61.8557 30.5861 60.8061 29.6612C59.78 28.7579 58.2858 28.8527 57.268 29.8957C54.6357 32.5905 52.0051 35.287 49.3845 37.9951C49.229 38.1548 49.087 38.411 49.0853 38.6222C49.0719 41.8959 46.9845 43.9919 43.6853 44.0002C40.5583 44.0069 37.4313 44.0035 34.306 44.0002C34.0369 44.0002 33.7595 43.9886 33.5004 43.9237C32.9288 43.7806 32.5645 43.245 32.6013 42.6611C32.638 42.1005 33.0375 41.6348 33.599 41.54C33.8648 41.495 34.1389 41.4967 34.4096 41.4967C37.4948 41.4934 40.5801 41.4967 43.6636 41.4917C43.9745 41.4917 44.292 41.4817 44.5962 41.4235C45.8881 41.179 46.7689 39.8732 46.5299 38.584C46.2842 37.2565 45.3015 36.493 43.7706 36.4914C39.3099 36.483 34.8492 36.498 30.3885 36.4747C29.8837 36.4731 29.3556 36.3616 28.8776 36.1886C24.7779 34.7164 20.7751 34.921 16.9011 36.9072C14.6916 38.0384 13.0537 39.775 11.9089 41.9126C15.1896 45.1863 18.4286 48.42 21.7211 51.7037L21.7228 51.702ZM15.5005 60.8478C17.1367 59.2275 18.8916 57.5175 20.608 55.7692C21.0509 55.3184 20.9657 54.6098 20.4893 54.134C16.9545 50.6025 13.4147 47.076 9.86488 43.5594C9.30834 43.0071 8.66823 43.0238 8.08996 43.5661C7.58857 44.0351 7.11559 44.5359 6.62924 45.0199C5.43593 46.2043 4.23928 47.3854 2.98748 48.6246C7.17576 52.7168 11.3106 56.7556 15.4988 60.8478H15.5005Z" fill="white"/>
<path d="M50.3642 0C50.5513 0.0781827 50.7352 0.163019 50.924 0.234548C52.3697 0.770182 53.3658 2.07766 53.3708 3.60306C53.3892 10.024 53.3942 16.4466 53.3708 22.8676C53.3641 24.8405 51.7681 26.4257 49.7859 26.464C47.5982 26.5056 45.4104 26.479 43.221 26.479C35.406 26.479 27.591 26.4823 19.776 26.479C17.7989 26.479 16.3348 25.3911 15.9136 23.5995C15.82 23.202 15.815 22.7761 15.815 22.3636C15.8083 16.2953 15.81 10.227 15.8117 4.15865C15.8117 1.95124 16.6406 0.810106 18.7532 0.0848365C18.7883 0.0731923 18.8117 0.0299423 18.8401 0.00166346C29.3492 0.00166346 39.8567 0.00166346 50.3658 0.00166346L50.3642 0ZM18.317 12.5159C18.317 12.7637 18.317 12.9484 18.317 13.133C18.317 16.2304 18.3153 19.3261 18.317 22.4235C18.317 23.5829 18.7248 23.9838 19.908 23.9838C29.7035 23.9854 39.499 23.9854 49.2945 23.9838C50.4695 23.9838 50.8772 23.5762 50.8772 22.4135C50.8789 19.3161 50.8772 16.2204 50.8772 13.123C50.8772 12.9251 50.8538 12.7271 50.8421 12.5159H18.317ZM50.8488 7.53049H18.3621V9.95581H50.8472V7.53049H50.8488ZM50.8538 4.9621C50.8639 4.81239 50.8756 4.69262 50.8789 4.57285C50.9174 2.79628 50.6282 2.50018 48.8583 2.50018C39.2751 2.50018 29.6935 2.50018 20.1103 2.50018C19.8813 2.50018 19.649 2.48022 19.4234 2.51515C18.8534 2.60165 18.439 2.92104 18.3571 3.4966C18.2885 3.97567 18.3437 4.47138 18.3437 4.96377H50.8555L50.8538 4.9621Z" fill="white"/>
<path d="M44.633 21.4802C43.8208 21.4802 43.0102 21.4902 42.1979 21.4769C41.4141 21.4636 40.891 20.9845 40.8642 20.2875C40.8375 19.5822 41.3823 19.0067 42.1729 18.995C43.7957 18.9717 45.4202 18.9734 47.043 18.995C47.8503 19.005 48.3767 19.5423 48.3684 20.2642C48.3583 20.9945 47.8386 21.4686 47.0063 21.4802C46.2157 21.4919 45.4252 21.4819 44.633 21.4819V21.4802Z" fill="white"/>
</svg>
