<svg width="64" height="64" viewBox="0 0 64 64" fill="none" xmlns="http://www.w3.org/2000/svg">
<path d="M64.0001 17.5912C63.8178 18.4609 63.685 19.3438 63.4454 20.1979C61.6459 26.5964 55.8269 30.9675 49.1785 30.9375C48.9923 30.9375 48.8061 30.9375 48.5144 30.9375V31.6667C48.5144 39.1302 48.5222 46.5938 48.5105 54.0573C48.504 58.1328 45.836 61.4154 41.879 62.1797C41.0313 62.3438 40.1433 62.3398 39.2735 62.3398C29.0027 62.3503 18.7332 62.3503 8.46232 62.3451C3.72274 62.3425 0.13029 58.75 0.123779 54.0234C0.121175 52.651 0.121175 51.2787 0.123779 49.9076C0.126383 48.9766 0.459717 48.638 1.40633 48.6354C3.50659 48.6276 5.60555 48.6328 7.70581 48.6328C7.93237 48.6328 8.15894 48.6328 8.45972 48.6328C8.47404 48.3854 8.49617 48.168 8.49878 47.9505C8.58081 36.2669 8.66024 24.5833 8.73967 12.8997C8.74878 11.5104 9.02222 11.2383 10.4311 11.2383C18.56 11.2383 26.6889 11.2344 34.8178 11.2487C35.3035 11.2487 35.5235 11.1198 35.7188 10.6497C38.0535 5.01302 43.6915 1.35157 49.7175 1.52344C56.9506 1.72917 63.047 7.28907 63.8829 14.4388C63.8985 14.5768 63.9584 14.7109 63.9975 14.8477V17.5925L64.0001 17.5912ZM10.5769 48.6328C10.9298 48.6328 11.1759 48.6328 11.422 48.6328C17.8451 48.6328 24.2683 48.6328 30.6915 48.6328C31.3985 48.6328 32.1055 48.6328 32.8113 48.6328C34.0509 48.6341 34.2839 48.8737 34.2852 50.1406C34.2852 51.4089 34.2787 52.6771 34.2891 53.944C34.293 54.3581 34.2983 54.78 34.3725 55.1849C34.9545 58.3659 37.7397 60.5117 40.9207 60.2461C44.0326 59.987 46.4102 57.3828 46.418 54.1406C46.4376 46.4909 46.422 38.8412 46.4324 31.1914C46.4324 30.7904 46.3243 30.6341 45.9115 30.5313C42.3009 29.6315 39.4037 27.6693 37.2839 24.599C37.0691 24.2865 36.8464 24.1771 36.474 24.1784C33.1485 24.1927 29.8217 24.1888 26.4962 24.1823C26.2306 24.1823 25.8894 24.2096 25.7162 24.0664C25.4415 23.8372 25.1759 23.5 25.0925 23.1628C24.9845 22.7214 25.2735 22.3555 25.7084 22.2031C25.9545 22.1172 26.2371 22.1029 26.5027 22.1016C29.3712 22.0951 32.2397 22.0977 35.1082 22.0977C35.3269 22.0977 35.547 22.0977 35.8555 22.0977C34.6225 19.2318 34.3595 16.3398 34.8725 13.3581H10.8152C10.7358 25.1133 10.6576 36.8294 10.5769 48.6328ZM61.9194 16.2357C61.922 9.27084 56.2787 3.6224 49.3165 3.6224C42.3542 3.6224 36.6967 9.26302 36.6837 16.2175C36.6707 23.207 42.3399 28.875 49.3256 28.8594C56.3009 28.8425 61.918 23.2135 61.9207 16.237L61.9194 16.2357ZM32.198 50.7214H2.2019C2.2019 51.8138 2.1967 52.8685 2.2019 53.9232C2.22534 57.6849 4.80607 60.2591 8.56128 60.2604C17.1029 60.263 25.6446 60.2604 34.1863 60.2604C34.3855 60.2604 34.5847 60.2604 34.8425 60.2604C34.7709 60.1406 34.7501 60.0833 34.711 60.0456C32.961 58.3385 32.1667 56.2487 32.1954 53.8216C32.2071 52.8047 32.198 51.7878 32.198 50.7201V50.7214Z" fill="white"/>
<path d="M50.0122 15.2462C49.9337 15.2462 49.8602 15.2462 49.7866 15.2462C48.165 15.2462 46.5433 15.2489 44.9222 15.2446C44.2504 15.2429 43.8672 14.7363 44.0436 14.1023C44.137 13.7668 44.4041 13.5438 44.7568 13.5127C44.8531 13.5039 44.9498 13.5045 45.0466 13.5045C46.6268 13.5045 48.207 13.5045 49.7872 13.5045H50.0393C50.0034 13.4083 49.9862 13.3361 49.9514 13.2733C49.4416 12.3519 48.6952 11.7769 47.5993 11.7562C46.7097 11.7392 45.819 11.7545 44.9288 11.7512C44.2526 11.7491 43.8589 11.2299 44.0469 10.5921C44.1381 10.2828 44.3494 10.092 44.6678 10.0303C44.7884 10.0068 44.9144 10.0013 45.0377 10.0013C48.1771 9.99966 51.3171 10.0002 54.4565 10.0002C54.5256 10.0002 54.5947 9.99856 54.6633 10.0046C55.2029 10.0499 55.5048 10.3948 55.4827 10.9375C55.4622 11.4272 55.1233 11.7491 54.6052 11.7512C53.5149 11.7556 52.4245 11.7529 51.3342 11.7529C51.2601 11.7529 51.1866 11.7529 51.0832 11.7529C51.1816 11.9223 51.28 12.0611 51.3475 12.2136C51.5106 12.5808 51.6704 12.9508 51.8075 13.3279C51.8556 13.4591 51.9004 13.5099 52.0458 13.5088C52.8945 13.5017 53.7432 13.5006 54.5919 13.5072C55.2311 13.5121 55.6065 13.9958 55.4633 14.6106C55.3721 15.0024 55.0619 15.2418 54.6124 15.2451C53.7841 15.2511 52.9564 15.2544 52.1282 15.2424C51.9258 15.2396 51.8501 15.2976 51.8009 15.4949C51.3972 17.1224 49.6772 18.7805 47.5286 18.7521C47.3776 18.7499 47.2261 18.7521 47.0216 18.7521C47.1017 18.8362 47.1487 18.8882 47.199 18.9374C48.3845 20.1113 49.571 21.2841 50.7553 22.4596C51.1274 22.8291 51.1728 23.2663 50.8886 23.6385C50.5574 24.0719 49.9824 24.1249 49.5876 23.7472C49.2155 23.3914 48.8544 23.0242 48.4884 22.6618C47.0979 21.2852 45.7078 19.908 44.3162 18.5329C44.0447 18.2646 43.9209 17.9667 44.0646 17.5891C44.2205 17.1803 44.4594 17.0027 44.905 17.0011C45.7952 16.9972 46.6854 17.0098 47.5756 16.9972C48.6709 16.9814 49.4223 16.4152 49.9398 15.4976C49.9696 15.4446 49.989 15.3856 50.01 15.3276C50.0161 15.3101 50.0111 15.2888 50.0111 15.2473L50.0122 15.2462Z" fill="white"/>
<path d="M32.9975 40.2135C35.1394 40.2135 37.2801 40.2135 39.422 40.2148C39.6498 40.2148 39.8842 40.2109 40.103 40.2591C40.6108 40.3724 40.8998 40.7148 40.9103 41.2305C40.922 41.7799 40.6056 42.1224 40.0873 42.2591C39.9103 42.306 39.7162 42.2877 39.5287 42.2877C35.1629 42.2877 30.797 42.2877 26.4311 42.2877C26.2644 42.2877 26.0926 42.3047 25.9337 42.2682C25.4103 42.1497 25.0834 41.8333 25.073 41.276C25.0626 40.7226 25.3595 40.3776 25.8907 40.2552C26.0899 40.2096 26.3035 40.2161 26.5105 40.2161C28.672 40.2135 30.8347 40.2148 32.9962 40.2148L32.9975 40.2135Z" fill="white"/>
<path d="M32.9792 31.1732C35.2032 31.1732 37.4271 31.1706 39.6524 31.1732C40.4649 31.1745 40.931 31.5651 40.9167 32.2162C40.9024 32.8412 40.4558 33.2214 39.6719 33.2214C35.224 33.2279 30.7748 33.2279 26.3269 33.2214C25.5 33.2214 25.0573 32.8333 25.0703 32.1719C25.0834 31.5156 25.5222 31.1732 26.3698 31.1732C28.573 31.1706 30.7761 31.1732 32.9805 31.1732H32.9792Z" fill="white"/>
<path d="M22.746 23.1771C22.7616 24.9401 21.3072 26.388 19.4895 26.4193C17.6757 26.4505 16.1275 24.9675 16.1301 23.2031C16.1314 21.457 17.6275 20.0039 19.4335 19.9935C21.2408 19.9831 22.7317 21.4141 22.7473 23.1771H22.746ZM19.4583 24.332C20.1379 24.3268 20.6978 23.8099 20.69 23.194C20.6822 22.5755 20.1184 22.0742 19.4361 22.0781C18.7525 22.082 18.2083 22.5898 18.2135 23.2162C18.22 23.8412 18.7721 24.3372 19.457 24.332H19.4583Z" fill="white"/>
<path d="M22.746 32.1706C22.7616 33.9349 21.3085 35.3841 19.4921 35.414C17.6744 35.444 16.1314 33.97 16.1301 32.2018C16.1275 30.457 17.6197 29.0078 19.4309 28.9922C21.2421 28.9778 22.7304 30.4049 22.746 32.1693V32.1706ZM19.4752 33.3216C20.1588 33.3099 20.7096 32.789 20.69 32.1719C20.6705 31.5599 20.0872 31.0534 19.4192 31.069C18.7382 31.0833 18.1991 31.6028 18.2148 32.2292C18.2304 32.8542 18.7838 33.3346 19.4765 33.3229L19.4752 33.3216Z" fill="white"/>
<path d="M22.7461 41.1862C22.7513 42.9518 21.2852 44.3932 19.4727 44.4049C17.6432 44.418 16.1172 42.944 16.1302 41.1771C16.1432 39.4232 17.6328 37.9974 19.4505 37.9987C21.2826 38 22.7409 39.4101 22.7461 41.1849V41.1862ZM19.4375 42.3151C20.1263 42.3177 20.6849 41.8229 20.6901 41.2031C20.6953 40.5976 20.1211 40.0638 19.4557 40.0586C18.7826 40.0534 18.2201 40.5625 18.2135 41.1849C18.207 41.8125 18.7474 42.3125 19.4375 42.3151Z" fill="white"/>
</svg>
