<svg width="64" height="64" viewBox="0 0 64 64" fill="none" xmlns="http://www.w3.org/2000/svg">
<path d="M32.0311 1.18944e-05C49.7093 0.0150656 64.0067 14.3328 64 32.0142C63.9933 49.714 49.6338 64.0384 31.9372 63.9999C14.2322 63.9615 -0.0401424 49.6119 8.48283e-05 31.8904C0.038636 14.2609 14.3797 -0.0150418 32.0311 1.18944e-05ZM10.1591 51.7328C12.8007 49.0918 15.4138 46.4774 17.9683 43.9216C16.8151 43.9216 15.5194 43.9216 14.2255 43.9216C12.9449 43.9216 12.5493 43.5219 12.5493 42.2289C12.5493 35.413 12.5493 28.597 12.5493 21.781C12.5493 20.4613 12.9382 20.08 14.2791 20.08C23.3738 20.08 32.4685 20.0783 41.5649 20.0866C41.9705 20.0866 42.2605 19.9796 42.5522 19.6869C45.5273 16.6895 48.5192 13.7072 51.5044 10.7199C51.6335 10.5911 51.7508 10.4489 51.8715 10.3151C41.8884 0.690809 23.7426 -1.09222 11.4062 10.9424C-0.641875 22.6926 0.078863 41.0247 10.1591 51.7328ZM12.0297 53.7517C20.1791 60.668 29.3878 63.284 39.6491 60.4121C51.1943 57.1806 58.4185 49.4062 60.8807 37.6677C62.8988 28.045 60.1834 19.5113 53.8795 12.2019C51.1926 14.8898 48.5779 17.5058 46.0067 20.0783C47.1816 20.0783 48.4756 20.0783 49.7679 20.0783C51.0586 20.0783 51.4508 20.473 51.4508 21.766C51.4508 28.5635 51.4508 35.3594 51.4508 42.157C51.4508 43.562 51.0854 43.9216 49.654 43.9216C40.5978 43.9216 31.5416 43.925 22.4871 43.9116C22.0279 43.9116 21.7144 44.0454 21.3976 44.3699C19.6964 46.0994 17.9733 47.8072 16.2586 49.5233C14.8842 50.8982 13.5097 52.2714 12.0297 53.7534V53.7517ZM21.3775 22.6157C21.3826 26.0061 19.0376 28.8445 15.0937 28.9181V35.127C16.7279 35.1086 18.1661 35.5735 19.3729 36.6557C20.5897 37.7463 21.1915 39.148 21.3507 40.752C23.1542 38.9439 24.9209 37.1743 26.6942 35.3962C24.8136 32.1697 25.9618 29.1807 27.5491 27.5884C29.6174 25.5143 32.3143 25.2099 35.3247 26.6584C36.7041 25.2802 38.0534 23.9337 39.3709 22.6173H21.3775V22.6157ZM24.5974 41.3608H42.6611C42.6393 39.5795 43.1941 38.0674 44.4328 36.8397C45.6664 35.617 47.1967 35.1102 48.8963 35.1169V28.888C45.1887 28.6488 43.4874 27.115 42.6309 23.3399C40.8945 25.0795 39.1312 26.8474 37.3377 28.6438C38.7758 31.2933 38.7306 33.9728 36.5298 36.2811C34.205 38.7164 31.4293 38.8318 28.6235 37.3265C27.249 38.703 25.9132 40.0428 24.5991 41.3608H24.5974ZM28.5782 33.4192C30.1873 31.8084 31.8115 30.181 33.4222 28.5686C32.2892 27.8727 30.3465 28.2575 29.2671 29.4116C28.1994 30.554 27.9145 32.3019 28.5782 33.4192ZM30.546 35.4146C31.7863 36.1473 33.6988 35.7007 34.7347 34.5833C35.8074 33.4276 36.0856 31.6713 35.4051 30.559C33.7994 32.1647 32.1819 33.7805 30.546 35.4146ZM18.7711 22.6207H15.0585V26.3088C17.276 26.4978 19.0075 24.7583 18.7711 22.6207ZM48.9064 26.2971V22.6274H45.2122C45.0479 24.8269 46.7894 26.553 48.9064 26.2971ZM18.7762 41.3809C18.9924 39.1881 17.033 37.2729 15.0887 37.7396V41.3809H18.7762ZM48.9114 37.7095C46.7894 37.4185 44.8837 39.3386 45.2507 41.3659H48.9114V37.7095Z" fill="white"/>
</svg>
