<svg width="64" height="64" viewBox="0 0 64 64" fill="none" xmlns="http://www.w3.org/2000/svg">
<path d="M6.14657 14.9614C4.48859 14.4702 3.93858 13.2971 4.00534 11.6788C4.0578 10.3896 4.00852 9.09567 4.01806 7.80331C4.02919 6.07538 5.09265 5.00238 6.80309 5.00238C20.6932 4.99921 34.5818 4.99921 48.472 5.00238C50.1729 5.00238 51.2379 6.04041 51.2586 7.73177C51.2777 9.22284 51.2618 10.7123 51.2634 12.2034C51.2634 13.4751 50.7006 14.3828 49.4941 14.8152C49.0904 14.9598 49.146 15.2285 49.146 15.5162C49.146 19.2725 49.146 23.0288 49.1428 26.785C49.1428 27.0426 49.138 27.3049 49.0856 27.5544C48.9632 28.1474 48.4958 28.5225 47.9061 28.5384C47.2845 28.5559 46.7886 28.1903 46.6471 27.5767C46.5899 27.3287 46.5851 27.0648 46.5851 26.8089C46.5819 23.1321 46.5819 19.4553 46.5819 15.7785V15.0282H34.1669C34.1669 15.2857 34.1669 15.5178 34.1669 15.7499C34.1669 20.719 34.1685 25.6882 34.1653 30.6558C34.1653 31.5905 33.5565 32.22 32.7442 32.0674C32.4199 32.007 32.0877 31.786 31.8413 31.5523C30.5871 30.3633 29.3583 29.1456 28.1216 27.9391C27.9801 27.8008 27.8339 27.6689 27.6463 27.494C27.3379 27.7881 27.0375 28.0663 26.7434 28.3524C25.6751 29.392 24.6006 30.4253 23.5435 31.476C23.0777 31.9386 22.5944 32.2756 21.9093 31.9911C21.2226 31.7081 21.1177 31.1359 21.1193 30.4746C21.1288 25.5658 21.124 20.657 21.124 15.7467C21.124 15.5146 21.124 15.2809 21.124 15.0139H8.7329C8.72177 15.2428 8.7011 15.4526 8.7011 15.664C8.7011 25.0047 8.69951 34.3469 8.7011 43.6876C8.7011 44.8528 9.06195 45.2502 10.2303 45.363C10.526 45.3916 10.8248 45.3932 11.1237 45.3932C16.3901 45.3948 21.655 45.3932 26.9214 45.3948C27.1599 45.3948 27.3999 45.39 27.6352 45.4155C28.3203 45.4886 28.7765 45.9734 28.794 46.6284C28.8115 47.2722 28.3648 47.8095 27.7083 47.9207C27.5525 47.9478 27.3919 47.9414 27.233 47.9414C21.709 47.9414 16.1851 47.9573 10.6611 47.9239C9.94419 47.9191 9.18912 47.7681 8.51989 47.5074C6.95887 46.9034 6.14498 45.7223 6.14657 44.0134C6.15134 39.9583 6.14657 35.9047 6.14657 31.8496C6.14657 26.4639 6.14657 21.0767 6.14657 15.691V14.9566V14.9614ZM31.606 7.57599H23.7008V27.7738C24.7214 26.7771 25.6656 25.8472 26.6194 24.9268C27.314 24.256 27.9547 24.2528 28.6589 24.9141C29.166 25.3894 29.6556 25.8837 30.1547 26.3686C30.6157 26.8168 31.0767 27.2619 31.606 27.7754V7.57599ZM21.0748 12.4053V7.58712H6.62187V12.4053H21.0732H21.0748ZM34.1955 12.3767H48.6707V7.56804H34.1955V12.3767Z" fill="white"/>
<path d="M60 45.3662C59.9953 53.2635 53.5493 59.6808 45.6425 59.6585C37.7595 59.6363 31.382 53.2205 31.3994 45.3296C31.4169 37.4483 37.8549 31.0246 45.7093 31.05C53.5827 31.0754 60.0048 37.5087 60 45.3678V45.3662ZM57.436 45.3598C57.436 38.8408 52.222 33.622 45.6997 33.6141C39.1966 33.6061 33.9381 38.8424 33.927 45.3376C33.9158 51.8503 39.2029 57.1421 45.7077 57.1294C52.2093 57.1167 57.4344 51.8725 57.436 45.3598Z" fill="white"/>
<path d="M43.8795 45.3424C42.8463 44.3107 41.8369 43.3029 40.8274 42.2951C40.6589 42.1266 40.4857 41.9628 40.3235 41.788C39.7815 41.2014 39.7608 40.4845 40.2647 39.9774C40.7861 39.4528 41.5475 39.4449 42.123 40.006C43.1753 41.0313 44.2054 42.0805 45.2466 43.1169C45.3849 43.2552 45.528 43.3871 45.706 43.5572C46.8569 42.4047 47.9824 41.2586 49.1317 40.1379C49.3637 39.9122 49.6658 39.7024 49.971 39.6213C50.5242 39.4751 50.9852 39.7103 51.2904 40.1983C51.586 40.672 51.532 41.2856 51.1028 41.7355C50.2794 42.5971 49.4305 43.4332 48.5848 44.271C48.2335 44.6191 47.8584 44.945 47.4435 45.3265C48.5181 46.3979 49.5243 47.4009 50.5305 48.404C50.7133 48.5868 50.9009 48.7633 51.0742 48.9556C51.5908 49.5263 51.5988 50.2734 51.1028 50.7725C50.5925 51.286 49.8581 51.2971 49.2922 50.7519C48.4481 49.9396 47.6295 49.1003 46.8029 48.2705C46.4531 47.9208 46.1082 47.5663 45.6472 47.1005C45.377 47.4121 45.1481 47.7046 44.8905 47.9669C44.0544 48.8157 43.2087 49.655 42.3646 50.4959C41.5921 51.2669 40.8847 51.3655 40.2902 50.7868C39.6956 50.2082 39.7831 49.477 40.5429 48.7156C41.511 47.7459 42.4807 46.7778 43.4487 45.8065C43.5855 45.6698 43.7126 45.5236 43.8811 45.3424H43.8795Z" fill="white"/>
</svg>
