<svg width="64" height="64" viewBox="0 0 64 64" fill="none" xmlns="http://www.w3.org/2000/svg">
<path d="M32.875 64C32.1983 63.6333 31.96 63.07 31.9867 62.3017C32.0333 60.975 32 59.6467 32 58.25H31.2183C22.075 58.25 12.9317 58.25 3.79 58.25C2.36667 58.25 2 57.8917 2 56.495C2 48.4767 2 40.4583 2 32.44C2 31.1483 2.39167 30.7517 3.66667 30.75C9.49833 30.75 15.33 30.75 21.1617 30.75H22V30.0033C22 22.485 22 14.9667 22 7.44833C22 6.13167 22.3867 5.75 23.72 5.75C26.4467 5.75 29.175 5.75 32 5.75V4.135C32 3.32333 32.0383 2.50833 31.9883 1.69833C31.9417 0.928333 32.1983 0.366667 32.875 0C33.1667 0 33.4583 0 33.75 0C35.0833 0.291667 36.4133 0.601667 37.75 0.871667C44.5817 2.24667 51.415 3.61167 58.2467 4.98333C59.1917 5.17333 59.5 5.56 59.5 6.53833C59.5017 13.0383 59.5 19.5367 59.5 26.0367C59.5 27.04 59.0217 27.6333 58.2317 27.6217C57.445 27.61 57.0017 27.0267 57.0017 26C57.0017 20.0217 57.0017 14.0433 57.0017 8.065C57.0017 7.81667 57.0017 7.57 57.0017 7.27333C49.5117 5.775 42.0533 4.28167 34.545 2.77833V61.2233C42.015 59.7283 49.4717 58.2367 57.0017 56.73V55.9983C57.0017 50.04 57.0017 44.0833 57.0017 38.125C57.0017 37.9167 56.99 37.7067 57.0133 37.5C57.0883 36.86 57.6083 36.3883 58.2333 36.3783C58.855 36.3683 59.395 36.83 59.485 37.4633C59.5117 37.6483 59.5017 37.8367 59.5017 38.025C59.5017 44.4617 59.5017 50.8983 59.5017 57.335C59.5017 58.4783 59.2417 58.8167 58.1267 59.0417C50.295 60.6133 42.4633 62.1783 34.6317 63.7517C34.3333 63.8117 34.045 63.915 33.7517 64H32.8767H32.875ZM4.545 33.2783V55.7H26.9683V33.29H20.7517C20.7517 33.555 20.7517 33.78 20.7517 34.0067C20.7517 35.7983 20.76 37.5883 20.7483 39.38C20.7433 40.245 20.25 40.7433 19.39 40.7467C16.9533 40.7567 14.5167 40.7583 12.08 40.7467C11.255 40.7417 10.7683 40.24 10.755 39.4117C10.74 38.4333 10.7517 37.455 10.75 36.475C10.75 35.42 10.75 34.3633 10.75 33.28H4.545V33.2783ZM31.9567 55.7217V8.3H24.5333V30.75C25.6433 30.75 26.7217 30.75 27.8 30.75C29.1183 30.75 29.5 31.1367 29.5 32.4683C29.5 39.9667 29.5 47.4633 29.5 54.9617V55.72H31.9567V55.7217ZM18.22 33.285H13.29V38.205H18.22V33.285Z" fill="white"/>
<path d="M37 18.7267C37 15.06 37 11.3933 37 7.72833C37 6.42499 37.5883 5.94666 38.8483 6.19666C43.5817 7.13999 48.315 8.07999 53.0483 9.01999C54.215 9.25166 54.5 9.59833 54.5 10.805C54.5 16.1167 54.5 21.4283 54.5 26.7417C54.5 27.8883 54.1867 28.2567 53.065 28.48C48.3117 29.4233 43.5583 30.37 38.805 31.3183C37.625 31.5533 37.0017 31.0567 37.0017 29.8533C36.9983 26.145 37.0017 22.4367 37.0017 18.73L37 18.7267ZM44.4683 17.47V9.86833C42.8167 9.53666 41.1883 9.20999 39.53 8.87666V17.47H44.4683ZM44.4483 27.6367V20.035H39.5383V28.6183C41.19 28.2883 42.7967 27.9667 44.4483 27.6367ZM51.9817 11.3683C50.3367 11.0383 48.6967 10.71 47.0383 10.3767V17.455H51.9817V11.3683ZM51.955 26.14V20.05H47.0283V27.1217C48.69 26.79 50.3183 26.465 51.955 26.14Z" fill="white"/>
<path d="M44.4983 39.5267C44.4866 41.5767 42.7933 43.2533 40.7383 43.2483C38.66 43.2433 36.9766 41.5283 37.0016 39.4417C37.0266 37.3917 38.73 35.7333 40.7916 35.7533C42.8433 35.7717 44.5083 37.4683 44.4966 39.5283L44.4983 39.5267ZM41.995 39.4817C41.985 38.8167 41.4266 38.2617 40.7616 38.255C40.0716 38.2483 39.4933 38.8283 39.5033 39.5183C39.5133 40.1833 40.07 40.7383 40.735 40.745C41.4233 40.7517 42.0033 40.17 41.9933 39.4817H41.995Z" fill="white"/>
<path d="M58.2216 30.755C58.8866 30.74 59.4616 31.2767 59.4933 31.9417C59.5266 32.6283 58.965 33.23 58.275 33.245C57.585 33.26 57.0016 32.6867 57.0033 31.995C57.005 31.3283 57.555 30.7683 58.2216 30.7533V30.755Z" fill="white"/>
<path d="M12.665 23.25C12.475 23.0133 12.3533 22.8783 12.25 22.73C11.8816 22.2017 11.9283 21.5783 12.3616 21.1333C12.795 20.6883 13.4816 20.5683 13.9433 20.9933C14.9216 21.8933 15.865 22.835 16.7616 23.8167C17.1716 24.265 17.0983 24.86 16.685 25.3C15.845 26.1933 14.9783 27.065 14.085 27.9067C13.5683 28.395 12.875 28.355 12.395 27.8983C11.9133 27.44 11.8716 26.7733 12.2966 26.2067C12.39 26.0817 12.4983 25.9667 12.6816 25.75C11.9666 25.75 11.3733 25.75 10.78 25.75C9.15662 25.75 7.53496 25.7567 5.91162 25.7467C5.06329 25.7417 4.50162 25.2283 4.50662 24.4917C4.51162 23.755 5.06996 23.255 5.92662 23.2517C8.13162 23.245 10.3366 23.25 12.6666 23.25H12.665Z" fill="white"/>
<path d="M19.4566 53.25C18.2933 53.25 17.1283 53.255 15.965 53.25C15.0683 53.245 14.4966 52.7467 14.505 51.99C14.5116 51.235 15.08 50.755 15.99 50.7533C18.3383 50.75 20.6866 50.7483 23.035 50.7533C23.9316 50.755 24.5033 51.2567 24.4966 52.0133C24.4883 52.7683 23.92 53.2467 23.0116 53.25C21.8266 53.255 20.6433 53.25 19.4583 53.25H19.4566Z" fill="white"/>
<path d="M18.1983 48.2483C17.4099 48.2483 16.6199 48.26 15.8316 48.245C15.0399 48.23 14.4933 47.695 14.5049 46.98C14.5166 46.2883 15.0483 45.7633 15.8083 45.7567C17.4283 45.7417 19.0483 45.7417 20.6683 45.7567C21.4583 45.7633 22.0083 46.3067 21.9949 47.02C21.9833 47.7117 21.4499 48.23 20.6899 48.245C19.8599 48.2633 19.0283 48.2483 18.1983 48.25V48.2483Z" fill="white"/>
</svg>
