<svg width="64" height="64" viewBox="0 0 64 64" fill="none" xmlns="http://www.w3.org/2000/svg">
<g clip-path="url(#clip0_8_200)">
<path d="M43.63 64H16.0016C13.9883 63.1567 13.4983 62.415 13.4983 60.2033C13.4983 58.8917 13.4983 57.58 13.4983 56.2683V55.5083C11.7433 55.5083 10.08 55.5083 8.41663 55.5083C6.2583 55.5067 5.0083 54.2583 5.0083 52.0967C5.0083 35.8767 5.0083 19.6567 5.0083 3.43499C5.0083 3.14499 5.0133 2.84999 5.0633 2.56499C5.3133 1.18165 6.23663 0.426655 7.4983 -0.00167847H48.0016C50.0116 0.834988 50.505 1.58332 50.505 3.79499C50.505 5.10666 50.505 6.41832 50.505 7.72999C50.505 7.96999 50.505 8.20999 50.505 8.48832C52.2616 8.48832 53.925 8.48832 55.5883 8.48832C57.7483 8.48999 58.995 9.73666 58.995 11.9017C58.995 24.0217 59.0033 36.14 58.9883 48.26C58.985 50.51 58.135 52.4417 56.5033 53.995C53.8183 56.55 51.1333 59.1067 48.3933 61.6033C47.6683 62.2633 46.785 62.78 45.9066 63.2283C45.2 63.59 44.39 63.7483 43.6266 63.9983L43.63 64ZM43.5716 61.6117C43.5716 61.3167 43.5716 61.0717 43.5716 60.8267C43.5716 58.4733 43.555 56.12 43.5766 53.7667C43.6016 51.11 45.3766 49.3683 48.0366 49.3617C50.515 49.355 52.9933 49.3617 55.4733 49.3617C56.2689 49.3617 56.6677 48.9561 56.67 48.145C56.67 36.1067 56.67 24.07 56.67 12.0317C56.67 10.985 56.4716 10.7833 55.44 10.7833C42.6516 10.7833 29.8616 10.7833 17.0733 10.7833C16.0033 10.7833 15.805 10.9833 15.805 12.065C15.805 28.185 15.805 44.305 15.805 60.425C15.805 61.5183 15.9716 61.68 17.0833 61.68C25.5183 61.68 33.955 61.68 42.39 61.6783C42.76 61.6783 43.1283 61.6383 43.5716 61.6133V61.6117ZM48.2033 8.48999V7.76165C48.2033 6.38665 48.2033 5.01166 48.2033 3.63832C48.2033 2.46165 48.0583 2.31999 46.86 2.31999C34.1316 2.31999 21.405 2.31999 8.67663 2.31999C8.4683 2.31999 8.2583 2.31332 8.05163 2.33499C7.61663 2.37999 7.37497 2.62832 7.34497 3.06665C7.32997 3.29499 7.3333 3.52499 7.3333 3.75332C7.3333 19.75 7.3333 35.7467 7.3333 51.7433C7.3333 51.8683 7.3333 51.9933 7.3333 52.1183C7.3433 52.9833 7.57497 53.215 8.46163 53.2167C9.96163 53.2217 11.4616 53.22 12.9616 53.2167C13.1216 53.2167 13.2833 53.19 13.4966 53.1717V52.3417C13.4966 38.9067 13.5216 25.4717 13.47 12.0383C13.4616 9.90999 14.9216 8.45332 17.015 8.46499C27.1383 8.52499 37.2633 8.49165 47.3866 8.49165H48.2016L48.2033 8.48999ZM55.4483 51.8183C55.4116 51.765 55.3766 51.7117 55.34 51.6583C52.8216 51.6583 50.3033 51.6367 47.785 51.6683C46.6733 51.6817 45.8983 52.5317 45.885 53.6567C45.8716 54.8433 45.8816 56.0317 45.8816 57.2183C45.8816 58.3333 45.8816 59.45 45.8816 60.565C45.935 60.6 45.99 60.635 46.0433 60.67C49.1783 57.72 52.3133 54.7683 55.4483 51.8183Z" fill="white"/>
<path d="M36.3218 19.265C39.8818 19.265 43.4401 19.2633 47.0001 19.27C47.2868 19.27 47.5901 19.29 47.8568 19.3833C48.3401 19.5517 48.5801 19.95 48.5718 20.4483C48.5634 20.945 48.3151 21.3317 47.8285 21.4967C47.5985 21.575 47.3401 21.5983 47.0935 21.5983C39.8701 21.6033 32.6468 21.6033 25.4234 21.6017C25.2368 21.6017 25.0468 21.6 24.8651 21.5633C24.2901 21.445 23.8951 20.9633 23.9034 20.4183C23.9118 19.87 24.3184 19.3983 24.8951 19.2967C25.1184 19.2583 25.3518 19.2683 25.5801 19.2683C29.1601 19.2683 32.7401 19.2683 36.3218 19.2683V19.265Z" fill="white"/>
<path d="M36.265 34.7083C39.8034 34.7083 43.3417 34.7083 46.88 34.7083C47.1084 34.7083 47.34 34.7017 47.565 34.7283C48.1434 34.7983 48.5584 35.2517 48.58 35.8133C48.6017 36.3933 48.1734 36.9033 47.5867 36.99C47.485 37.005 47.3784 37.0017 47.275 37.0017C39.9284 37.0017 32.58 37.0033 25.2334 37C24.1967 37 23.5984 36.12 24.0584 35.2967C24.325 34.82 24.7634 34.7017 25.2767 34.7033C27.3584 34.7117 29.44 34.7067 31.52 34.7067C33.1017 34.7067 34.6834 34.7067 36.265 34.7067V34.7083Z" fill="white"/>
<path d="M36.2434 26.995C39.8234 26.995 43.4034 26.995 46.9834 26.995C47.1917 26.995 47.4034 26.98 47.6067 27.01C48.1634 27.0917 48.5784 27.585 48.58 28.14C48.58 28.705 48.1784 29.1817 47.6084 29.2633C47.3834 29.295 47.1517 29.29 46.9234 29.29C39.805 29.29 32.6867 29.29 25.5684 29.29C24.46 29.29 23.9067 28.9067 23.905 28.1417C23.905 27.3767 24.4584 26.9933 25.565 26.9933C29.1234 26.9933 32.6834 26.9933 36.2417 26.9933L36.2434 26.995Z" fill="white"/>
<path d="M31.24 44.7333C29.2417 44.7333 27.245 44.74 25.2467 44.73C24.4383 44.725 23.9 44.2367 23.9033 43.5583C23.9067 42.8833 24.445 42.4217 25.2583 42.3983C25.3617 42.395 25.4667 42.3983 25.57 42.3983C29.3367 42.3983 33.1033 42.3983 36.87 42.3983C36.995 42.3983 37.12 42.395 37.245 42.3983C38.0433 42.43 38.5267 42.8583 38.5383 43.54C38.5517 44.2483 38.0533 44.7233 37.2317 44.7283C35.2333 44.7417 33.2367 44.7317 31.2383 44.7317L31.24 44.7333Z" fill="white"/>
</g>
<defs>
<clipPath id="clip0_8_200">
<rect width="64" height="64" fill="white"/>
</clipPath>
</defs>
</svg>
