<svg width="64" height="64" viewBox="0 0 64 64" fill="none" xmlns="http://www.w3.org/2000/svg">
<path d="M6.99665 45.9967C5.96498 45.9967 5.02831 46.005 4.09165 45.995C2.04165 45.9733 0.68998 44.3217 1.07998 42.31C3.04998 32.1583 5.02331 22.0067 6.99665 11.8567C7.10665 11.2867 7.44665 10.9883 8.03498 10.99C8.15998 10.99 8.28498 10.99 8.40998 10.99C26.145 10.99 43.88 10.99 61.6133 10.99C62.7566 10.99 63.0183 11.2467 63.0183 12.3667C63.0183 24.7633 63.0183 37.16 63.0183 49.5583C63.0183 51.825 61.855 52.9983 59.6067 52.9983C43.205 52.9983 26.805 52.9983 10.4033 52.9983C8.18331 52.9983 6.99665 51.82 6.99498 49.6167C6.99498 48.4333 6.99498 47.25 6.99498 45.9967H6.99665ZM14.7766 12.99C12.9316 12.99 11.1616 13.0033 9.39331 12.98C8.96331 12.975 8.79498 13.0733 8.70831 13.5333C7.97665 17.4183 7.20998 21.2967 6.45165 25.1783C5.31498 30.9983 4.17665 36.8183 3.04331 42.64C2.88331 43.46 3.29998 43.9683 4.13998 43.9967C4.24331 44 4.34831 43.9967 4.45331 43.9967C20.9383 43.9967 37.4233 43.9967 53.9083 43.9967C54.0133 43.9967 54.1166 43.9967 54.2216 43.9967C54.8283 43.99 55.1983 43.6883 55.315 43.0933C55.4267 42.5217 55.5333 41.9483 55.6366 41.375C57.2083 32.7767 58.78 24.18 60.35 15.5817C60.505 14.7367 60.6466 13.8883 60.805 12.9917C60.605 12.9917 60.5033 12.9917 60.4016 12.9917C49.3766 12.9917 38.3516 12.9917 27.3266 12.9833C26.945 12.9833 26.8 13.08 26.7233 13.4783C25.8366 17.99 24.925 22.4967 24.015 27.005C23.8683 27.735 23.5533 27.99 22.8066 27.9917C19.5966 27.9967 16.3883 27.9983 13.1783 27.9917C12.2933 27.99 11.8833 27.4733 12.055 26.6117C12.3933 24.9183 12.7383 23.2267 13.0766 21.5333C13.6383 18.7183 14.1983 15.905 14.7783 12.9917L14.7766 12.99ZM8.99831 45.9967C8.99831 47.215 8.99831 48.3567 8.99831 49.4983C8.99831 50.73 9.26665 50.9983 10.5 50.9983C26.8366 50.9983 43.1733 50.9983 59.51 50.9983C60.7483 50.9983 61.0183 50.73 61.0183 49.505C61.0183 41.0667 61.0183 32.63 61.0183 24.1917V23.5733C60.8833 23.8183 60.8233 24.075 60.775 24.3333C59.6316 30.5967 58.4966 36.8617 57.345 43.1233C56.9716 45.1517 55.915 45.9967 53.84 45.9967C39.1916 45.9967 24.5416 45.9967 9.89331 45.9967H8.99665H8.99831ZM24.7833 12.99C22.18 12.99 19.6633 12.9817 17.1483 13.01C17.0083 13.01 16.7833 13.2883 16.7466 13.4683C16.235 15.91 15.7483 18.355 15.2583 20.8C14.9166 22.5083 14.5783 24.2183 14.24 25.92C14.32 25.9517 14.3583 25.98 14.3966 25.98C16.8733 25.985 19.3516 25.995 21.8283 25.9717C21.9766 25.9717 22.2166 25.7133 22.255 25.5417C22.5883 24.0183 22.885 22.4883 23.1916 20.96C23.7183 18.3333 24.2433 15.705 24.7866 12.9883L24.7833 12.99Z" fill="white"/>
<path d="M46.0122 23.2462C45.9337 23.2462 45.8602 23.2462 45.7866 23.2462C44.165 23.2462 42.5433 23.2489 40.9222 23.2446C40.2504 23.2429 39.8672 22.7363 40.0436 22.1023C40.137 21.7668 40.4041 21.5438 40.7568 21.5127C40.8531 21.5039 40.9498 21.5045 41.0466 21.5045C42.6268 21.5045 44.207 21.5045 45.7872 21.5045H46.0393C46.0034 21.4083 45.9862 21.3361 45.9514 21.2733C45.4416 20.3519 44.6952 19.7769 43.5993 19.7562C42.7097 19.7392 41.819 19.7545 40.9288 19.7512C40.2526 19.7491 39.8589 19.2299 40.0469 18.5921C40.1381 18.2828 40.3494 18.092 40.6678 18.0303C40.7884 18.0068 40.9144 18.0013 41.0377 18.0013C44.1771 17.9997 47.3171 18.0002 50.4565 18.0002C50.5256 18.0002 50.5947 17.9986 50.6633 18.0046C51.2029 18.0499 51.5048 18.3948 51.4827 18.9375C51.4622 19.4272 51.1233 19.7491 50.6052 19.7512C49.5149 19.7556 48.4245 19.7529 47.3342 19.7529C47.2601 19.7529 47.1866 19.7529 47.0832 19.7529C47.1816 19.9223 47.28 20.0611 47.3475 20.2136C47.5106 20.5808 47.6704 20.9508 47.8075 21.3279C47.8556 21.4591 47.9004 21.5099 48.0458 21.5088C48.8945 21.5017 49.7432 21.5006 50.5919 21.5072C51.2311 21.5121 51.6065 21.9958 51.4633 22.6106C51.3721 23.0024 51.0619 23.2418 50.6124 23.2451C49.7841 23.2511 48.9564 23.2544 48.1282 23.2424C47.9258 23.2396 47.8501 23.2976 47.8009 23.4949C47.3972 25.1224 45.6772 26.7805 43.5286 26.7521C43.3776 26.7499 43.2261 26.7521 43.0216 26.7521C43.1017 26.8362 43.1487 26.8882 43.199 26.9374C44.3845 28.1113 45.571 29.2841 46.7553 30.4596C47.1274 30.8291 47.1728 31.2663 46.8886 31.6385C46.5574 32.0719 45.9824 32.1249 45.5876 31.7472C45.2155 31.3914 44.8544 31.0242 44.4884 30.6618C43.0979 29.2852 41.7078 27.908 40.3162 26.5329C40.0447 26.2646 39.9209 25.9667 40.0646 25.5891C40.2205 25.1803 40.4594 25.0027 40.905 25.0011C41.7952 24.9972 42.6854 25.0098 43.5756 24.9972C44.6709 24.9814 45.4223 24.4152 45.9398 23.4976C45.9696 23.4446 45.989 23.3856 46.01 23.3276C46.0161 23.3101 46.0111 23.2888 46.0111 23.2473L46.0122 23.2462Z" fill="white"/>
<path d="M18.4616 33.9933C16.3983 33.9933 14.3349 33.995 12.2716 33.9933C11.4733 33.9933 11.0183 33.6367 11.0033 33.0167C10.9883 32.3733 11.4566 31.995 12.2883 31.995C16.4349 31.9933 20.5833 31.9933 24.7299 31.995C25.5299 31.995 25.9849 32.3517 25.9999 32.97C26.0149 33.61 25.5416 33.9917 24.7149 33.9933C22.6316 33.9967 20.5466 33.9933 18.4633 33.9933H18.4616Z" fill="white"/>
<path d="M17.44 38.995C15.3567 38.995 13.2717 38.9983 11.1884 38.9933C10.5034 38.9917 10.0834 38.6683 10.01 38.12C9.9267 37.495 10.3967 37.0033 11.1234 36.9983C12.915 36.9883 14.7084 36.995 16.5 36.995C18.9384 36.995 21.3767 36.9917 23.815 36.9967C24.5017 36.9967 24.92 37.3183 24.9934 37.8683C25.08 38.51 24.59 38.99 23.8167 38.9917C21.6917 38.9983 19.565 38.9933 17.44 38.9933V38.995Z" fill="white"/>
</svg>
