<svg width="64" height="64" viewBox="0 0 64 64" fill="none" xmlns="http://www.w3.org/2000/svg">
<path d="M35.0233 55.3017C37.11 55.93 37.7483 56.7933 37.7483 58.9367C37.7483 59.3117 37.7566 59.6867 37.745 60.0617C37.6966 61.79 36.495 63.0067 34.765 63.0167C31.2016 63.035 27.6383 63.0233 24.0733 63.0233C20.5933 63.0233 17.1133 63.0267 13.6316 63.0233C11.5333 63.02 10.3783 61.8667 10.375 59.7833C10.375 59.2633 10.3633 58.7417 10.3766 58.2217C10.41 56.9533 11.0033 56.0267 12.1666 55.5317C12.5583 55.365 12.6216 55.1633 12.6216 54.7933C12.6116 48.565 12.6383 42.335 12.6066 36.1067C12.585 31.9067 14.055 28.3533 16.9916 25.3717C19.2133 23.115 21.4083 20.8317 23.63 18.575C23.9316 18.2683 24.0566 17.965 24.055 17.535C24.0416 12.4933 24.0466 7.45166 24.0466 2.41166C24.0466 1.18 24.2616 0.96833 25.5116 0.96833C34.41 0.96833 43.31 0.96833 52.2083 0.96833C53.4366 0.96833 53.6483 1.185 53.6483 2.43C53.6483 15.325 53.6483 28.22 53.6483 41.115C53.6483 42.345 53.4266 42.5667 52.19 42.5667C48.6266 42.5667 45.0616 42.5767 41.4983 42.555C41.0033 42.5517 40.7066 42.715 40.4183 43.105C38.9683 45.06 37.4016 46.9333 36.4533 49.2167C35.6466 51.1567 35.16 53.1633 35.0216 55.3L35.0233 55.3017ZM40.3983 21.3383C40.7133 21.3383 40.96 21.3383 41.2066 21.3383C43.4583 21.3383 45.7083 21.32 47.96 21.3633C48.2733 21.37 48.7183 21.605 48.8516 21.865C48.99 22.1317 48.9433 22.65 48.7566 22.885C48.5683 23.1217 48.1133 23.2417 47.7716 23.245C45.2716 23.2733 42.77 23.255 40.2683 23.2717C40.0533 23.2717 39.77 23.3667 39.6383 23.52C38.8366 24.45 38.07 25.4117 37.29 26.3617C36.9 26.8367 36.51 27.31 36.0133 27.9117H36.8316C40.3116 27.9117 43.7933 27.9117 47.2733 27.9133C47.5233 27.9133 47.775 27.915 48.02 27.955C48.5266 28.0383 48.7716 28.3633 48.7816 28.87C48.795 29.5417 48.4083 29.8633 47.5666 29.865C43.3766 29.8683 39.1883 29.8633 34.9983 29.875C34.7516 29.875 34.4183 29.9233 34.2766 30.0833C33.6833 30.75 33.0733 31.4233 32.6133 32.1817C32.2 32.865 31.9733 33.66 31.62 34.5117C32.0816 34.5117 32.33 34.5117 32.5783 34.5117C37.455 34.5117 42.3333 34.5117 47.21 34.515C47.4766 34.515 47.8266 34.4717 47.9916 34.6167C48.2583 34.8483 48.5516 35.2167 48.5566 35.5317C48.56 35.8133 48.2366 36.1633 47.9683 36.365C47.785 36.5033 47.4483 36.4617 47.18 36.4617C42.2616 36.4667 37.3416 36.465 32.4233 36.465H31.7783C31.3833 37.895 31.01 39.245 30.6366 40.5967H51.7416V2.92H26.0466V23.6817C28.4833 21.265 30.8466 18.9233 33.205 16.585C32.2716 16.585 31.2933 16.6 30.315 16.58C29.5066 16.5633 29.1133 16.115 29.2333 15.405C29.3266 14.8533 29.675 14.6267 30.4633 14.6267C36.05 14.625 41.635 14.625 47.2216 14.63C47.4666 14.63 47.7916 14.6083 47.94 14.7467C48.1883 14.9767 48.4733 15.3317 48.465 15.6283C48.4566 15.9233 48.1566 16.2717 47.8933 16.4783C47.7133 16.62 47.375 16.5817 47.1066 16.5833C44.21 16.59 41.3116 16.5867 38.415 16.5867C38.2 16.5867 37.9833 16.5867 37.7683 16.5867C39.5033 17.705 40.355 19.2483 40.3983 21.3367V21.3383ZM38.3916 42.5183C37.99 42.5 37.7916 42.4833 37.5916 42.4833C34.9033 42.4817 32.215 42.4917 29.5266 42.4733C29.115 42.47 28.845 42.6 28.5683 42.8983C27.35 44.2117 26.11 45.505 24.865 46.795C24.2916 47.3883 23.5933 47.3567 23.2383 46.735C22.9566 46.2417 23.1266 45.8283 23.4966 45.445C24.74 44.155 25.9733 42.855 27.21 41.5583C28.6433 40.0533 29.465 38.2833 29.565 36.1917C29.5933 35.61 29.6183 35.0233 29.7133 34.45C30.085 32.22 31.25 30.375 32.6583 28.6783C33.9483 27.125 35.3516 25.6633 36.6266 24.0983C37.2366 23.35 37.74 22.4917 38.16 21.62C38.5566 20.795 38.385 19.9517 37.8066 19.2167C36.7083 17.82 34.7783 17.7067 33.4733 19C30.6766 21.7733 27.9 24.565 25.1133 27.3483C23.7716 28.6883 22.4266 30.025 21.0916 31.3717C20.715 31.7517 20.3066 31.9283 19.8066 31.66C19.19 31.33 19.145 30.6117 19.7166 30.035C21.02 28.7167 22.35 27.4217 23.6366 26.0883C23.8533 25.8633 24.0166 25.4917 24.0283 25.18C24.0733 23.9733 24.0483 22.7633 24.0433 21.5567C24.0433 21.4083 24.0066 21.2617 23.9866 21.1133C24.015 21.1667 24.0433 21.22 24.0716 21.2717C22.1583 23.0983 20.2233 24.9 18.34 26.7567C15.78 29.28 14.5383 32.3717 14.5383 35.9633C14.5383 42.1917 14.5383 48.4217 14.5383 54.65C14.5383 54.8717 14.5383 55.095 14.5383 55.3267H33.01C33.2583 50.4467 35.2866 46.3233 38.3916 42.52V42.5183ZM24.055 61.1017C26.22 61.1017 28.3866 61.1017 30.5516 61.1017C31.905 61.1017 33.2583 61.11 34.6116 61.0983C35.4416 61.0917 35.7716 60.7433 35.785 59.91C35.79 59.5567 35.785 59.2017 35.785 58.8483C35.785 57.5633 35.53 57.3033 34.26 57.3033C27.4516 57.3033 20.6416 57.3033 13.8333 57.3033C13.6466 57.3033 13.4583 57.2967 13.2716 57.3167C12.6916 57.375 12.355 57.69 12.33 58.2817C12.31 58.7383 12.3166 59.1967 12.3183 59.655C12.32 60.8217 12.595 61.1 13.7466 61.1C17.1816 61.1 20.6183 61.1 24.0533 61.1L24.055 61.1017Z" fill="white"/>
<path d="M38.83 9.87667C36.02 9.87667 33.21 9.89 30.4 9.86C30.065 9.85667 29.6417 9.705 29.42 9.47C28.915 8.935 29.2933 8.07334 30.0267 7.97334C30.2317 7.945 30.4417 7.95167 30.65 7.95167C36.1233 7.95167 41.5983 7.95167 47.0717 7.95167C47.1967 7.95167 47.3217 7.94834 47.4467 7.955C48.1283 7.985 48.51 8.33167 48.51 8.915C48.51 9.50334 48.1233 9.86834 47.4467 9.87334C45.865 9.88334 44.2833 9.87667 42.7017 9.87834C41.4117 9.87834 40.12 9.87834 38.83 9.87834V9.87667Z" fill="white"/>
</svg>
