<svg width="64" height="64" viewBox="0 0 64 64" fill="none" xmlns="http://www.w3.org/2000/svg">
<path d="M56.3227 37.8303C54.4945 38.9143 52.7915 39.8652 51.1558 40.9196C50.2679 41.4912 49.5538 41.4746 48.6659 40.9104C46.6656 39.6395 44.5701 38.5166 42.5699 37.2458C38.1713 34.4525 35.9243 30.416 35.8458 25.2493C35.7823 21.0168 35.829 16.7843 35.8346 12.5518C35.8346 11.6028 36.0552 11.2994 36.96 10.9406C41.0239 9.32746 45.0823 7.70142 49.1612 6.12903C49.608 5.95699 50.238 5.95699 50.6848 6.12903C54.7656 7.69957 58.8202 9.33116 62.8898 10.9332C63.5627 11.1977 63.9983 11.6047 63.9946 12.3594C63.974 17.0303 64.0619 21.705 63.8974 26.3722C63.7665 30.0701 62.086 33.1612 59.3455 35.666C59.0071 35.9749 58.8594 36.269 58.8613 36.7259C58.8763 41.6984 58.8725 46.6709 58.8707 51.6433C58.8707 54.7363 56.9321 56.6639 53.8047 56.6639C37.5712 56.6676 21.3378 56.6676 5.10427 56.6639C1.93759 56.6639 0.00467339 54.7456 0.00280403 51.6008C-0.000934677 40.5922 -0.000934677 29.5817 0.00280403 18.5731C0.00280403 15.4061 1.90768 13.5174 5.08558 13.5174C13.9015 13.5174 22.7192 13.5174 31.5351 13.5174C31.7912 13.5174 32.0548 13.5026 32.3015 13.5544C32.8885 13.6765 33.2904 14.2315 33.2642 14.8327C33.2381 15.432 32.7932 15.9352 32.1875 16.0166C31.9351 16.0499 31.6753 16.0351 31.4192 16.0351C22.6725 16.0351 13.9258 16.0351 5.17905 16.0351C3.33773 16.0351 2.58251 16.7788 2.58064 18.5898C2.58064 19.4148 2.58064 20.2399 2.58064 21.1352H3.49102C12.7742 21.1352 22.0575 21.1352 31.3407 21.1352C31.5968 21.1352 31.8547 21.1241 32.109 21.1482C32.7651 21.2074 33.2343 21.6939 33.2642 22.3247C33.2941 22.9814 32.8418 23.5419 32.1725 23.6381C31.9202 23.6751 31.6603 23.6584 31.4042 23.6584C22.0986 23.6584 12.7911 23.6584 3.48541 23.6584H2.58064C2.58064 23.9655 2.58064 24.2134 2.58064 24.4594C2.58064 33.5035 2.58064 42.5457 2.58064 51.5897C2.58064 53.3748 3.32652 54.1129 5.13044 54.1129C21.3396 54.1129 37.5507 54.1129 53.7598 54.1129C55.5395 54.1129 56.3209 53.3397 56.3227 51.5804C56.3246 47.2776 56.3227 42.9767 56.3227 38.6739V37.8266V37.8303ZM61.4092 19.9624C61.4092 19.9624 61.4149 19.9624 61.4167 19.9624C61.4167 17.8572 61.4074 15.7539 61.4261 13.6488C61.4298 13.2436 61.3083 13.0309 60.9157 12.8774C57.3864 11.4937 53.8683 10.0859 50.3371 8.70405C50.1071 8.61341 49.78 8.60046 49.5538 8.68925C45.9815 10.0878 42.4147 11.5029 38.8592 12.944C38.6555 13.0272 38.4274 13.362 38.4255 13.5803C38.4031 17.6038 38.3433 21.6291 38.4349 25.6508C38.5246 29.6261 40.3379 32.7487 43.6822 34.9297C45.5889 36.1728 47.5779 37.2902 49.5463 38.4352C49.7333 38.5444 50.0922 38.5499 50.2754 38.4426C52.2251 37.3105 54.1973 36.2061 56.0835 34.976C59.4707 32.7672 61.2728 29.6169 61.3962 25.5823C61.4541 23.7102 61.4055 21.8363 61.4055 19.9624H61.4092Z" fill="white"/>
<path d="M14.049 49.0498C12.3946 49.0498 10.7384 49.0683 9.08398 49.0424C7.97171 49.0258 7.34548 48.0083 7.87077 47.1315C8.18482 46.6061 8.68767 46.5099 9.25596 46.5118C12.3329 46.5192 15.4099 46.5155 18.4868 46.5155C18.6738 46.5155 18.8607 46.5118 19.0458 46.5155C19.9225 46.5414 20.4945 47.0482 20.4796 47.7882C20.4665 48.5263 19.8888 49.0369 19.014 49.0443C17.6157 49.0572 16.2174 49.048 14.8173 49.048C14.5612 49.048 14.3051 49.048 14.0471 49.048L14.049 49.0498Z" fill="white"/>
<path d="M48.3289 24.3836C48.5065 24.0839 48.5981 23.8231 48.7757 23.6455C50.4806 21.9343 52.1948 20.2343 53.9127 18.5361C54.6081 17.848 55.382 17.7795 55.9353 18.3382C56.5018 18.9098 56.427 19.6294 55.7092 20.3435C53.5837 22.456 51.4582 24.5649 49.3272 26.6719C48.5234 27.4655 47.9009 27.4692 47.1083 26.6904C46.0801 25.6822 45.0576 24.6685 44.0425 23.6492C43.377 22.9795 43.3396 22.2507 43.9173 21.7013C44.4781 21.1685 45.1809 21.211 45.8352 21.8548C46.611 22.6169 47.3644 23.4031 48.3289 24.3836Z" fill="white"/>
</svg>
