<svg width="64" height="64" viewBox="0 0 64 64" fill="none" xmlns="http://www.w3.org/2000/svg">
<path d="M50.5 64H47.625C47.5083 63.9633 47.395 63.9067 47.2767 63.89C43.13 63.3417 39.7733 61.4067 37.2217 58.1017C36.9317 57.725 36.6467 57.5983 36.1883 57.6C25.4383 57.6117 14.6883 57.61 3.93833 57.61C1.65833 57.61 0.865 57.085 0 55C0 38.8333 0 22.6667 0 6.5C0.0433333 6.365 0.0983333 6.23333 0.126667 6.09667C0.54 4.095 1.53333 2.425 3.265 1.35C4.245 0.741667 5.415 0.44 6.5 0C19.5 0 32.5 0 45.5 0C45.6583 0.0416667 45.815 0.095 45.9767 0.123333C49.2683 0.681667 51.9267 3.545 52.235 6.86333C52.5383 10.1317 50.57 13.2533 47.4467 14.4283C46.945 14.6167 46.4167 14.735 45.9017 14.885V34.4367C46.6967 34.34 47.4567 34.2 48.2233 34.1667C49.01 34.1317 49.8067 34.1567 50.5917 34.23C56.6883 34.8 61.885 39.1733 63.4833 45.075C63.6883 45.8317 63.8283 46.6067 64 47.3733V50.7483C63.96 50.885 63.9067 51.02 63.8817 51.1617C62.9217 56.835 59.7983 60.8133 54.47 62.975C53.215 63.485 51.8267 63.6667 50.5 63.9983V64ZM35.58 55.4767C35.445 55.16 35.365 54.9717 35.2867 54.7833C32.1283 47.2383 35.6633 38.55 43.2017 35.3683C43.61 35.1967 43.7533 34.9967 43.7517 34.55C43.7367 28.2183 43.7417 21.8883 43.74 15.5567C43.74 15.3733 43.725 15.19 43.7133 14.9283C43.42 14.9283 43.155 14.9283 42.89 14.9283C33.185 14.9283 23.48 14.9283 13.775 14.9283C13.5467 14.9283 13.3167 14.9317 13.0883 14.925C12.0283 14.8917 11.2583 14.4067 10.845 13.4233C10.4267 12.4267 10.7317 11.595 11.39 10.7767C11.8867 10.1583 12.3917 9.46167 12.6067 8.71667C13.5267 5.51667 10.9833 2.215 7.62 2.13167C4.52 2.05667 2.13333 4.49 2.13167 7.74667C2.12833 23.1167 2.13167 38.4867 2.13167 53.8567C2.13167 55.18 2.425 55.475 3.74333 55.475C14.0933 55.475 24.445 55.475 34.795 55.475C35.0183 55.475 35.2417 55.475 35.5817 55.475L35.58 55.4767ZM61.8683 49.0617C61.8933 42.0983 56.16 36.3117 49.1867 36.2617C42.1283 36.2117 36.28 41.9517 36.2617 48.9467C36.2433 56.0683 41.9317 61.835 49.0067 61.8667C56.085 61.8983 61.8417 56.1667 61.8667 49.0633L61.8683 49.0617ZM12.7333 2.13C13.0267 2.49167 13.2317 2.72833 13.4183 2.97667C15.49 5.715 15.4083 9.58667 13.24 11.97C13.07 12.1567 12.9583 12.3967 12.8183 12.6117C13.0867 12.6717 13.355 12.7333 13.625 12.79C13.665 12.7983 13.7083 12.79 13.75 12.79C23.9333 12.79 34.1167 12.79 44.3 12.79C44.675 12.79 45.05 12.7833 45.4233 12.7517C48.38 12.4983 50.615 9.51833 50.0333 6.61167C49.4933 3.915 47.2883 2.13333 44.4417 2.13167C34.0917 2.125 23.7417 2.12833 13.3933 2.12833C13.2133 2.12833 13.035 2.12833 12.735 2.12833L12.7333 2.13Z" fill="white"/>
<path d="M50.0122 48.2462C49.9337 48.2462 49.8602 48.2462 49.7866 48.2462C48.165 48.2462 46.5433 48.2489 44.9222 48.2446C44.2504 48.2429 43.8672 47.7363 44.0436 47.1023C44.137 46.7668 44.4041 46.5438 44.7568 46.5127C44.8531 46.5039 44.9498 46.5045 45.0466 46.5045C46.6268 46.5045 48.207 46.5045 49.7872 46.5045H50.0393C50.0034 46.4083 49.9862 46.3361 49.9514 46.2733C49.4416 45.3519 48.6952 44.7769 47.5993 44.7562C46.7097 44.7392 45.819 44.7545 44.9288 44.7512C44.2526 44.7491 43.8589 44.2299 44.0469 43.5921C44.1381 43.2828 44.3494 43.092 44.6678 43.0303C44.7884 43.0068 44.9144 43.0013 45.0377 43.0013C48.1771 42.9997 51.3171 43.0002 54.4565 43.0002C54.5256 43.0002 54.5947 42.9986 54.6633 43.0046C55.2029 43.0499 55.5048 43.3948 55.4827 43.9375C55.4622 44.4272 55.1233 44.7491 54.6052 44.7512C53.5149 44.7556 52.4245 44.7529 51.3342 44.7529C51.2601 44.7529 51.1866 44.7529 51.0832 44.7529C51.1816 44.9223 51.28 45.0611 51.3475 45.2136C51.5106 45.5808 51.6704 45.9508 51.8075 46.3279C51.8556 46.4591 51.9004 46.5099 52.0458 46.5088C52.8945 46.5017 53.7432 46.5006 54.5919 46.5072C55.2311 46.5121 55.6065 46.9958 55.4633 47.6106C55.3721 48.0024 55.0619 48.2418 54.6124 48.2451C53.7841 48.2511 52.9564 48.2544 52.1282 48.2424C51.9258 48.2396 51.8501 48.2976 51.8009 48.4949C51.3972 50.1224 49.6772 51.7805 47.5286 51.7521C47.3776 51.7499 47.2261 51.7521 47.0216 51.7521C47.1017 51.8362 47.1487 51.8882 47.199 51.9374C48.3845 53.1113 49.571 54.2841 50.7553 55.4596C51.1274 55.8291 51.1728 56.2663 50.8886 56.6385C50.5574 57.0719 49.9824 57.1249 49.5876 56.7472C49.2155 56.3914 48.8544 56.0242 48.4884 55.6618C47.0979 54.2852 45.7078 52.908 44.3162 51.5329C44.0447 51.2646 43.9209 50.9667 44.0646 50.5891C44.2205 50.1803 44.4594 50.0027 44.905 50.0011C45.7952 49.9972 46.6854 50.0098 47.5756 49.9972C48.6709 49.9814 49.4223 49.4152 49.9398 48.4976C49.9696 48.4446 49.989 48.3856 50.01 48.3276C50.0161 48.3101 50.0111 48.2888 50.0111 48.2473L50.0122 48.2462Z" fill="white"/>
<path d="M12.9983 47.335C12.1867 46.2516 11.7183 45.055 11.7417 43.6883C11.7733 41.935 13.21 40.5133 14.9483 40.525C16.6683 40.5366 18.0883 41.9383 18.125 43.6583C18.1517 44.925 17.9083 45.615 16.785 47.46C18.6083 48.4466 22.3983 48.2516 23.5617 45.4633C23.9117 44.6266 24.815 44.6016 25.4383 45.285C26.025 45.9266 26.6367 46.5583 27.31 47.105C28.015 47.6783 28.87 47.955 29.795 48.0016C30.5317 48.04 30.955 48.4933 30.91 49.145C30.8667 49.785 30.3783 50.175 29.6367 50.1133C27.7117 49.9516 26.0833 49.15 24.75 47.7733C24.69 47.7866 24.6383 47.7833 24.6183 47.805C22.1533 50.6533 18.2667 50.6316 15.4 49.2066C15.01 49.0133 14.7117 48.9766 14.305 49.1666C12.91 49.8166 11.4317 50.13 9.88999 50.1283C9.04999 50.1283 8.54499 49.7416 8.52999 49.0866C8.51499 48.4316 9.02332 48.0633 9.84665 47.9866C10.8917 47.89 11.9283 47.7066 12.9683 47.5616C12.9783 47.4866 12.9867 47.41 12.9967 47.335H12.9983ZM14.9033 46.2466C15.63 45.5183 15.9917 44.7066 15.9917 43.7516C15.9917 43.135 15.5167 42.67 14.9417 42.6666C14.365 42.6616 13.8867 43.1233 13.88 43.7383C13.87 44.6883 14.205 45.5083 14.905 46.2466H14.9033Z" fill="white"/>
<path d="M22.9333 29.87C28.265 29.87 33.5967 29.87 38.9283 29.87C39.1367 29.87 39.3467 29.8584 39.5533 29.88C40.125 29.94 40.51 30.3617 40.5167 30.9167C40.5233 31.47 40.1467 31.9084 39.5833 31.9867C39.42 32.01 39.25 32 39.085 32C28.3183 32 17.55 32 6.78333 32C6.61666 32 6.44833 32.01 6.28499 31.9867C5.71999 31.9084 5.34666 31.475 5.355 30.9167C5.36166 30.3584 5.74333 29.94 6.31666 29.88C6.52333 29.8584 6.73333 29.87 6.94166 29.87C12.2733 29.87 17.605 29.87 22.9367 29.87H22.9333Z" fill="white"/>
<path d="M22.895 26.6567C17.585 26.6567 12.275 26.6567 6.96501 26.6567C6.73668 26.6567 6.50501 26.6667 6.27834 26.6383C5.73334 26.5683 5.41168 26.2483 5.36168 25.7C5.31168 25.155 5.55834 24.7633 6.08501 24.6067C6.33834 24.5317 6.61834 24.5267 6.88501 24.5267C17.5883 24.5233 28.2933 24.5233 38.9967 24.5267C39.2833 24.5267 39.59 24.5367 39.855 24.6317C40.3417 24.805 40.5633 25.1983 40.5067 25.715C40.4517 26.2333 40.1483 26.5483 39.635 26.6317C39.4117 26.6683 39.1783 26.6567 38.95 26.6567C33.5983 26.6567 28.2467 26.6567 22.895 26.6567Z" fill="white"/>
<path d="M22.9633 19.2083C28.2317 19.2083 33.5 19.2083 38.7683 19.2083C38.9133 19.2083 39.06 19.2067 39.205 19.2083C40.0733 19.2217 40.5233 19.5917 40.5133 20.2817C40.505 20.9567 40.035 21.3417 39.175 21.3417C31.7833 21.345 24.39 21.3433 16.9983 21.3433C13.625 21.3433 10.2517 21.345 6.87834 21.34C6.61001 21.34 6.33001 21.335 6.07667 21.2583C5.55167 21.0983 5.31001 20.7033 5.35834 20.16C5.40501 19.6417 5.70667 19.3217 6.22167 19.2383C6.46667 19.1983 6.72001 19.21 6.97001 19.21C12.3 19.21 17.6317 19.21 22.9617 19.21L22.9633 19.2083Z" fill="white"/>
<path d="M20.8117 35.2083C25.415 35.2083 30.02 35.2083 34.6234 35.2083C34.8734 35.2083 35.1267 35.1983 35.3717 35.2367C35.8884 35.315 36.19 35.6417 36.2434 36.1533C36.3 36.6967 36.0484 37.0883 35.5267 37.2567C35.295 37.3317 35.035 37.34 34.7884 37.34C25.455 37.3433 16.1217 37.3433 6.79005 37.3433C5.87671 37.3433 5.41838 37.03 5.35838 36.3817C5.30171 35.7883 5.66171 35.315 6.25171 35.2333C6.47671 35.2033 6.70838 35.21 6.93838 35.21C11.5634 35.21 16.1884 35.21 20.8134 35.21L20.8117 35.2083Z" fill="white"/>
</svg>
