<svg width="56" height="56" viewBox="0 0 56 56" fill="none" xmlns="http://www.w3.org/2000/svg">
<path d="M22.1862 40.4441H33.8167M28.0014 5.59961V8.0885M43.8406 12.1604L42.0807 13.9203M50.4016 27.9995H47.9127M8.09045 27.9995H5.60156M13.9221 13.9203L12.1622 12.1604M19.2019 36.7992C14.342 31.9394 14.342 24.06 19.2019 19.2001C24.0617 14.3403 31.9411 14.3403 36.801 19.2001C41.6608 24.06 41.6608 31.9394 36.801 36.7992L35.4393 38.1609C33.8641 39.7361 32.9792 41.8725 32.9792 44.1001V45.4218C32.9792 48.171 30.7506 50.3996 28.0014 50.3996C25.2523 50.3996 23.0237 48.171 23.0237 45.4218V44.1001C23.0237 41.8725 22.1387 39.7361 20.5635 38.1609L19.2019 36.7992Z" stroke="white" stroke-width="3.2" stroke-linecap="round" stroke-linejoin="round"/>
</svg>
