<svg width="64" height="64" viewBox="0 0 64 64" fill="none" xmlns="http://www.w3.org/2000/svg">
<path d="M52.2341 59H10.9997C10.8977 58.9679 10.7956 58.9242 10.6906 58.9037C7.38746 58.2883 5.25975 56.356 4.26954 53.1594C4.15287 52.7817 4.08725 52.3865 3.99829 52C3.99829 41.7552 3.99829 31.5104 3.99829 21.2656C4.03037 21.184 4.0785 21.1052 4.09308 21.0192C4.71433 17.3573 7.72871 14.5544 11.2462 14.3706C15.1706 14.1665 18.427 16.4633 19.4712 20.1748C19.5485 20.449 19.6141 20.7246 19.6812 20.9827H24.0139C24.0139 20.7304 24.0139 20.516 24.0139 20.3002C24.0139 15.7269 24.011 11.1535 24.0139 6.58021C24.0139 4.81854 24.9735 3.56875 26.6652 3.09333C26.7322 3.07437 26.7935 3.03062 26.8562 3C27.9864 3 29.1166 3 30.2468 3C32.5247 3.88521 33.0906 4.72958 33.0906 7.23937C33.0906 8.03562 33.0906 8.83042 33.0906 9.67187C34.5125 9.67187 35.8745 9.66896 37.2366 9.67187C38.1816 9.67479 38.6468 10.1342 38.6541 11.0777C38.6629 12.2444 38.657 13.4096 38.6556 14.5762C38.6556 15.2135 38.6789 15.8537 38.6395 16.4881C38.5972 17.1677 38.0431 17.6577 37.4116 17.6373C36.767 17.6169 36.28 17.1137 36.2537 16.424C36.2406 16.0958 36.2493 15.7677 36.2493 15.4396C36.2493 14.3342 36.2493 13.2287 36.2493 12.119H33.1343V21.0177H33.8839C42.0652 21.0177 50.245 21.0235 58.4262 21.0075C59.167 21.006 59.7008 21.2219 59.9954 21.9204V51.4517C59.6731 52.1181 59.1452 52.3587 58.4072 52.3383C57.0627 52.299 55.7166 52.3267 54.3706 52.3267H53.1033C53.1033 54.0679 53.0785 55.7392 53.115 57.4075C53.131 58.144 52.8933 58.6719 52.2297 58.9985L52.2341 59ZM19.7687 49.8854H57.5585V23.4692H33.0906C33.0906 25.715 33.1052 27.9185 33.0877 30.1206C33.0629 33.1467 32.3497 36.0137 30.8375 38.6315C30.171 39.785 29.5177 40.8773 29.7422 42.27C29.7452 42.2875 29.7393 42.3065 29.7364 42.324C29.6577 42.9787 29.1531 43.4454 28.5318 43.4323C27.9281 43.4206 27.4322 42.9729 27.3739 42.3385C27.3331 41.904 27.3943 41.4592 27.336 41.029C27.2835 40.6498 27.2077 40.2356 27.0064 39.9235C25.0712 36.9237 24.0475 33.6512 24.0183 30.0798C24.0022 28.0746 24.0154 26.0708 24.0154 24.0656C24.0154 23.8702 24.0154 23.6748 24.0154 23.4648H19.7687V49.8854ZM17.3114 45.3704C17.3275 45.2756 17.3391 45.2406 17.3391 45.2042C17.3391 37.494 17.3537 29.7823 17.326 22.0721C17.3202 20.3308 16.5516 18.8915 15.1458 17.859C13.3783 16.5596 11.4402 16.3627 9.47579 17.3281C7.44725 18.3256 6.41767 20.0406 6.41183 22.2996C6.39287 29.864 6.40454 37.4298 6.406 44.9942C6.406 45.1108 6.41767 45.229 6.42496 45.3879C9.55162 42.6171 14.0243 42.4858 17.3114 45.3704ZM50.6766 52.3281H50.0131C39.7143 52.3281 29.4141 52.3281 19.1154 52.3281C18.9331 52.3281 18.7508 52.334 18.5685 52.3252C17.8481 52.2902 17.3989 51.8425 17.342 51.1162C17.3172 50.8085 17.2968 50.4979 17.2458 50.1946C16.7966 47.4485 14.3014 45.4885 11.4883 45.6694C8.72767 45.8458 6.47454 48.1923 6.40892 50.9573C6.336 54.0504 8.74808 56.5835 11.8616 56.5865C24.676 56.6025 37.4918 56.5937 50.3062 56.5923C50.4272 56.5923 50.5483 56.5675 50.6752 56.5544V52.3281H50.6766ZM26.4216 12.1015C26.4216 12.364 26.4216 12.5798 26.4216 12.7956C26.4216 18.4044 26.4114 24.0146 26.4318 29.6233C26.4347 30.6019 26.5091 31.5892 26.652 32.5575C26.9277 34.4081 27.5693 36.1406 28.5522 37.8133C28.6762 37.596 28.7783 37.4298 28.8687 37.2592C30.0689 34.9783 30.6829 32.5487 30.6858 29.9719C30.6916 24.1808 30.6872 18.3883 30.6858 12.5973C30.6858 12.4383 30.6712 12.2808 30.6639 12.1H26.4216V12.1015ZM30.6843 9.64854C30.6843 8.53146 30.7004 7.47417 30.6785 6.41833C30.6654 5.82479 30.2629 5.43104 29.6679 5.41354C28.9212 5.39167 28.1731 5.39312 27.4264 5.41354C26.9 5.42812 26.4654 5.77521 26.4479 6.26812C26.41 7.38958 26.4362 8.5125 26.4362 9.64708H30.6858L30.6843 9.64854Z" fill="white"/>
</svg>
