<svg width="64" height="64" viewBox="0 0 64 64" fill="none" xmlns="http://www.w3.org/2000/svg">
<path d="M33.8838 59.9985C29.8562 58.93 25.8271 57.8645 21.801 56.7901C20.3655 56.4068 18.9345 56.0087 17.5034 55.6121C16.3799 55.2998 15.3059 55.4226 14.2769 55.9554C13.8583 56.1715 13.4608 56.4334 13.0273 56.614C12.2653 56.9307 11.7223 57.2977 11.7928 58.2804C11.8393 58.9374 11.3068 59.3415 10.6228 59.3281C7.5027 59.2675 4.38263 59.1964 1.26256 59.0928C0.373036 59.0632 -0.0229737 58.5749 0.00102689 57.6544C0.15103 52.152 0.313034 46.6497 0.469038 41.1474C0.502038 40.0049 0.521539 38.8624 0.55754 37.7199C0.590541 36.6914 1.01355 36.2903 2.06057 36.314C4.96764 36.3791 7.87471 36.4486 10.7833 36.5271C12.0823 36.5626 12.4453 36.9711 12.3943 38.2645C12.3778 38.7026 12.3913 39.1421 12.3913 39.5905C13.4098 39.2368 14.4089 38.8224 15.4439 38.5412C19.17 37.5305 22.8316 37.7894 26.2621 39.5402C28.4687 40.6664 30.7247 41.2303 33.1893 41.2169C35.3628 41.2051 37.5379 41.3353 39.7129 41.3723C42.6095 41.4212 44.8446 42.614 46.3956 45.0381C46.4451 45.115 46.5036 45.1875 46.5921 45.3059C47.2326 45.0114 47.8701 44.7214 48.5046 44.4269C51.0457 43.2444 53.5733 42.0338 56.1278 40.881C58.8144 39.6704 61.9659 40.5717 63.5905 42.9603C64.24 43.9148 64.1305 44.5053 63.1645 45.1209C56.2808 49.5148 49.4032 53.9161 42.5045 58.2863C41.0105 59.2319 39.2854 59.5916 37.5484 59.858C37.3189 59.8935 37.0924 59.9527 36.8644 60H33.8853L33.8838 59.9985ZM11.9788 54.3719C12.0718 54.3808 12.1258 54.4015 12.1603 54.3867C12.3523 54.2994 12.5488 54.215 12.7303 54.1085C14.5874 53.0133 16.5389 52.8565 18.5985 53.4558C20.862 54.1144 23.1346 54.7434 25.4101 55.3546C28.1867 56.099 30.9422 56.9692 33.7638 57.493C36.4159 57.9859 39.1069 57.6144 41.4245 56.1685C47.8116 52.1816 54.1313 48.0882 60.4779 44.0347C60.6609 43.9178 60.8364 43.7861 61.0644 43.6277C59.7894 42.648 58.5054 42.4334 57.1223 43.018C56.2553 43.3835 55.4093 43.8009 54.5558 44.2004C52.1677 45.3148 49.7812 46.4322 47.3706 47.5599C47.4066 47.8854 47.4516 48.1844 47.4711 48.4833C47.5581 49.7738 47.1186 50.237 45.8106 50.2074C43.424 50.1556 41.036 50.0949 38.6494 50.0298C36.4984 49.9706 34.3488 49.9144 32.1993 49.8286C31.3112 49.793 30.7787 49.1463 30.9617 48.4123C31.1192 47.7774 31.5738 47.4903 32.4378 47.5125C35.7693 47.5983 39.1024 47.6945 42.434 47.7774C43.2575 47.7981 44.0825 47.7804 44.9076 47.7804C44.6541 45.7174 42.5525 43.8749 40.2815 43.7639C38.7949 43.6914 37.3039 43.6692 35.8158 43.6233C34.0908 43.57 32.3628 43.5567 30.6422 43.4486C28.6667 43.3243 26.9431 42.4379 25.1806 41.6254C20.9895 39.6911 16.8554 39.9116 12.8233 42.1522C12.4258 42.3727 12.2653 42.6273 12.2548 43.0831C12.1663 46.7193 12.0523 50.3554 11.9473 53.993C11.9443 54.1233 11.9683 54.2535 11.9788 54.3778V54.3719ZM9.48574 56.8286C9.65075 50.8985 9.81725 44.9064 9.98826 38.8047H2.92159C2.75509 44.7613 2.58859 50.7358 2.41758 56.8286H9.48574Z" fill="white"/>
<path d="M32.7438 38.0602C23.2005 38.0602 15.4574 30.4313 15.4589 21.0309C15.4589 11.6408 23.22 3.99852 32.7513 4C42.2945 4 50.0347 11.6304 50.0347 21.0353C50.0347 30.4357 42.29 38.0602 32.7438 38.0602ZM32.7693 35.7249C41.0224 35.7013 47.6736 29.0979 47.6421 20.9583C47.6106 12.8899 40.9549 6.35603 32.7618 6.35159C24.5131 6.34715 17.8349 12.9402 17.8499 21.0738C17.8649 29.163 24.5701 35.7501 32.7678 35.7249H32.7693Z" fill="white"/>
<path d="M33.5256 20.1627C33.436 20.1627 33.3521 20.1627 33.2682 20.1627C31.4182 20.1627 29.5681 20.1656 27.7187 20.161C26.9523 20.1593 26.5151 19.6285 26.7164 18.9644C26.823 18.6128 27.1276 18.3792 27.5301 18.3466C27.6398 18.3374 27.7502 18.338 27.8606 18.338C29.6633 18.338 31.4661 18.338 33.2689 18.338H33.5565C33.5155 18.2373 33.4959 18.1617 33.4562 18.0958C32.8746 17.1305 32.0231 16.5282 30.7729 16.5065C29.758 16.4887 28.7418 16.5048 27.7262 16.5013C26.9548 16.499 26.5057 15.9551 26.7201 15.287C26.8242 14.9629 27.0652 14.7631 27.4285 14.6984C27.566 14.6738 27.7098 14.668 27.8505 14.668C31.432 14.6663 35.0142 14.6669 38.5958 14.6669C38.6746 14.6669 38.7534 14.6652 38.8317 14.6715C39.4473 14.719 39.7917 15.0803 39.7665 15.6488C39.7431 16.1618 39.3565 16.499 38.7654 16.5013C37.5215 16.5059 36.2777 16.503 35.0338 16.503C34.9492 16.503 34.8653 16.503 34.7474 16.503C34.8597 16.6805 34.9719 16.8259 35.0489 16.9857C35.235 17.3704 35.4173 17.758 35.5737 18.1531C35.6286 18.2905 35.6797 18.3437 35.8456 18.3426C36.8138 18.3352 37.7821 18.334 38.7503 18.3409C39.4795 18.346 39.9078 18.8527 39.7444 19.4968C39.6403 19.9073 39.2865 20.1581 38.7736 20.1616C37.8287 20.1679 36.8845 20.1713 35.9396 20.1587C35.7087 20.1558 35.6223 20.2165 35.5661 20.4232C35.1057 22.1282 33.1433 23.8653 30.6921 23.8355C30.5199 23.8332 30.3471 23.8355 30.1137 23.8355C30.2052 23.9237 30.2588 23.9781 30.3162 24.0296C31.6686 25.2594 33.0222 26.4881 34.3733 27.7196C34.7979 28.1067 34.8496 28.5647 34.5254 28.9546C34.1475 29.4086 33.4915 29.4642 33.0411 29.0685C32.6166 28.6958 32.2047 28.3111 31.7872 27.9315C30.2008 26.4893 28.615 25.0465 27.0273 23.6059C26.7176 23.3248 26.5763 23.0128 26.7403 22.6172C26.9182 22.1889 27.1907 22.0028 27.6991 22.0011C28.7147 21.9971 29.7302 22.0103 30.7458 21.9971C31.9953 21.9805 32.8525 21.3874 33.443 20.4261C33.477 20.3705 33.4991 20.3087 33.5231 20.248C33.53 20.2297 33.5243 20.2074 33.5243 20.1638L33.5256 20.1627Z" fill="white"/>
</svg>
