<svg width="64" height="64" viewBox="0 0 64 64" fill="none" xmlns="http://www.w3.org/2000/svg">
<path d="M7.53834 39.0833C7.64501 38.8817 7.71168 38.6383 7.86501 38.4833C11.8567 34.4583 15.855 30.4433 19.855 26.4283C21.36 24.9167 22.8767 24.9617 24.3183 26.545C27.8267 30.395 31.3417 34.24 34.8517 38.0883C34.95 38.195 35.03 38.3183 35.2467 38.5983C35.4283 38.3233 35.53 38.1133 35.6833 37.9517C37.4617 36.05 39.245 34.1517 41.0333 32.2567C42.3467 30.865 43.885 30.8367 45.2333 32.1733C47.4967 34.4183 49.7583 36.665 52.015 38.9167C52.175 39.0767 52.2883 39.285 52.4233 39.47C52.4767 39.4367 52.5317 39.405 52.585 39.3717C52.6 39.2217 52.63 39.0717 52.63 38.9217C52.6333 37.15 52.63 35.38 52.6333 33.6083C52.635 32.6117 53.155 31.9917 53.97 31.9983C54.7683 32.005 55.2817 32.6067 55.2833 33.5683C55.2867 40.11 55.2917 46.6533 55.2817 53.195C55.2783 55.6283 53.595 57.335 51.1517 57.3367C37.0233 57.3483 22.895 57.3483 8.76501 57.3367C6.30168 57.335 4.61834 55.6083 4.61834 53.1417C4.61501 39.0367 4.61501 24.9317 4.61834 10.825C4.61834 8.365 6.31168 6.65167 8.78501 6.65C23.2683 6.64 37.75 6.645 52.2333 6.65C52.48 6.65 52.74 6.67 52.9717 6.745C53.55 6.93333 53.8433 7.37 53.875 7.965C53.905 8.53833 53.5217 9.08667 52.9583 9.235C52.6417 9.31833 52.3 9.33 51.97 9.33C37.7167 9.335 23.4633 9.33333 9.20834 9.33333C7.62668 9.33333 7.26668 9.69667 7.26668 11.2883C7.26668 20.2683 7.26668 29.2483 7.26668 38.2283V38.8883C7.35668 38.9533 7.44668 39.0183 7.53668 39.0833H7.53834ZM22.0683 28.02C21.9667 28.1033 21.8967 28.15 21.84 28.2083C17.08 32.995 12.3183 37.7783 7.57334 42.58C7.38501 42.77 7.28334 43.125 7.28001 43.405C7.26001 46.55 7.26668 49.6967 7.26834 52.8417C7.26834 54.2483 7.67834 54.655 9.10001 54.655C23.0383 54.655 36.9783 54.655 50.9167 54.655C52.2933 54.655 52.71 54.2433 52.7117 52.8733C52.7133 49.8733 52.7233 46.8733 52.6967 43.875C52.6933 43.565 52.5433 43.18 52.3283 42.9617C49.4583 40.0567 46.565 37.175 43.6767 34.2883C43.535 34.1467 43.3817 34.0167 43.22 33.8683C41.1483 36.0717 39.115 38.235 37.0717 40.4067C37.2483 40.605 37.3717 40.7467 37.4967 40.8833C38.55 42.0367 39.605 43.19 40.66 44.3417C41.0317 44.7483 41.2 45.2683 40.9333 45.7183C40.7133 46.0867 40.2917 46.43 39.885 46.5717C39.3467 46.7583 38.9117 46.3767 38.5417 45.9733C35.94 43.13 33.3333 40.2917 30.7267 37.4517C27.8533 34.3217 24.98 31.1917 22.0683 28.02Z" fill="white"/>
<path d="M56.7466 19.0167C56.7466 17.6217 56.7399 16.225 56.7483 14.83C56.7533 13.9017 57.2566 13.345 58.0633 13.3417C58.8666 13.34 59.3916 13.9083 59.3949 14.8183C59.4016 17.5683 59.4216 20.3167 59.3883 23.0667C59.3549 25.9217 57.8583 28.2167 55.5266 29.0983C52.0183 30.4233 48.2849 28.2317 47.6416 24.455C47.5416 23.8633 47.4999 23.255 47.4949 22.655C47.4766 20.5933 47.5149 18.53 47.4799 16.47C47.4533 14.875 48.1966 13.75 49.5333 13.0233C50.9066 12.2783 52.3183 12.3567 53.6183 13.225C54.7383 13.9733 55.3599 15.03 55.3449 16.43C55.3233 18.555 55.3449 20.6783 55.3366 22.8033C55.3333 23.7117 54.9233 24.2617 54.2166 24.3667C53.3299 24.4983 52.6666 23.8733 52.6616 22.8617C52.6516 20.6333 52.6616 18.405 52.6566 16.175C52.6549 15.1883 51.7149 14.5867 50.8399 15.0183C50.4033 15.2333 50.1366 15.5683 50.1383 16.1C50.1483 18.5367 50.1249 20.9733 50.1466 23.41C50.1616 25.1333 51.5099 26.6217 53.1983 26.8483C54.6033 27.0367 56.2866 25.7133 56.6349 24.13C56.7066 23.8083 56.7383 23.4717 56.7416 23.14C56.7533 21.765 56.7466 20.39 56.7466 19.0167Z" fill="white"/>
</svg>
