<svg width="64" height="64" viewBox="0 0 64 64" fill="none" xmlns="http://www.w3.org/2000/svg">
<path d="M53.9988 26.0007C53.9988 32.9529 54.0027 39.9052 53.9969 46.8555C53.9949 49.4776 52.4689 51.3609 50.009 51.7931C49.6328 51.8598 49.2431 51.8579 48.8592 51.8579C42.3845 51.8617 35.9079 51.8693 29.4332 51.8465C28.8756 51.8446 28.6518 52.0045 28.4917 52.5282C27.6197 55.3997 25.9296 57.7209 23.5257 59.5375C22.783 60.0974 22.1405 60.0879 21.6833 59.5223C21.2048 58.9301 21.3688 58.315 22.1501 57.719C25.0479 55.5063 26.6357 52.5967 26.7399 48.973C26.8499 45.1951 28.0923 41.8056 30.1027 38.6484C30.8339 37.5021 31.5959 36.3729 32.3213 35.2227C33.1683 33.8803 33.7278 32.4578 33.3863 30.8298C33.3381 30.5974 33.2725 30.3651 33.1818 30.148C32.7226 29.0665 31.6442 28.916 30.9245 29.8548C29.3097 31.9589 27.7161 34.0783 26.1129 36.192C23.8035 39.2387 21.4942 42.2854 19.1829 45.3303C19.0826 45.4636 18.9842 45.6007 18.8723 45.7244C18.4093 46.231 17.7572 46.3186 17.2594 45.9472C16.7559 45.5702 16.6478 44.9304 17.0433 44.361C17.4639 43.7536 17.9289 43.1728 18.3745 42.5825C19.4414 41.1734 20.4929 39.751 21.5887 38.3628C21.9553 37.9001 22.0845 37.4354 22.0826 36.8604C22.0691 26.2654 22.0826 15.6704 22.0633 5.07728C22.0614 3.59581 22.4473 2.30666 23.5527 1.27839C24.4499 0.446252 25.5225 0.00828474 26.7554 0.00828474C34.2661 0.00257212 41.7768 -0.00885302 49.2855 0.0120932C52.0097 0.0197101 53.9834 2.10291 53.9911 4.93256C54.0046 10.0758 53.9949 15.2172 53.9949 20.3604C53.9949 22.2418 53.9949 24.1212 53.9949 26.0026L53.9988 26.0007ZM29.0512 49.5062C29.1824 49.5424 29.2268 49.5671 29.2711 49.5671C35.9619 49.5709 42.6527 49.5843 49.3434 49.5481C49.847 49.5462 50.4142 49.2625 50.8386 48.9578C51.5853 48.4227 51.6914 47.581 51.6914 46.7146C51.6856 32.8844 51.6875 19.0541 51.6875 5.22581C51.6875 5.01254 51.6952 4.79546 51.6759 4.58409C51.5544 3.21687 50.5859 2.31428 49.2007 2.29523C48.045 2.28 46.8894 2.31428 45.7357 2.28C45.3189 2.26667 45.1414 2.44186 44.9813 2.777C44.6012 3.57296 44.1768 4.34606 43.8006 5.14202C43.5208 5.73233 43.0675 5.98368 42.425 5.98178C39.4886 5.97606 36.5523 5.97606 33.6159 5.98178C32.9696 5.98178 32.522 5.71709 32.2422 5.13441C31.8815 4.38224 31.4667 3.65674 31.1271 2.89696C30.9265 2.44757 30.6776 2.25334 30.1567 2.2781C29.1727 2.3257 28.183 2.29143 27.1972 2.29143C25.2794 2.29333 24.39 3.17879 24.39 5.09823C24.39 14.644 24.39 24.1879 24.39 33.7337C24.39 33.9603 24.4093 34.185 24.4267 34.5525C24.664 34.2649 24.8145 34.0936 24.9534 33.9127C26.356 32.0675 27.7431 30.2109 29.1631 28.3809C30.0486 27.2403 31.2602 26.7871 32.6763 27.0613C34.0654 27.3317 34.9895 28.1924 35.3889 29.5425C36.1452 32.1018 35.7053 34.4477 34.1889 36.6642C32.9908 38.4142 31.8583 40.2156 30.8416 42.0741C29.5895 44.3667 29.03 46.8651 29.0531 49.5081L29.0512 49.5062ZM33.4982 2.31809C33.7953 3.23464 34.3837 3.69292 35.2635 3.69292C37.1118 3.69292 38.96 3.69292 40.8083 3.69292C42.1144 3.69292 42.126 3.6834 42.5388 2.31809H33.4982Z" fill="white"/>
<path d="M9.00201 53.1547C9.00201 50.2755 9.00973 47.3963 9.00008 44.5172C8.99236 42.3959 9.53064 40.4403 10.6496 38.6199C12.8606 35.0247 15.033 31.4067 17.2246 27.8002C17.3597 27.5774 17.4967 27.3432 17.6819 27.1642C18.0947 26.7681 18.5886 26.7224 19.069 27.0232C19.5417 27.3203 19.7404 27.7678 19.5456 28.3162C19.4587 28.5599 19.3218 28.7884 19.1867 29.0112C17.0356 32.5588 14.8998 36.1158 12.7178 39.6443C11.759 41.1943 11.3017 42.8396 11.3075 44.6505C11.3268 50.504 11.3152 56.3575 11.3133 62.2111C11.3133 62.4719 11.3249 62.7366 11.2921 62.9956C11.2168 63.5992 10.8348 63.9439 10.2425 63.9858C9.64253 64.0277 9.22774 63.7173 9.07147 63.1384C9.00394 62.8909 9.00394 62.6205 9.00394 62.3615C9.00008 59.2919 9.00201 56.2223 9.00201 53.1528V53.1547Z" fill="white"/>
<path d="M31.4261 61.4951C31.5747 60.4401 31.5245 59.3014 31.9239 58.3474C32.4641 57.0507 33.313 55.872 34.0982 54.6856C34.4262 54.1886 34.9973 54.1429 35.5143 54.4667C36.0256 54.7866 36.2108 55.2912 35.9638 55.8301C35.6957 56.4089 35.3657 56.9745 34.978 57.481C34.1619 58.5531 33.7394 59.7146 33.8513 61.0685C33.8995 61.6588 33.8763 62.2587 33.8474 62.8528C33.8165 63.5116 33.3844 63.9572 32.7902 63.9972C32.1747 64.0391 31.6422 63.6049 31.5728 62.9327C31.5245 62.4624 31.5631 61.9826 31.5631 61.5065C31.5188 61.5027 31.4725 61.497 31.4281 61.4932L31.4261 61.4951Z" fill="white"/>
<path d="M31.2486 23.1463C30.3843 23.1463 29.5181 23.1558 28.6537 23.1444C27.7624 23.131 27.3302 22.7083 27.3225 21.8209C27.309 20.1091 27.311 18.3991 27.3225 16.6872C27.3283 15.7941 27.7431 15.3676 28.646 15.3581C30.3997 15.339 32.1554 15.339 33.9091 15.3581C34.7734 15.3676 35.1959 15.7846 35.2075 16.6434C35.2307 18.3781 35.2307 20.1129 35.2075 21.8476C35.1959 22.7311 34.7484 23.131 33.8435 23.1425C32.9792 23.152 32.1129 23.1444 31.2486 23.1444V23.1463ZM29.6666 17.6736V20.8231H32.848V17.6736H29.6666Z" fill="white"/>
<path d="M48.7086 19.2484C48.7086 20.1034 48.7183 20.9602 48.7067 21.8152C48.6951 22.7178 48.29 23.1368 47.3948 23.1425C45.6411 23.1539 43.8874 23.1558 42.1336 23.1425C41.2809 23.1348 40.8642 22.7159 40.8564 21.8552C40.841 20.1205 40.8429 18.3858 40.8564 16.651C40.8642 15.7827 41.2597 15.3714 42.1298 15.36C43.9066 15.339 45.6854 15.339 47.4623 15.36C48.29 15.3714 48.6893 15.7922 48.7048 16.6091C48.7202 17.4889 48.7086 18.3667 48.7086 19.2465V19.2484ZM46.3626 17.6812H43.214V20.8231H46.3626V17.6812Z" fill="white"/>
<path d="M48.7067 32.6711C48.7067 33.5261 48.7183 34.383 48.7028 35.238C48.6893 36.0568 48.3015 36.4986 47.4777 36.5138C45.6758 36.5462 43.8738 36.5462 42.0719 36.5138C41.2519 36.4986 40.8603 36.0587 40.8545 35.2342C40.841 33.4766 40.8391 31.7171 40.8545 29.9576C40.8622 29.1445 41.2886 28.7313 42.1105 28.7237C43.8893 28.7085 45.6661 28.7085 47.4449 28.7237C48.2629 28.7313 48.6835 29.1541 48.699 29.9614C48.7163 30.864 48.7028 31.7666 48.7028 32.6711H48.7067ZM46.3665 31.043H43.2179V34.1812H46.3665V31.043Z" fill="white"/>
<path d="M39.1684 27.0842C39.1684 28.7523 39.1684 30.3156 39.1684 31.8809C39.1684 32.6406 39.1857 33.4023 39.1607 34.1621C39.1375 34.8495 38.6725 35.2951 38.032 35.3008C37.3934 35.3065 36.9323 34.8686 36.8648 34.1869C36.8532 34.0688 36.859 33.9488 36.859 33.8308C36.859 31.3115 36.8552 28.7922 36.859 26.273C36.8609 25.1952 37.2449 24.8068 38.3311 24.8048C40.9259 24.7972 43.5228 24.7972 46.1177 24.8048C46.9916 24.8068 47.501 25.2181 47.528 25.896C47.553 26.5967 47.0167 27.0747 46.1292 27.0823C44.1344 27.0975 42.1395 27.088 40.1446 27.088C39.8591 27.088 39.5735 27.088 39.1703 27.088L39.1684 27.0842Z" fill="white"/>
<path d="M39.1684 19.2827C39.1684 20.1605 39.1819 21.0383 39.1645 21.9162C39.151 22.6512 38.6938 23.1291 38.0417 23.1406C37.3954 23.152 36.8783 22.674 36.8687 21.9562C36.8455 20.1529 36.8455 18.3496 36.8687 16.5444C36.8783 15.8284 37.3915 15.3467 38.0378 15.3543C38.688 15.3619 39.151 15.8456 39.1645 16.5749C39.1819 17.4756 39.1684 18.3782 39.1684 19.2807V19.2827Z" fill="white"/>
</svg>
