<svg width="64" height="64" viewBox="0 0 64 64" fill="none" xmlns="http://www.w3.org/2000/svg">
<g clip-path="url(#clip0_9_295)">
<path d="M0 30.6217C0.161667 29.47 0.268333 28.3083 0.491667 27.17C2.415 17.2917 7.89333 10.0533 16.7717 5.37C17.7183 4.87 18.72 4.475 19.7933 3.98667C19.05 3.615 18.3667 3.285 17.6933 2.93167C17.065 2.60167 16.8667 1.98833 17.2217 1.48333C17.545 1.02167 18 0.930001 18.49 1.16833C19.9683 1.88667 21.4433 2.61 22.905 3.36C23.5033 3.66667 23.6467 4.19333 23.3067 4.78C22.495 6.18667 21.67 7.58334 20.8267 8.97167C20.4967 9.515 19.9583 9.65167 19.4883 9.38333C18.99 9.09833 18.8583 8.55167 19.1817 7.975C19.5367 7.34167 19.915 6.72 20.2183 5.97167C19.9867 6.06 19.75 6.13833 19.5233 6.23833C9.765 10.6033 3.93333 18.0233 2.23667 28.6017C1.595 32.6033 1.94667 36.5733 3.07 40.47C3.105 40.59 3.13667 40.71 3.16833 40.8317C3.35167 41.5167 3.13167 42.0267 2.575 42.205C2.03 42.38 1.465 42.075 1.325 41.4017C0.896667 39.3483 0.52 37.285 0.126667 35.225C0.0716667 34.9417 0.0416667 34.655 0 34.3717C0 33.1217 0 31.8717 0 30.6217Z" fill="white"/>
<path d="M64 37.3717C63.7283 37.62 63.48 37.9033 63.18 38.1117C62.015 38.915 60.835 39.6983 59.6567 40.4817C58.8733 41.0017 58.36 40.89 57.905 40.0933C57.16 38.7933 56.4233 37.4883 55.69 36.1817C55.2983 35.485 55.4033 34.92 55.9633 34.6233C56.4933 34.3433 56.98 34.5517 57.3783 35.2367C57.7217 35.8267 58.0583 36.42 58.5517 37.0033C58.6567 35.9217 58.8183 34.8417 58.86 33.7567C59.3183 21.8917 52.6833 11.235 41.8167 6.455C40.3033 5.78834 38.6733 5.38667 37.0967 4.86334C36.8617 4.785 36.6033 4.745 36.395 4.62C35.965 4.36167 35.835 3.95 36.0067 3.485C36.1917 2.985 36.5983 2.77667 37.105 2.88334C37.8167 3.03334 38.53 3.19667 39.2183 3.42834C50.8967 7.37834 58.0133 15.365 60.3833 27.4917C61.02 30.7483 60.9583 34.0367 60.4217 37.3133C60.41 37.3883 60.4217 37.4683 60.4217 37.6217C61.055 37.1983 61.64 36.8033 62.2283 36.415C63.0267 35.8883 63.4383 35.965 64.0067 36.745V37.37L64 37.3717Z" fill="white"/>
<path d="M45.4416 26.25C46.0382 26.25 46.5366 26.25 47.0332 26.25C48.7582 26.2567 49.6216 27.365 49.2082 29.0483C48.0866 33.6117 46.9632 38.175 45.8399 42.7367C45.7699 43.02 45.7016 43.3017 45.6249 43.5833C45.3466 44.61 44.6649 45.165 43.6049 45.2117C43.1682 45.23 42.7299 45.2167 42.2932 45.2167C33.5882 45.2167 24.8832 45.2167 16.1782 45.2167C14.9032 45.2167 14.6499 44.96 14.6499 43.6733C14.6499 36.2583 14.6499 28.845 14.6499 21.43C14.6499 19.5583 15.4332 18.7767 17.3099 18.7767C20.0166 18.7767 22.7249 18.7883 25.4316 18.77C26.5349 18.7617 27.4632 19.105 28.2332 19.905C28.7682 20.46 29.3516 20.9667 29.8832 21.5233C30.2999 21.96 30.7699 22.1417 31.3799 22.1383C35.2332 22.12 39.0849 22.1283 42.9382 22.13C44.6032 22.13 45.4299 22.95 45.4432 24.6167C45.4466 25.135 45.4432 25.6533 45.4432 26.25H45.4416ZM47.4032 28.2333C47.1782 28.22 47.0566 28.205 46.9332 28.205C38.3349 28.205 29.7349 28.2067 21.1366 28.195C20.7099 28.195 20.5782 28.36 20.4849 28.7433C19.7482 31.7733 18.9899 34.7983 18.2366 37.8233C17.7916 39.6133 17.3432 41.4033 16.8899 43.2217C17.0682 43.2367 17.1899 43.255 17.3132 43.255C25.9332 43.255 34.5532 43.255 43.1732 43.265C43.5682 43.265 43.6982 43.1333 43.7882 42.7617C44.4666 39.975 45.1732 37.1933 45.8682 34.41C46.3766 32.375 46.8799 30.34 47.4016 28.2333H47.4032ZM16.6166 35.6817C16.6532 35.695 16.6899 35.7067 16.7266 35.72C16.7766 35.5267 16.8299 35.3333 16.8782 35.14C17.4466 32.8383 18.0116 30.5367 18.5832 28.2367C18.9666 26.695 19.5399 26.2517 21.1299 26.2517C28.3349 26.2517 35.5399 26.2517 42.7449 26.2517C42.9866 26.2517 43.2266 26.2517 43.5049 26.2517C43.5049 25.7117 43.4649 25.2517 43.5149 24.8017C43.5816 24.205 43.3399 24.0767 42.7816 24.08C38.9916 24.1017 35.2016 24.0817 31.4116 24.0967C30.2866 24.1017 29.3399 23.7567 28.5549 22.9367C28.0082 22.365 27.4149 21.8383 26.8599 21.275C26.4866 20.895 26.0649 20.7267 25.5249 20.73C22.9632 20.7483 20.4016 20.7383 17.8416 20.7383C17.0249 20.7383 16.6166 21.1394 16.6166 21.9417C16.6166 26.5217 16.6166 31.1033 16.6166 35.6833V35.6817Z" fill="white"/>
<path d="M11.0133 55.9567C11.065 56.795 11.1167 57.5333 11.155 58.2717C11.1917 58.9833 10.8583 59.4417 10.285 59.4883C9.69332 59.5367 9.28665 59.1017 9.23499 58.3617C9.12832 56.845 9.02332 55.3283 8.91832 53.8117C8.85999 52.9767 9.22832 52.5467 10.07 52.5467C11.6317 52.5467 13.195 52.565 14.7567 52.5933C15.4283 52.605 15.8433 52.9867 15.8533 53.5417C15.8633 54.1167 15.4183 54.5 14.7167 54.5083C13.9917 54.5167 13.2667 54.5083 12.4617 54.645C13.4167 55.3183 14.3433 56.0383 15.3317 56.6567C20.8567 60.11 26.8883 61.5217 33.3533 60.8383C40.255 60.1083 46.135 57.1867 50.98 52.205C51.11 52.07 51.2317 51.925 51.3717 51.8017C51.795 51.4333 52.2417 51.4233 52.6717 51.7767C53.08 52.1117 53.1083 52.6583 52.765 53.1217C52.69 53.2217 52.6017 53.3117 52.5167 53.4017C47.305 58.8183 40.975 62.01 33.4933 62.7567C25.3083 63.575 17.96 61.3867 11.485 56.2983C11.36 56.2 11.2267 56.1117 11.015 55.9583L11.0133 55.9567Z" fill="white"/>
<path d="M33.9933 41.1133C32.1849 41.1133 30.3749 41.1133 28.5666 41.1133C28.3999 41.1133 28.2316 41.1267 28.0683 41.1033C27.5233 41.025 27.1816 40.7017 27.1716 40.155C27.1616 39.6067 27.4866 39.2433 28.0349 39.1867C28.5499 39.1333 29.0733 39.1567 29.5916 39.155C32.8349 39.1533 36.0783 39.155 39.3233 39.155C39.5099 39.155 39.6983 39.1467 39.8849 39.1617C40.5483 39.215 40.9233 39.5967 40.8999 40.1833C40.8783 40.735 40.4916 41.095 39.8583 41.11C39.0899 41.1267 38.3199 41.115 37.5499 41.115C36.3649 41.115 35.1799 41.115 33.9949 41.115L33.9933 41.1133Z" fill="white"/>
<path d="M36.9284 34.7517C38.3 34.7517 39.6717 34.7483 41.0434 34.7517C41.8267 34.755 42.2434 35.0817 42.2617 35.69C42.2817 36.33 41.8567 36.6983 41.0484 36.7C38.305 36.7067 35.5617 36.7067 32.8167 36.7C32.005 36.6983 31.5817 36.335 31.5984 35.6933C31.6134 35.0867 32.035 34.7533 32.8117 34.75C34.1834 34.745 35.555 34.75 36.9267 34.75L36.9284 34.7517Z" fill="white"/>
</g>
<defs>
<clipPath id="clip0_9_295">
<rect width="64" height="64" fill="white"/>
</clipPath>
</defs>
</svg>
