<svg width="64" height="64" viewBox="0 0 64 64" fill="none" xmlns="http://www.w3.org/2000/svg">
<path d="M18.5123 64C17.6523 63.66 16.7207 63.4333 15.944 62.9567C13.9808 61.7517 12.9308 59.9301 12.8875 57.6185C12.8375 54.8286 12.8708 52.037 12.8691 49.2454C12.8691 49.0204 12.8691 48.7954 12.8691 48.5337H6.45429C6.59095 48.7004 6.69095 48.8421 6.81094 48.9671C7.78925 49.9904 8.77422 51.0087 9.7492 52.0353C10.2542 52.567 10.2875 53.1619 9.86086 53.5786C9.41754 54.0103 8.84756 53.9669 8.3259 53.4269C6.68928 51.7353 5.05932 50.0387 3.43436 48.3354C2.85438 47.7271 2.85605 47.2588 3.43436 46.6521C5.05932 44.9505 6.69095 43.2522 8.3259 41.5606C8.83922 41.0289 9.42254 40.9839 9.86086 41.4106C10.2892 41.8272 10.2559 42.4239 9.75253 42.9539C8.66589 44.0989 7.57092 45.2338 6.40762 46.4488H12.8708C12.8708 46.2055 12.8708 45.9438 12.8708 45.6838C12.8708 32.7491 12.8708 19.8161 12.8708 6.88149C12.8708 3.71157 14.5524 1.28497 17.3923 0.331658C17.7607 0.208328 18.139 0.109997 18.5123 0C27.2621 0 36.0135 0 44.7633 0C45.1166 0.101664 45.4733 0.196662 45.8249 0.308325C48.4849 1.14497 50.3515 3.58657 50.3898 6.3815C50.4281 9.17143 50.4031 11.9614 50.4048 14.7513C50.4048 14.9763 50.4048 15.2013 50.4048 15.4613H56.8146C56.7046 15.3179 56.623 15.1896 56.5197 15.0829C55.528 14.0446 54.5297 13.0113 53.5381 11.9714C53.0297 11.438 52.9847 10.8514 53.4031 10.4297C53.8514 9.97974 54.433 10.0331 54.9814 10.6014C56.6013 12.2797 58.2179 13.9596 59.8279 15.6479C60.4312 16.2796 60.4245 16.7346 59.8112 17.3762C58.2146 19.0478 56.613 20.7128 55.008 22.3777C54.4464 22.9594 53.8897 23.0311 53.4297 22.6027C52.9681 22.1728 53.0281 21.5661 53.5964 20.9711C54.5314 19.9928 55.4713 19.0178 56.4063 18.0395C56.543 17.8962 56.6696 17.7429 56.858 17.5329H50.4048C50.4048 17.8029 50.4048 18.0662 50.4048 18.3279C50.4048 31.2792 50.4065 44.2305 50.4031 57.1818C50.4031 60.3018 48.6249 62.8134 45.8249 63.6917C45.4733 63.8017 45.1183 63.8983 44.765 64H18.5123ZM14.8691 48.4954C14.8691 51.417 14.8657 54.2486 14.8691 57.0802C14.8724 60.1101 16.7557 61.9984 19.7739 62.0001C27.6904 62.0017 35.6069 62.0017 43.5233 62.0001C46.5032 62.0001 48.4049 60.1018 48.4049 57.1202C48.4082 44.1422 48.4049 31.1659 48.4049 18.1879C48.4049 17.9695 48.4049 17.7512 48.4049 17.5029H47.6266C43.8566 17.5029 40.0851 17.5029 36.3152 17.5029C36.1285 17.5029 35.9352 17.5212 35.7535 17.4895C35.2169 17.3929 34.8919 17.0746 34.8869 16.5129C34.8819 15.9496 35.2052 15.6279 35.7402 15.5246C35.9419 15.4863 36.1552 15.5046 36.3635 15.5046C40.1334 15.5046 43.905 15.5046 47.6749 15.5046C47.8982 15.5046 48.1215 15.5046 48.4049 15.5046V14.7696C48.4049 12.1663 48.4065 9.56142 48.4049 6.95815C48.4015 3.88323 46.5332 2.00495 43.4717 2.00495C35.5769 2.00495 27.6804 2.00495 19.7856 2.00495C16.7607 2.00495 14.8707 3.88656 14.8707 6.91149C14.8691 19.8678 14.8707 32.8241 14.8707 45.7821C14.8707 46.0038 14.8707 46.2255 14.8707 46.5005C15.1724 46.5005 15.3974 46.5005 15.6207 46.5005C19.3906 46.5005 23.1622 46.5005 26.9321 46.5005C27.1404 46.5005 27.3537 46.4805 27.5554 46.5205C28.0637 46.6205 28.3704 46.9338 28.3887 47.4638C28.407 47.9954 28.1171 48.3304 27.6204 48.4621C27.4054 48.5187 27.1654 48.4987 26.9371 48.4987C23.1672 48.5004 19.3956 48.4987 15.6257 48.4987H14.8691V48.4954Z" fill="white"/>
<path d="M31.8123 43.7489C25.8658 43.7455 21.0592 38.9323 21.0609 32.9825C21.0609 27.036 25.8758 22.2294 31.8273 22.2311C37.7738 22.2328 42.582 27.0476 42.5804 32.9975C42.5804 38.939 37.7571 43.7522 31.8123 43.7489ZM31.8173 41.7506C36.6722 41.7506 40.5871 37.8307 40.5804 32.9775C40.5737 28.151 36.6722 24.2411 31.8523 24.2327C26.9858 24.2244 23.0659 28.121 23.0592 32.9742C23.0525 37.8324 26.9624 41.7523 31.8173 41.7523V41.7506Z" fill="white"/>
<path d="M32.3433 32.414C32.2822 32.414 32.225 32.414 32.1678 32.414C30.9064 32.414 29.645 32.416 28.384 32.4129C27.8615 32.4117 27.5635 32.0498 27.7007 31.597C27.7733 31.3573 27.9811 31.198 28.2555 31.1758C28.3303 31.1695 28.4056 31.1699 28.4808 31.1699C29.71 31.1699 30.9391 31.1699 32.1683 31.1699H32.3644C32.3364 31.1012 32.3231 31.0497 32.296 31.0048C31.8995 30.3466 31.3189 29.936 30.4665 29.9211C29.7745 29.909 29.0816 29.92 28.3892 29.9176C27.8632 29.9161 27.557 29.5452 27.7032 29.0897C27.7742 28.8687 27.9385 28.7325 28.1862 28.6884C28.28 28.6716 28.378 28.6677 28.4739 28.6677C30.9159 28.6665 33.3583 28.6669 35.8002 28.6669C35.854 28.6669 35.9078 28.6657 35.9611 28.67C36.3808 28.7024 36.6157 28.9487 36.5985 29.3364C36.5825 29.6861 36.3189 29.9161 35.9159 29.9176C35.0678 29.9208 34.2197 29.9188 33.3716 29.9188C33.314 29.9188 33.2568 29.9188 33.1764 29.9188C33.2529 30.0398 33.3295 30.139 33.3819 30.2479C33.5088 30.5102 33.6331 30.7745 33.7398 31.0438C33.7772 31.1375 33.812 31.1738 33.9251 31.1731C34.5853 31.168 35.2454 31.1672 35.9056 31.1719C36.4028 31.1754 36.6948 31.5209 36.5834 31.96C36.5124 32.2399 36.2712 32.4109 35.9215 32.4132C35.2773 32.4175 34.6335 32.4199 33.9892 32.4113C33.8318 32.4093 33.7729 32.4507 33.7346 32.5916C33.4206 33.7542 32.0827 34.9385 30.4114 34.9182C30.294 34.9167 30.1762 34.9182 30.017 34.9182C30.0794 34.9784 30.116 35.0154 30.1551 35.0506C31.0772 35.8891 32.0001 36.7268 32.9213 37.5665C33.2108 37.8304 33.246 38.1427 33.025 38.4085C32.7674 38.7181 32.3201 38.7559 32.013 38.4862C31.7236 38.2321 31.4427 37.9697 31.158 37.7109C30.0764 36.7276 28.9952 35.7439 27.9127 34.7617C27.7015 34.57 27.6052 34.3573 27.717 34.0875C27.8383 33.7955 28.0241 33.6687 28.3707 33.6675C29.0631 33.6648 29.7556 33.6737 30.448 33.6648C31.2999 33.6534 31.8844 33.249 32.287 32.5936C32.3102 32.5557 32.3252 32.5136 32.3416 32.4722C32.3463 32.4597 32.3424 32.4445 32.3424 32.4148L32.3433 32.414Z" fill="white" stroke="white" stroke-width="0.4"/>
<path d="M31.829 8.63146C29.2907 8.63146 26.7524 8.63146 24.2142 8.63146C24.0058 8.63146 23.7925 8.64813 23.5908 8.6098C23.1358 8.52313 22.8475 8.24314 22.7942 7.77315C22.7375 7.28483 22.9259 6.90318 23.4008 6.73485C23.6292 6.65318 23.8892 6.63652 24.1342 6.63485C29.2524 6.62985 34.3706 6.62985 39.4904 6.63318C39.6971 6.63318 39.9121 6.62985 40.1087 6.68485C40.6421 6.83151 40.9087 7.20317 40.8487 7.75482C40.7921 8.27981 40.4687 8.58313 39.9454 8.61813C39.4904 8.6498 39.0304 8.6298 38.5721 8.6298C36.3255 8.6298 34.0772 8.6298 31.8306 8.6298L31.829 8.63146Z" fill="white"/>
<path d="M31.8557 57.3535C32.3124 57.3535 32.7707 57.3369 33.2273 57.3585C33.794 57.3852 34.1773 57.7719 34.199 58.2968C34.2207 58.8185 33.8707 59.2935 33.314 59.3202C32.319 59.3668 31.3191 59.3668 30.3241 59.3202C29.7658 59.2935 29.4224 58.8185 29.4474 58.2918C29.4724 57.7685 29.8541 57.3852 30.4241 57.3602C30.9007 57.3385 31.3807 57.3552 31.859 57.3552L31.8557 57.3535Z" fill="white"/>
</svg>
