<svg width="64" height="64" viewBox="0 0 64 64" fill="none" xmlns="http://www.w3.org/2000/svg">
<g clip-path="url(#clip0_9_305)">
<path d="M64 7.875C63.3367 9.06834 62.6733 10.2617 61.9783 11.51C62.0567 11.57 62.2133 11.69 62.3717 11.8083C63.165 12.405 63.2417 12.8217 62.6933 13.6433C59.14 18.9817 55.5867 24.3183 52.0333 29.655C49.91 32.8433 47.7817 36.0267 45.6767 39.2283C45.4867 39.5183 45.3683 39.9133 45.3667 40.2617C45.3483 46.9283 45.3533 53.595 45.3533 60.2617C45.3533 61.5117 45.0967 61.7733 43.8667 61.7733C29.7233 61.7733 15.5817 61.7717 1.43833 61.7833C0.833333 61.7833 0.331667 61.6867 0 61.14V2.87334C0.318333 2.40667 0.746667 2.24167 1.32333 2.24167C11.9667 2.255 22.6083 2.25167 33.2517 2.24167C33.7817 2.24167 34.2017 2.36334 34.59 2.755C37.995 6.18334 41.4217 9.59167 44.8233 13.0233C45.05 13.2517 45.2417 13.625 45.25 13.9367C45.3067 15.9967 45.3083 18.0583 45.3317 20.1183C45.3333 20.3467 45.3517 20.575 45.3683 20.965C45.5983 20.6317 45.72 20.4633 45.835 20.29C48.6 16.13 51.365 11.9667 54.1317 7.80834C54.6083 7.09167 55.0083 6.99834 55.76 7.41167C55.97 7.52667 56.17 7.66167 56.3933 7.79834C56.965 6.94834 57.4833 6.14167 58.035 5.36167C59.0567 3.91834 60.9883 3.55667 62.475 4.49167C63.2783 4.99667 63.6883 5.77 63.9983 6.62V7.87L64 7.875ZM1.98667 4.23334V59.79H43.3667V42.7583C43.1983 43.0067 43.1067 43.1333 43.0233 43.265C40.1683 47.72 36.3283 51.0267 31.49 53.1683C31.2467 53.2767 30.9817 53.35 30.72 53.3967C29.2083 53.6667 27.7417 53.4633 26.29 52.995C26.0167 52.9067 25.635 52.9317 25.3767 53.055C22.7317 54.3183 20.1117 54.3 17.5183 52.9467C17.1283 52.7433 16.9017 52.7383 16.545 53.0183C14.305 54.7667 11.7867 55.1983 9.06 54.4833C8.445 54.3217 8.13167 53.7967 8.28333 53.2617C8.43167 52.74 8.91167 52.4933 9.52 52.6167C9.90667 52.695 10.2933 52.7933 10.685 52.8283C12.4333 52.9883 14 52.5283 15.425 51.4317C15.305 51.295 15.2217 51.205 15.1433 51.1117C13.695 49.3833 13.0417 47.3967 13.2567 45.15C13.41 43.5567 14.5483 42.3783 15.9783 42.2567C17.2867 42.145 18.6233 43.155 18.9767 44.6817C19.17 45.5183 19.2683 46.43 19.1533 47.2717C18.98 48.555 18.5867 49.8067 18.2683 51.1483C19.9867 52.1083 21.8867 52.3083 23.7383 51.6833C23.255 50.87 22.6467 50.13 22.3417 49.28C21.705 47.51 22.5017 45.895 24.105 45.3833C26.4767 44.6283 28.5333 46.57 28.0633 49.1633C27.9333 49.88 27.625 50.5633 27.3667 51.3617C28.1483 51.4267 28.935 51.4933 29.7383 51.56C29.8667 46.57 31.255 42.125 33.9583 38.0917C37.0183 33.525 40.0667 28.95 43.1033 24.3683C43.2733 24.1117 43.3733 23.7583 43.375 23.4483C43.3967 20.8017 43.3883 18.155 43.385 15.51C43.385 15.3117 43.3667 15.1133 43.3567 14.8867C43.055 14.8867 42.8283 14.8867 42.6 14.8867C39.7467 14.8867 36.8917 14.8867 34.0383 14.8867C32.995 14.8867 32.705 14.6 32.705 13.5517C32.7017 10.6967 32.705 7.84167 32.705 4.98667C32.705 4.745 32.705 4.50167 32.705 4.23334H1.98667ZM58.8517 11.8067C56.5967 15.1967 54.3967 18.5083 52.1933 21.8183C52.055 22.0267 51.925 22.2433 51.7633 22.4317C51.425 22.8283 50.8783 22.9017 50.4717 22.625C50.0617 22.3467 49.935 21.8267 50.1817 21.3533C50.2867 21.1517 50.425 20.9667 50.5517 20.775C52.6383 17.6367 54.725 14.4983 56.81 11.3583C56.9433 11.1567 57.0683 10.9483 57.2133 10.7167C56.57 10.2883 55.985 9.89834 55.35 9.475C49.105 18.8633 42.8833 28.215 36.6283 37.6183C38.4317 38.8167 40.2067 39.9967 42.0067 41.1917C48.2733 31.775 54.4933 22.425 60.7317 13.05C60.075 12.615 59.4883 12.2267 58.85 11.8033L58.8517 11.8067ZM41.795 12.9433C39.4233 10.565 37.0433 8.17834 34.7 5.82667V12.9433H41.795ZM33.5633 42.6217C35.2783 43.7633 36.9017 44.845 38.6117 45.9817C39.405 44.9317 40.1767 43.9117 40.98 42.85C39.1267 41.6167 37.365 40.445 35.53 39.2233C34.87 40.3633 34.2383 41.4567 33.5633 42.62V42.6217ZM37.265 47.4183C35.7117 46.385 34.3317 45.4667 32.9 44.5133C32.2483 46.555 31.8867 48.5933 31.7933 50.6767C31.845 50.7283 31.8983 50.78 31.95 50.83C33.6883 49.7133 35.425 48.5983 37.265 47.4167V47.4183ZM60.25 10.395C60.8367 9.49 61.4383 8.66834 61.9267 7.78334C62.3683 6.98334 62.135 6.35 61.3933 5.94167C60.7883 5.60834 60.2233 5.71334 59.71 6.39167C59.1133 7.18 58.6 8.03167 58.0217 8.9C58.775 9.405 59.475 9.87667 60.25 10.3967V10.395ZM16.535 49.7283C17.0617 48.6417 17.2933 47.605 17.245 46.135C17.23 45.6567 17.085 45.1517 16.8733 44.7217C16.7517 44.4767 16.33 44.175 16.1233 44.225C15.8267 44.2967 15.45 44.6267 15.3733 44.9183C14.905 46.6833 15.3283 48.265 16.5367 49.73L16.535 49.7283ZM25.4317 50.34C25.5167 50.3267 25.6017 50.3133 25.6867 50.3C25.8583 49.7017 26.07 49.1117 26.1867 48.5033C26.2967 47.9283 26.0033 47.505 25.4817 47.2533C25.0583 47.0483 24.665 47.1083 24.3567 47.465C23.98 47.9017 23.89 48.4233 24.2167 48.8983C24.5717 49.4133 25.0217 49.8633 25.4317 50.3417V50.34Z" fill="white"/>
<path d="M22.6567 20.65C26.9867 20.65 31.315 20.65 35.645 20.65C35.8733 20.65 36.11 20.6333 36.3283 20.685C36.8067 20.795 37.0983 21.1167 37.105 21.6117C37.1117 22.105 36.8333 22.4317 36.3567 22.56C36.2 22.6017 36.0283 22.6033 35.8617 22.6033C27.0783 22.605 18.295 22.605 9.51165 22.6033C9.30665 22.6033 9.09165 22.5917 8.89832 22.5283C8.44832 22.3833 8.15499 22.0283 8.27165 21.5867C8.35832 21.2583 8.65999 20.9483 8.94165 20.7283C9.10499 20.6017 9.42165 20.6533 9.66832 20.6533C13.9983 20.65 18.3267 20.6517 22.6567 20.6517V20.65Z" fill="white"/>
<path d="M22.12 30.2967C17.9984 30.2967 13.875 30.2967 9.75338 30.2967C9.54504 30.2967 9.33504 30.3067 9.13004 30.28C8.59338 30.21 8.30504 29.8617 8.29504 29.3517C8.28504 28.8367 8.58338 28.4933 9.10338 28.3933C9.28504 28.3583 9.47671 28.3767 9.66338 28.3767C18.0117 28.3767 26.3617 28.3767 34.71 28.3767C34.8967 28.3767 35.0917 28.355 35.27 28.3983C35.7784 28.5217 36.0617 28.855 36.0367 29.3867C36.0134 29.885 35.7384 30.2017 35.2367 30.275C35.0117 30.3083 34.78 30.2967 34.5517 30.2967C30.4084 30.2967 26.265 30.2967 22.1217 30.2967H22.12Z" fill="white"/>
<path d="M19.6933 36.1C23.0433 36.1 26.3933 36.0933 29.745 36.11C30.08 36.1117 30.5017 36.1667 30.7217 36.3717C30.9317 36.5667 31.0633 37.0233 30.99 37.3C30.9167 37.5767 30.5733 37.82 30.2933 37.9867C30.1217 38.09 29.8467 38.0267 29.6183 38.0267C23.0217 38.0267 16.425 38.0267 9.82834 38.0267C9.70334 38.0267 9.57834 38.03 9.45334 38.0267C8.80501 38 8.38 37.615 8.38 37.055C8.38 36.4917 8.79667 36.1033 9.45501 36.1017C12.7017 36.095 15.9483 36.0983 19.1933 36.0983C19.36 36.0983 19.5267 36.0983 19.6933 36.0983V36.1Z" fill="white"/>
<path d="M17.4884 14.885C14.8017 14.885 12.115 14.89 9.42838 14.8817C8.54838 14.88 7.99338 14.17 8.40505 13.5183C8.58172 13.24 9.01172 13.015 9.35338 12.9717C10.03 12.8867 10.725 12.945 11.4117 12.945C16.0134 12.945 20.6167 12.945 25.2184 12.945C25.4467 12.945 25.6784 12.9383 25.9034 12.9683C26.4467 13.04 26.7717 13.4217 26.76 13.94C26.7484 14.445 26.3884 14.845 25.8567 14.8717C25.2334 14.9017 24.6084 14.8833 23.9834 14.8833C21.8184 14.8833 19.6517 14.8833 17.4867 14.8833L17.4884 14.885Z" fill="white"/>
</g>
<defs>
<clipPath id="clip0_9_305">
<rect width="64" height="64" fill="white"/>
</clipPath>
</defs>
</svg>
