<svg width="64" height="64" viewBox="0 0 64 64" fill="none" xmlns="http://www.w3.org/2000/svg">
<g clip-path="url(#clip0_8_103)">
<path d="M60 22.0469C59.895 22.5427 59.8192 23.0488 59.6792 23.5344C58.4615 27.7432 55.7052 30.2879 51.4031 31.1454C51.2777 31.1702 51.1523 31.1921 51.0283 31.2198C50.9773 31.2315 50.9277 31.2563 50.8329 31.2913C50.8329 31.4954 50.8329 31.7127 50.8329 31.9286C50.8329 37.6161 50.8388 43.305 50.83 48.9925C50.8256 51.1902 49.4621 52.8177 47.3519 53.1721C47.0135 53.229 46.6621 53.2246 46.3165 53.2246C33.7223 53.2275 21.1296 53.2261 8.53542 53.2261C6.10729 53.2261 4.7525 52.2067 4.07146 49.8719C4.05688 49.8209 4.02479 49.7742 4 49.7261C4 40.4627 4 31.2009 4 21.9375C4.03354 21.8763 4.08021 21.8179 4.09771 21.7523C4.64458 19.6975 6.14521 18.5396 8.28167 18.5382C18.541 18.5367 28.799 18.5323 39.0583 18.5513C39.6271 18.5513 39.8429 18.3982 40.0223 17.8425C41.4617 13.3552 45.9431 10.3817 50.55 10.8046C55.4296 11.2538 59.2548 14.8777 59.9038 19.6654C59.9183 19.769 59.9679 19.8667 60.0015 19.9688V22.0469H60ZM8.01042 20.7563C7.97104 20.8059 7.93167 20.8554 7.89229 20.905C8.02938 20.9867 8.18688 21.0465 8.30063 21.1544C14.341 26.8594 20.3771 32.5688 26.4146 38.2782C26.8579 38.6982 27.994 38.685 28.4475 38.2563C31.6398 35.2404 34.8306 32.2246 38.0215 29.2088C39.0131 28.2725 40.0019 27.3334 41.0052 26.3825C39.9392 24.634 39.4783 22.7498 39.49 20.7577H8.01042V20.7563ZM23.1552 38.2082C18.1415 42.4738 13.1642 46.7073 8.10667 51.0109H46.7408C41.6644 46.6927 36.6827 42.4548 31.6879 38.2082C31.3627 38.5144 31.09 38.7813 30.8085 39.0379C28.5044 41.1467 29.6083 40.7077 26.521 40.7267C26.1317 40.7296 25.6708 40.5211 25.3617 40.2659C24.6048 39.6402 23.9179 38.9315 23.1552 38.2096V38.2082ZM21.5583 36.6944C16.4469 31.8615 11.3763 27.0694 6.24583 22.219V49.7173C11.404 45.3306 16.46 41.03 21.5583 36.6944ZM41.6892 21.01C41.6673 25.455 45.2635 29.0732 49.7246 29.095C54.139 29.1169 57.7833 25.5192 57.811 21.1107C57.8388 16.654 54.2542 12.9979 49.8252 12.9673C45.3423 12.9367 41.711 16.5271 41.6892 21.01ZM42.344 28.1296C39.3208 30.9894 36.3225 33.8259 33.2877 36.6944C38.3875 41.0315 43.4435 45.3307 48.5988 49.7159V31.2359C46.1794 30.9209 44.091 29.9 42.344 28.1282V28.1296Z" fill="white"/>
<path d="M49.0333 19.7821C48.8117 19.7135 48.6498 19.68 48.501 19.6158C48.0562 19.4204 47.7937 18.9275 47.8681 18.4535C47.944 17.9708 48.3275 17.5917 48.8277 17.5567C49.2448 17.5275 49.6648 17.5333 50.0833 17.5464C50.7323 17.5654 51.1844 17.9373 51.196 18.5789C51.2267 20.4354 51.2267 22.2933 51.1931 24.1498C51.1815 24.7871 50.6565 25.2129 50.076 25.1867C49.4883 25.1604 49.0465 24.7127 49.0392 24.0681C49.0231 22.6492 49.0333 21.2302 49.0333 19.7821Z" fill="white"/>
</g>
<defs>
<clipPath id="clip0_8_103">
<rect width="56" height="56" fill="white" transform="translate(4 4)"/>
</clipPath>
</defs>
</svg>
