<svg width="64" height="66" viewBox="0 0 64 66" fill="none" xmlns="http://www.w3.org/2000/svg">
<path d="M37.2667 1C37.56 1.22833 37.8817 1.42667 38.1417 1.68667C43.55 7.08333 48.9467 12.4917 54.3617 17.8817C54.8417 18.3583 55.045 18.86 55.045 19.5367C55.0317 32.7767 55.035 46.0167 55.035 59.255C55.035 62.3333 53.7167 64.0683 50.7333 64.92C50.6983 64.93 50.6733 64.9717 50.6433 65H12.3883C12.1567 64.9217 11.9283 64.8383 11.695 64.765C9.51667 64.0883 8.01 62.16 8.00833 59.8817C7.995 41.96 8.00167 24.04 8.00167 6.11833C8.00167 6.09833 8.00167 6.07667 8.00333 6.05667C8.06333 3.96167 9.37333 2.11333 11.3433 1.36C11.6867 1.22667 12.04 1.11833 12.3883 1C20.6817 1 28.9733 1 37.2667 1ZM52.5167 20.415C52.38 20.39 52.3383 20.3767 52.2983 20.3767C48.6533 20.375 45.0083 20.3733 41.3633 20.3717C37.8533 20.37 35.6683 18.1933 35.6667 14.6883C35.665 11.2317 35.6667 7.77333 35.6667 4.31667V3.52333H34.9167C27.8133 3.52333 20.71 3.52333 13.6067 3.52333C11.5833 3.52333 10.5167 4.585 10.5167 6.59833C10.5167 24.1983 10.5167 41.7967 10.5167 59.3967C10.5167 61.4117 11.585 62.4783 13.6017 62.4783C25.5367 62.4783 37.4733 62.4783 49.4083 62.4783C51.4617 62.4783 52.5167 61.4183 52.5167 59.3567C52.5167 46.61 52.5167 33.8633 52.5167 21.1167V20.415ZM50.41 17.8433C46.345 13.78 42.2667 9.70167 38.2283 5.665C38.225 5.72667 38.2083 5.90833 38.2083 6.09167C38.2083 9.00667 38.2017 11.9217 38.2083 14.8383C38.2133 16.77 39.3 17.8417 41.24 17.8433C43.9267 17.8467 46.6133 17.8433 49.3 17.8433H50.41Z" fill="white"/>
<path d="M32.6967 35.9076C28.962 35.9076 25.2273 35.9152 21.4926 35.8961C21.0804 35.8942 20.6164 35.8213 20.2675 35.6218C19.7191 35.311 19.537 34.7394 19.6865 34.1237C19.8361 33.5099 20.2617 33.1397 20.8829 33.0284C21.1168 32.9862 21.3603 33.0035 21.5999 33.0035C29.0214 33.0035 36.4429 33.0035 43.8644 33.0035C44.0312 33.0035 44.1999 32.9977 44.3667 33.0073C45.2314 33.063 45.8277 33.6672 45.8181 34.4766C45.8085 35.2918 45.2199 35.8884 44.3322 35.8961C42.2252 35.9172 40.1182 35.9057 38.0112 35.9057C36.2397 35.9057 34.4682 35.9076 32.6967 35.9076Z" fill="white"/>
<path d="M32.6987 44.634C29.1079 44.634 25.517 44.634 21.9262 44.634C21.7345 44.634 21.5427 44.6378 21.351 44.634C20.2506 44.6073 19.6121 44.0499 19.6371 43.1452C19.662 42.2882 20.3215 41.7309 21.3644 41.7309C26.8936 41.7252 32.4246 41.729 37.9537 41.729C40.0128 41.729 42.0718 41.7233 44.1308 41.7328C45.0166 41.7366 45.5936 42.1412 45.7738 42.8398C45.9732 43.6109 45.4805 44.4221 44.6887 44.5767C44.3858 44.6359 44.0695 44.634 43.7589 44.634C40.0722 44.6378 36.3855 44.634 32.6987 44.634Z" fill="white"/>
<path d="M28.3841 50.4563C30.7657 50.4563 33.1473 50.4505 35.5289 50.4601C36.351 50.4639 36.8744 50.8378 37.0381 51.494C37.2774 52.4535 36.6819 53.2948 35.6908 53.3463C35.0414 53.3787 34.3885 53.3558 33.7355 53.3558C29.6918 53.3558 25.6463 53.3558 21.6026 53.3558C21.4011 53.3558 21.1979 53.3653 20.9964 53.3482C20.1852 53.2776 19.6257 52.6691 19.6365 51.8755C19.6473 51.0667 20.1941 50.4811 21.0378 50.4696C22.7682 50.4448 24.4987 50.4601 26.2273 50.4582C26.9468 50.4582 27.6646 50.4563 28.3841 50.4563Z" fill="white"/>
<path d="M37.2667 1C37.56 1.22833 37.8817 1.42667 38.1417 1.68667C43.55 7.08333 48.9467 12.4917 54.3617 17.8817C54.8417 18.3583 55.045 18.86 55.045 19.5367C55.0317 32.7767 55.035 46.0167 55.035 59.255C55.035 62.3333 53.7167 64.0683 50.7333 64.92C50.6983 64.93 50.6733 64.9717 50.6433 65H12.3883C12.1567 64.9217 11.9283 64.8383 11.695 64.765C9.51667 64.0883 8.01 62.16 8.00833 59.8817C7.995 41.96 8.00167 24.04 8.00167 6.11833C8.00167 6.09833 8.00167 6.07667 8.00333 6.05667C8.06333 3.96167 9.37333 2.11333 11.3433 1.36C11.6867 1.22667 12.04 1.11833 12.3883 1C20.6817 1 28.9733 1 37.2667 1ZM52.5167 20.415C52.38 20.39 52.3383 20.3767 52.2983 20.3767C48.6533 20.375 45.0083 20.3733 41.3633 20.3717C37.8533 20.37 35.6683 18.1933 35.6667 14.6883C35.665 11.2317 35.6667 7.77333 35.6667 4.31667V3.52333H34.9167C27.8133 3.52333 20.71 3.52333 13.6067 3.52333C11.5833 3.52333 10.5167 4.585 10.5167 6.59833C10.5167 24.1983 10.5167 41.7967 10.5167 59.3967C10.5167 61.4117 11.585 62.4783 13.6017 62.4783C25.5367 62.4783 37.4733 62.4783 49.4083 62.4783C51.4617 62.4783 52.5167 61.4183 52.5167 59.3567C52.5167 46.61 52.5167 33.8633 52.5167 21.1167V20.415ZM50.41 17.8433C46.345 13.78 42.2667 9.70167 38.2283 5.665C38.225 5.72667 38.2083 5.90833 38.2083 6.09167C38.2083 9.00667 38.2017 11.9217 38.2083 14.8383C38.2133 16.77 39.3 17.8417 41.24 17.8433C43.9267 17.8467 46.6133 17.8433 49.3 17.8433H50.41Z" stroke="white" stroke-width="0.1"/>
<path d="M32.6967 35.9076C28.962 35.9076 25.2273 35.9152 21.4926 35.8961C21.0804 35.8942 20.6164 35.8213 20.2675 35.6218C19.7191 35.311 19.537 34.7394 19.6865 34.1237C19.8361 33.5099 20.2617 33.1397 20.8829 33.0284C21.1168 32.9862 21.3603 33.0035 21.5999 33.0035C29.0214 33.0035 36.4429 33.0035 43.8644 33.0035C44.0312 33.0035 44.1999 32.9977 44.3667 33.0073C45.2314 33.063 45.8277 33.6672 45.8181 34.4766C45.8085 35.2918 45.2199 35.8884 44.3322 35.8961C42.2252 35.9172 40.1182 35.9057 38.0112 35.9057C36.2397 35.9057 34.4682 35.9076 32.6967 35.9076Z" stroke="white" stroke-width="0.1"/>
<path d="M32.6987 44.634C29.1079 44.634 25.517 44.634 21.9262 44.634C21.7345 44.634 21.5427 44.6378 21.351 44.634C20.2506 44.6073 19.6121 44.0499 19.6371 43.1452C19.662 42.2882 20.3215 41.7309 21.3644 41.7309C26.8936 41.7252 32.4246 41.729 37.9537 41.729C40.0128 41.729 42.0718 41.7233 44.1308 41.7328C45.0166 41.7366 45.5936 42.1412 45.7738 42.8398C45.9732 43.6109 45.4805 44.4221 44.6887 44.5767C44.3858 44.6359 44.0695 44.634 43.7589 44.634C40.0722 44.6378 36.3855 44.634 32.6987 44.634Z" stroke="white" stroke-width="0.1"/>
<path d="M28.3841 50.4563C30.7657 50.4563 33.1473 50.4505 35.5289 50.4601C36.351 50.4639 36.8744 50.8378 37.0381 51.494C37.2774 52.4535 36.6819 53.2948 35.6908 53.3463C35.0414 53.3787 34.3885 53.3558 33.7355 53.3558C29.6918 53.3558 25.6463 53.3558 21.6026 53.3558C21.4011 53.3558 21.1979 53.3653 20.9964 53.3482C20.1852 53.2776 19.6257 52.6691 19.6365 51.8755C19.6473 51.0667 20.1941 50.4811 21.0378 50.4696C22.7682 50.4448 24.4987 50.4601 26.2273 50.4582C26.9468 50.4582 27.6646 50.4563 28.3841 50.4563Z" stroke="white" stroke-width="0.1"/>
</svg>
