<svg width="66" height="66" viewBox="0 0 66 66" fill="none" xmlns="http://www.w3.org/2000/svg">
<path d="M31.0006 1C32.3332 1 33.6674 1 35 1C35.1603 1.035 35.319 1.09 35.481 1.10167C40.4423 1.47335 45.0813 2.90338 49.3179 5.50012C57.6073 10.5819 62.7122 17.9054 64.5074 27.4857C64.7245 28.6474 64.838 29.8274 65 30.9991V34.9992C64.9649 35.1592 64.9082 35.3192 64.8965 35.4809C64.5174 40.4177 63.1063 45.0411 60.528 49.2646C55.4481 57.5865 48.1122 62.7033 38.5102 64.51C37.3513 64.7283 36.1706 64.84 35 65H31.0006C30.7985 64.9617 30.5998 64.9167 30.3961 64.8867C29.0585 64.6917 27.7042 64.58 26.3866 64.295C18.6316 62.6183 12.3059 58.6148 7.52163 52.3047C2.21798 45.3095 0.170672 37.3743 1.3012 28.6741C2.13115 22.2906 4.73955 16.6654 9.01787 11.8536C13.9725 6.2818 20.1278 2.79505 27.4871 1.49168C28.651 1.28501 29.8283 1.16167 31.0006 1ZM12.498 54.8047C23.987 65.6934 42.7601 66.0917 54.5881 53.7847C66.5129 41.3761 64.9983 23.0772 54.8503 12.5303C40.7445 26.609 26.6405 40.6877 12.498 54.8031V54.8047ZM6.35603 19.3855C0.40112 30.3491 2.62043 44.7528 11.0635 53.3564C25.2227 39.3177 39.3819 25.2773 53.5461 11.2319C44.0075 2.2067 30.1222 0.749993 19.5099 6.21514C19.7086 6.33514 19.884 6.44014 20.0577 6.54681C21.6942 7.54017 23.329 8.5352 24.9655 9.52856C27.4103 11.0119 29.1203 13.1486 30.4028 15.662C30.9037 16.6421 31.1576 17.6804 31.1091 18.7921C31.0657 19.7905 31.054 20.7905 31.0357 21.7905C31.0273 22.2839 31.0357 22.7772 31.0357 23.2989C32.3616 23.5256 33.6507 23.7389 34.9382 23.9689C35.7214 24.1089 36.1022 24.5539 35.997 25.159C35.8901 25.7706 35.3474 26.0923 34.6043 25.9707C33.2283 25.7456 31.8539 25.5106 30.4779 25.289C29.5277 25.1356 28.5759 24.994 27.624 24.8473C27.5873 24.9123 27.5506 24.9773 27.5138 25.044C27.8695 25.364 28.1868 25.749 28.5876 25.9923C29.6897 26.6623 30.8336 27.2607 31.9474 27.9107C32.4668 28.214 32.6087 28.7691 32.3465 29.2557C32.0977 29.7174 31.5233 29.8691 30.9922 29.6007C30.6332 29.4207 30.2825 29.2224 29.845 28.9891C29.8868 29.2941 29.9068 29.4774 29.9385 29.6591C30.356 32.0408 28.3287 35.0476 25.191 34.5425C23.5261 34.2742 22.4356 33.2525 21.4771 32.0158C20.5503 30.8208 19.6686 29.5891 18.7234 28.3157C16.95 31.3691 15.2366 34.3175 13.5099 37.2893C13.7437 37.4326 13.9341 37.5543 14.1295 37.6693C15.8361 38.6676 17.5461 39.6593 19.2477 40.6644C19.8556 41.0227 20.0276 41.4894 19.7871 42.0127C19.5166 42.6011 18.9204 42.7528 18.2625 42.3727C16.1534 41.156 14.0493 39.9327 11.9469 38.706C10.9884 38.1476 10.8999 37.7743 11.4676 36.7859C12.0371 35.7992 12.6048 34.8125 13.2043 33.7692C12.9405 33.7325 12.7618 33.7025 12.5815 33.6859C11.5094 33.5858 10.6343 33.0975 10.1534 32.1475C9.13977 30.1474 8.19293 28.1124 7.24776 26.079C6.86201 25.249 6.88873 24.3789 7.20768 23.5223C7.54667 22.6106 7.89235 21.7005 8.23802 20.7838C7.62349 20.3272 7.00896 19.8722 6.35603 19.3888V19.3855ZM7.4064 17.4488C7.58508 17.6371 7.74706 17.8238 7.92407 17.9938C9.06295 19.0971 10.4957 19.5588 12.0037 19.8672C13.1275 20.0972 14.2931 20.3022 15.0947 21.2155C17.815 24.3106 20.6271 27.329 22.98 30.7324C23.3941 31.3308 23.9853 31.8491 24.5915 32.2591C25.3713 32.7875 26.2246 32.6425 26.9995 32.1408C27.7192 31.6741 28.0532 30.9458 27.8929 30.1524C27.7376 29.3791 27.4587 28.5807 27.0379 27.9157C24.3343 23.6423 21.5756 19.4038 18.837 15.1537C18.7134 14.962 18.5831 14.7704 18.4913 14.562C18.2625 14.047 18.4128 13.607 18.8653 13.3103C19.3279 13.007 19.7838 13.107 20.1595 13.5053C20.2864 13.6403 20.38 13.807 20.4801 13.9653C22.2202 16.6554 23.9586 19.3488 25.7036 22.0372C25.8138 22.2056 25.9441 22.4556 26.0994 22.4856C27.0462 22.6672 28.0014 22.7956 29.1002 22.9639C29.1002 21.4489 29.1336 20.0555 29.0835 18.6638C29.0618 18.0754 28.9767 17.4404 28.7295 16.9154C27.771 14.8754 26.5102 13.027 24.5931 11.7753C22.3471 10.3102 20.0359 8.94354 17.7365 7.56017C17.5678 7.4585 17.2105 7.4935 17.0368 7.60851C16.1684 8.18019 15.3051 8.7652 14.4885 9.40689C11.6463 11.6436 9.28338 14.3087 7.40139 17.4488H7.4064ZM10.11 21.4905C9.72925 22.4239 9.32513 23.3322 8.99783 24.2656C8.89095 24.5689 8.87759 24.994 9.00785 25.279C9.89123 27.2007 10.7947 29.1157 11.7582 30.9991C12.1807 31.8225 13.0691 31.8975 13.7554 31.2858C14.041 31.0325 14.1245 30.7924 13.8756 30.4358C13.3279 29.6524 12.7702 28.8691 12.3143 28.0324C12.0037 27.464 11.7398 26.8207 11.668 26.1873C11.5695 25.329 11.6563 24.4456 11.6964 23.5739C11.7231 23.0206 11.81 22.4722 11.8717 21.9022C11.2806 21.7639 10.7395 21.6389 10.11 21.4922V21.4905ZM13.7838 22.7222C13.7254 23.6673 13.6519 24.4056 13.6435 25.144C13.6385 25.6173 13.5901 26.1657 13.7988 26.5523C14.3282 27.5307 14.9895 28.439 15.6457 29.4491C16.2102 28.464 16.7212 27.5707 17.2589 26.6307C16.135 25.3673 15.0245 24.1189 13.7821 22.7239L13.7838 22.7222Z" fill="white" stroke="white" stroke-width="0.3"/>
<path d="M41.5005 53.4979C44.0371 48.9261 46.5487 44.3993 49.0903 39.8192C48.8749 39.6892 48.6879 39.5725 48.4958 39.4642C45.2679 37.6475 42.0399 35.8324 38.812 34.0157C38.1674 33.6524 37.9704 33.2624 38.1424 32.709C38.3361 32.084 38.994 31.8573 39.6753 32.229C41.1365 33.0274 42.5827 33.849 44.0338 34.6657C46.2114 35.8891 48.3873 37.1108 50.5615 38.3392C51.4683 38.8508 51.5801 39.2509 51.0775 40.1659C50.2759 41.6242 49.4694 43.0793 48.606 44.6443C49.9971 44.8827 51.3246 45.111 52.7007 45.3477C53.736 40.1525 54.7596 35.0174 55.7983 29.8073C54.5292 29.5806 53.3102 29.3589 52.0895 29.1439C49.6915 28.7206 47.2951 28.3022 44.8971 27.8806C44.1774 27.7539 43.7867 27.2905 43.9019 26.7039C44.0204 26.0972 44.5264 25.8072 45.2428 25.9355C49.1153 26.6222 52.9862 27.3072 56.8587 27.9956C57.8824 28.1772 58.0844 28.4639 57.8824 29.4773C56.7569 35.1291 55.628 40.7792 54.4975 46.4294C54.3405 47.2144 53.8963 47.5344 53.1148 47.4111C51.4298 47.1461 49.7432 46.8844 48.065 46.5744C47.6492 46.4977 47.4805 46.6127 47.2951 46.9527C45.8323 49.6378 44.3511 52.3162 42.8732 54.9929C42.3555 55.9313 41.9264 56.058 41.0063 55.5246C35.8729 52.5529 30.743 49.5778 25.613 46.6027C24.9334 46.2077 24.728 45.781 24.9417 45.2477C25.1922 44.621 25.8134 44.4493 26.5014 44.841C28.1646 45.791 29.8195 46.751 31.4777 47.7094C34.7942 49.6245 38.109 51.5378 41.5056 53.4996L41.5005 53.4979Z" fill="white" stroke="white" stroke-width="0.3"/>
</svg>
