<svg width="56" height="56" viewBox="0 0 56 56" fill="none" xmlns="http://www.w3.org/2000/svg">
<path d="M7 21C18.6667 18.6667 28 7 28 7C28 7 37.3333 18.6667 49 21" stroke="white" stroke-width="2.2" stroke-linecap="round" stroke-linejoin="round"/>
<path d="M27.9993 7C23.5492 12.3398 17.971 16.6271 11.666 19.5533L9.54264 46.48C9.51681 46.8017 9.55802 47.1254 9.66367 47.4304C9.76931 47.7354 9.93708 48.0151 10.1564 48.252C10.3757 48.4888 10.6417 48.6776 10.9377 48.8063C11.2337 48.9351 11.5532 49.001 11.876 49H44.146C44.4687 49.001 44.7882 48.9351 45.0842 48.8063C45.3802 48.6776 45.6463 48.4888 45.8656 48.252C46.0849 48.0151 46.2526 47.7354 46.3583 47.4304C46.4639 47.1254 46.5051 46.8017 46.4793 46.48L44.3326 19.5533C38.0276 16.6271 32.4494 12.3398 27.9993 7V7ZM30.1693 31.08L37.3326 49H18.666L25.8293 31.08C26.0013 30.6448 26.3002 30.2713 26.6872 30.0082C27.0742 29.745 27.5313 29.6043 27.9993 29.6043C28.4673 29.6043 28.9244 29.745 29.3114 30.0082C29.6984 30.2713 29.9973 30.6448 30.1693 31.08V31.08Z" stroke="white" stroke-width="3.2" stroke-linecap="round" stroke-linejoin="round"/>
</svg>
