<svg width="64" height="64" viewBox="0 0 64 64" fill="none" xmlns="http://www.w3.org/2000/svg">
<path d="M64 47.204C63.9448 47.4865 63.9031 47.7723 63.8345 48.0497C63.4635 49.5757 62.1046 50.6672 60.5235 50.7123C60.1909 50.7223 59.8566 50.7173 59.5223 50.7173C43.9064 50.7173 28.2921 50.7173 12.6762 50.7173C10.8025 50.7173 9.42193 49.7044 9.02414 48.0196C8.93388 47.6402 8.93388 47.2341 8.93054 46.8396C8.91717 45.2317 8.92051 43.6239 8.91549 42.0143C8.91549 41.9758 8.89209 41.9374 8.84864 41.8037C8.65977 41.8037 8.44081 41.8037 8.22019 41.8037C6.71927 41.8037 5.21834 41.812 3.71742 41.802C1.49947 41.787 0.0169312 40.3429 0.011917 38.1149C-0.00479705 30.5952 -0.00312565 23.0756 0.011917 15.5543C0.0169312 13.2828 1.4861 11.8504 3.75252 11.8504C19.5974 11.8488 35.4424 11.8488 51.2856 11.8504C53.5537 11.8504 55.0028 13.2945 55.0145 15.5593C55.0229 17.2675 55.0162 18.9756 55.0162 20.764C55.8385 20.764 56.6024 20.764 57.3662 20.764C58.3256 20.764 59.285 20.7574 60.2427 20.7657C62.24 20.7841 63.5738 21.9324 63.9047 23.908C63.9248 24.0283 63.9682 24.1453 64 24.264V47.204ZM10.973 30.0454C10.9529 30.169 10.9329 30.2292 10.9329 30.2894C10.9312 33.8612 10.9362 37.433 10.9195 41.0048C10.9178 41.4042 11.1034 41.4794 11.4226 41.5496C14.9459 42.3101 17.1221 44.4763 18.033 47.9494C18.0949 48.1868 18.1316 48.4308 18.1801 48.6765H54.6836C54.7103 48.5278 54.7304 48.4074 54.7521 48.2871C55.3505 44.9175 57.988 42.1814 61.2739 41.5764C61.7871 41.4828 61.9492 41.314 61.9458 40.7825C61.9208 37.4196 61.9341 34.0567 61.9308 30.6922C61.9308 30.4883 61.9124 30.2844 61.9007 30.047C60.0087 29.7495 58.3791 28.9773 57.0419 27.6302C55.7082 26.2864 54.956 24.645 54.6669 22.7664H53.9231C50.0036 22.7664 46.0842 22.7664 42.1648 22.7664C34.3677 22.7664 26.5705 22.7697 18.7718 22.758C18.3171 22.758 18.1784 22.8851 18.0447 23.3464C17.7622 24.3174 17.4447 25.3169 16.9265 26.1744C15.5894 28.394 13.5419 29.6258 10.9713 30.042L10.973 30.0454ZM8.92719 37.8525C8.92719 37.6486 8.92719 37.4447 8.92719 37.2408C8.92719 33.0221 8.92385 28.8018 8.92719 24.5832C8.93054 22.2014 10.3629 20.7707 12.7464 20.764C14.8105 20.759 16.8747 20.7741 18.9372 20.749C19.188 20.7457 19.5172 20.6236 19.6743 20.4398C23.9966 15.4423 30.9948 15.4389 35.3555 20.4331C35.5159 20.617 35.8402 20.7473 36.0892 20.749C40.9664 20.7674 45.8452 20.7624 50.724 20.7607C50.8477 20.7607 50.9731 20.7356 51.2137 20.7089C50.9029 20.5635 50.714 20.4782 50.5285 20.388C48.0197 19.1678 46.4603 17.1856 45.8903 14.4595C45.7834 13.948 45.6095 13.8428 45.1332 13.8428C33.3966 13.8561 21.66 13.8528 9.92335 13.8528H9.27485C9.23808 13.9982 9.21802 14.0567 9.20799 14.1185C8.61464 17.6719 6.06073 20.3161 2.51401 21.0097C2.08279 21.0933 1.99755 21.2889 1.99922 21.6833C2.01092 25.088 2.0059 28.4926 2.0059 31.8973C2.0059 32.0995 2.0059 32.3001 2.0059 32.5006C5.30024 33.0723 7.53993 34.8623 8.92385 37.8508L8.92719 37.8525ZM16.0624 22.7948C14.7805 22.7948 13.4951 22.7564 12.2148 22.8115C11.5847 22.8383 11.0399 23.2695 11.0014 23.8896C10.9145 25.2434 10.9747 26.6073 10.9747 27.9745C13.6238 27.555 16.029 25.103 16.0624 22.7948ZM47.8726 13.8712C47.9528 16.2579 50.8427 19.1227 53.0022 18.9673C53.0022 17.7204 53.0256 16.4702 52.9938 15.2217C52.9754 14.5147 52.4322 13.9129 51.7369 13.8862C50.4516 13.8361 49.1629 13.8712 47.8743 13.8712H47.8726ZM10.9529 43.557C10.9529 44.8674 10.9212 46.1778 10.9663 47.4848C10.9864 48.0815 11.548 48.6498 12.1597 48.6732C13.4617 48.7233 14.7688 48.6882 16.0741 48.6882C15.9404 46.2797 13.3247 43.6606 10.9529 43.5553V43.557ZM56.7879 22.7814C56.8046 25.1064 59.4605 27.789 61.884 27.9394C61.884 26.6123 61.9275 25.2835 61.8656 23.9598C61.8355 23.3079 61.2305 22.8132 60.5201 22.7915C59.2766 22.753 58.0314 22.7798 56.7862 22.7798L56.7879 22.7814ZM7.17389 39.7896C7.00006 37.3043 4.29239 34.615 2.03432 34.6551C2.03432 35.9203 1.99755 37.1889 2.04769 38.4525C2.07777 39.2147 2.66109 39.7529 3.45167 39.7779C4.67514 39.8181 5.90028 39.788 7.17222 39.788L7.17389 39.7896ZM56.7545 48.7049C58.0398 48.7049 59.2883 48.7317 60.5352 48.6949C61.3224 48.6715 61.869 48.0949 61.9124 47.2675C61.9542 46.4769 61.9308 45.6814 61.9341 44.8891C61.9358 44.4412 61.9341 43.9949 61.9341 43.5403C59.4471 43.7408 57.047 46.1443 56.7545 48.7033V48.7049ZM2.04435 18.9807C4.2857 19.0358 7.19228 16.1159 7.14046 13.8628C5.89359 13.8628 4.64672 13.8394 3.39986 13.8712C2.68449 13.8895 2.08947 14.416 2.06106 15.1197C2.00758 16.405 2.04602 17.6937 2.04602 18.9807H2.04435ZM22.2884 20.7072H32.7765C29.9434 18.0814 24.8975 18.0898 22.2884 20.7072Z" fill="white"/>
<path d="M60.2747 4.32742C59.2301 3.40982 58.3058 2.63428 57.4317 1.80694C57.1826 1.57127 56.9403 1.18685 56.9386 0.867608C56.9369 0.586812 57.2177 0.152246 57.4734 0.0586474C57.7843 -0.0533367 58.2941 -0.00319455 58.5515 0.194031C59.4758 0.90605 60.3299 1.70665 61.209 2.47717C61.9628 3.13738 62.72 3.7909 63.4638 4.4628C64.0855 5.02606 64.1022 5.62109 63.4855 6.16931C61.8809 7.59836 60.263 9.01237 58.6401 10.4214C58.127 10.8676 57.5186 10.8325 57.1425 10.3863C56.7547 9.92663 56.8216 9.37673 57.3548 8.89871C58.2707 8.07805 59.2 7.27243 60.2714 6.33143H59.429C47.0455 6.33143 34.6638 6.33143 22.2803 6.33143C22.0513 6.33143 21.819 6.34815 21.5934 6.31639C21.0468 6.24118 20.6758 5.80327 20.7176 5.27678C20.761 4.72187 21.0819 4.4043 21.6301 4.33745C21.8558 4.30903 22.0881 4.32742 22.3171 4.32742C34.6788 4.32742 47.0405 4.32742 59.4039 4.32742H60.2797H60.2747Z" fill="white"/>
<path d="M3.67071 58.2403C4.60168 59.0576 5.39727 59.7546 6.19119 60.4532C6.3951 60.6321 6.61238 60.8009 6.78454 61.0081C7.14055 61.4343 7.14556 61.9023 6.77785 62.3152C6.41014 62.728 5.93212 62.7781 5.48084 62.4689C5.10477 62.2099 4.77885 61.8806 4.43287 61.5781C3.13084 60.4382 1.82548 59.3 0.530138 58.1517C-0.160153 57.5383 -0.173524 56.955 0.498381 56.3599C2.07619 54.9627 3.66737 53.5837 5.24684 52.1898C5.62458 51.8555 6.02572 51.7068 6.5004 51.9491C7.15392 52.2851 7.23415 53.074 6.63913 53.6205C5.71651 54.4663 4.76715 55.2802 3.68241 56.2363H4.51477C16.8949 56.2363 29.275 56.2363 41.6567 56.2363C41.8857 56.2363 42.118 56.2196 42.3437 56.2496C42.8886 56.3215 43.2663 56.7577 43.2295 57.2826C43.1894 57.8375 42.8702 58.1584 42.3253 58.2303C42.0997 58.2603 41.8673 58.242 41.6384 58.242C29.3 58.242 16.9601 58.242 4.62174 58.242H3.67238L3.67071 58.2403Z" fill="white"/>
<path d="M46.5072 35.7298C46.5172 41.3273 42.0161 45.8468 36.4286 45.8485C30.8728 45.8485 26.3534 41.3474 26.34 35.7966C26.3266 30.1974 30.8244 25.6529 36.3935 25.6412C41.9777 25.6278 46.4971 30.1373 46.5072 35.7314V35.7298ZM44.5048 35.7665C44.5115 31.2905 40.923 27.6602 36.4771 27.6452C31.9877 27.6301 28.3457 31.2471 28.3407 35.7264C28.3357 40.2242 31.9509 43.8478 36.437 43.8428C40.9013 43.8378 44.4981 40.2359 44.5048 35.7682V35.7665Z" fill="white"/>
<path d="M36.8757 35.0393C36.8207 35.0393 36.7692 35.0393 36.7177 35.0393C35.5825 35.0393 34.4472 35.0411 33.3123 35.0382C32.842 35.0372 32.5738 34.7115 32.6973 34.304C32.7627 34.0882 32.9496 33.9449 33.1966 33.9249C33.2639 33.9193 33.3317 33.9196 33.3994 33.9196C34.5056 33.9196 35.6119 33.9196 36.7181 33.9196H36.8946C36.8695 33.8578 36.8575 33.8114 36.8331 33.771C36.4762 33.1787 35.9537 32.8091 35.1865 32.7957C34.5637 32.7848 33.9401 32.7947 33.317 32.7925C32.8436 32.7911 32.568 32.4574 32.6996 32.0474C32.7635 31.8485 32.9113 31.7259 33.1343 31.6862C33.2186 31.6711 33.3069 31.6676 33.3932 31.6676C35.591 31.6665 37.7891 31.6669 39.9869 31.6669C40.0353 31.6669 40.0837 31.6658 40.1317 31.6697C40.5094 31.6989 40.7208 31.9205 40.7053 32.2694C40.691 32.5842 40.4537 32.7911 40.091 32.7925C39.3277 32.7954 38.5644 32.7936 37.8011 32.7936C37.7493 32.7936 37.6978 32.7936 37.6254 32.7936C37.6943 32.9025 37.7632 32.9917 37.8104 33.0898C37.9246 33.3259 38.0365 33.5637 38.1325 33.8061C38.1661 33.8905 38.1975 33.9231 38.2993 33.9224C38.8934 33.9179 39.4876 33.9172 40.0817 33.9214C40.5292 33.9245 40.792 34.2355 40.6917 34.6307C40.6279 34.8826 40.4107 35.0365 40.096 35.0386C39.5162 35.0425 38.9368 35.0446 38.357 35.0368C38.2153 35.0351 38.1623 35.0723 38.1278 35.1992C37.8453 36.2454 36.6411 37.3114 35.1369 37.2931C35.0313 37.2917 34.9252 37.2931 34.782 37.2931C34.8381 37.3472 34.871 37.3806 34.9063 37.4122C35.7361 38.1668 36.5668 38.9208 37.3959 39.6765C37.6564 39.914 37.6881 40.1951 37.4892 40.4343C37.2573 40.7129 36.8548 40.747 36.5784 40.5042C36.3179 40.2755 36.0651 40.0394 35.8089 39.8065C34.8354 38.9215 33.8623 38.0362 32.8881 37.1522C32.698 36.9797 32.6113 36.7882 32.712 36.5455C32.8211 36.2827 32.9883 36.1685 33.3003 36.1674C33.9235 36.165 34.5467 36.173 35.1699 36.165C35.9366 36.1548 36.4627 35.7908 36.8249 35.2009C36.8458 35.1668 36.8594 35.1289 36.8741 35.0916C36.8784 35.0804 36.8749 35.0667 36.8749 35.04L36.8757 35.0393Z" fill="white" stroke="white" stroke-width="0.4"/>
</svg>
